0
SECTION
2
HEADER
9
$INSUNITS
70
4
9
$ACADVER
1
AC1014
9
$HANDSEED
5
FFFF
0
ENDSEC
0
SECTION
2
TABLES
0
TABLE
2
VPORT
5
8
100
AcDbSymbolTable
0
ENDTAB
0
TABLE
2
LTYPE
5
5
100
AcDbSymbolTable
0
LTYPE
5
14
100
AcDbSymbolTableRecord
100
AcDbLinetypeTableRecord
2
BYBLOCK
70
0
0
LTYPE
5
15
100
AcDbSymbolTableRecord
100
AcDbLinetypeTableRecord
2
BYLAYER
70
0
0
ENDTAB
0
TABLE
2
LAYER
5
2
100
AcDbSymbolTable
70
2
0
LAYER
5
50
100
AcDbSymbolTableRecord
100
AcDbLayerTableRecord
2
0
70
0
6
CONTINUOUS
0
ENDTAB
0
TABLE
2
STYLE
5
3
100
AcDbSymbolTable
70
1
0
STYLE
5
11
100
AcDbSymbolTableRecord
100
AcDbTextStyleTableRecord
2
STANDARD
70
0
0
ENDTAB
0
TABLE
2
VIEW
5
6
100
AcDbSymbolTable
70
0
0
ENDTAB
0
TABLE
2
UCS
5
7
100
AcDbSymbolTable
70
0
0
ENDTAB
0
TABLE
2
APPID
5
9
100
AcDbSymbolTable
70
2
0
APPID
5
12
100
AcDbSymbolTableRecord
100
AcDbRegAppTableRecord
2
ACAD
70
0
0
ENDTAB
0
TABLE
2
DIMSTYLE
5
A
100
AcDbSymbolTable
70
1
0
ENDTAB
0
TABLE
2
BLOCK_RECORD
5
1
100
AcDbSymbolTable
70
1
0
BLOCK_RECORD
5
1F
100
AcDbSymbolTableRecord
100
AcDbBlockTableRecord
2
*MODEL_SPACE
0
BLOCK_RECORD
5
1B
100
AcDbSymbolTableRecord
100
AcDbBlockTableRecord
2
*PAPER_SPACE
0
ENDTAB
0
ENDSEC
0
SECTION
2
BLOCKS
0
BLOCK
5
20
100
AcDbEntity
100
AcDbBlockBegin
2
*MODEL_SPACE
0
ENDBLK
5
21
100
AcDbEntity
100
AcDbBlockEnd
0
BLOCK
5
1C
100
AcDbEntity
100
AcDbBlockBegin
2
*PAPER_SPACE
0
ENDBLK
5
1D
100
AcDbEntity
100
AcDbBlockEnd
0
ENDSEC
0
SECTION
2
ENTITIES
0
LWPOLYLINE
5
100
100
AcDbEntity
8
0
100
AcDbPolyline
90
32
70
1
43
0.0
10
-107.68667975288736
20
12.27193508295418
10
-39.591798957408351
20
-68.098329011657484
10
-35.213528680174193
20
-68.098329011657498
10
-35.213528680174193
20
-50.768754370897227
10
51.869087566559678
20
-50.768754370897227
10
51.869087566559706
20
-68.098329011657498
10
56.247357843793885
20
-68.098329011657498
10
124.34223863927281
20
12.271935082954153
10
88.327779443192753
20
12.27193508295418
10
88.327779443192753
20
27.571935082954898
10
83.337779443192744
20
27.571935082954898
10
83.337779443192744
20
39.571935082954873
10
88.327779443192753
20
39.571935082954873
10
88.327779443192753
20
63.821935082954852
10
83.337779443192815
20
63.821935082954866
10
83.337779443192829
20
71.821935082954866
10
88.327779443192753
20
71.821935082954852
10
88.327779443192753
20
94.77193508295457
10
59.537779443192854
20
119.77193508295457
10
25.489429526306605
20
181.90167098834252
10
-8.8338706399211233
20
181.90167098834252
10
-42.882220556807368
20
119.77193508295457
10
-71.672220556807275
20
94.77193508295457
10
-71.672220556807275
20
71.821935082954866
10
-66.682220556807366
20
71.821935082954894
10
-66.682220556807337
20
63.82193508295488
10
-71.672220556807275
20
63.821935082954866
10
-71.672220556807275
20
39.571935082954873
10
-66.682220556807266
20
39.571935082954873
10
-66.682220556807266
20
27.571935082954898
10
-71.672220556807275
20
27.571935082954898
10
-71.672220556807275
20
12.27193508295418
0
LWPOLYLINE
5
101
100
AcDbEntity
8
0
100
AcDbPolyline
90
4
70
1
43
0.0
10
-79.172220556807304
20
5.9174504769948602
10
-75.940040642029487
20
2.1026093271555899
10
-83.569722941708008
20
-4.3617505024000316
10
-86.80190285648581
20
-0.54690935256076156
0
LWPOLYLINE
5
102
100
AcDbEntity
8
0
100
AcDbPolyline
90
4
70
1
43
0.0
10
61.869087566559656
20
-2.7280649170458195
10
61.869087566559656
20
-17.72806491704582
10
51.869087566559656
20
-17.728064917045817
10
51.869087566559656
20
-2.7280649170458182
0
LWPOLYLINE
5
103
100
AcDbEntity
8
0
100
AcDbPolyline
90
4
70
1
43
0.0
10
-47.872220556807278
20
39.571935082954873
10
-42.882220556807269
20
39.571935082954873
10
-42.882220556807269
20
27.571935082954898
10
-47.872220556807278
20
27.571935082954898
0
LWPOLYLINE
5
104
100
AcDbEntity
8
0
100
AcDbPolyline
90
4
70
1
43
0.0
10
-47.872220556807278
20
63.821935082954866
10
-47.872220556807285
20
71.821935082954866
10
-42.882220556807354
20
71.821935082954894
10
-42.882220556807333
20
63.82193508295488
0
LWPOLYLINE
5
105
100
AcDbEntity
8
0
100
AcDbPolyline
90
4
70
1
43
0.0
10
57.832305614693986
20
-38.927422299390045
10
61.064485529471796
20
-35.11258114955077
10
68.694167829150274
20
-41.576940979106368
10
65.4619879143725
20
-45.391782128945636
0
LWPOLYLINE
5
106
100
AcDbEntity
8
0
100
AcDbPolyline
90
4
70
1
43
0.0
10
-14.172220556807286
20
151.08680303564839
42
0.99999999999999989
10
-14.172220556807286
20
148.08680303564842
10
30.827779443192739
20
148.08680303564842
42
0.99999999999999989
10
30.827779443192739
20
151.08680303564836
0
LWPOLYLINE
5
107
100
AcDbEntity
8
0
100
AcDbPolyline
90
4
70
1
43
0.0
10
-45.213528680174178
20
-17.728064917045817
10
-45.213528680174178
20
-2.7280649170458182
10
-35.213528680174193
20
-2.7280649170458195
10
-35.213528680174193
20
-17.72806491704582
0
LWPOLYLINE
5
108
100
AcDbEntity
8
0
100
AcDbPolyline
90
4
70
1
43
0.0
10
0.82777944319273322
20
170.96497570475594
10
0.82777944319274011
20
175.96497570475594
10
15.827779443192734
20
175.96497570475594
10
15.827779443192734
20
170.96497570475594
0
LWPOLYLINE
5
109
100
AcDbEntity
8
0
100
AcDbPolyline
90
4
70
1
43
0.0
10
103.45746174287123
20
-0.54690935256062989
10
100.22528182809346
20
-4.3617505023998984
10
92.595599528414922
20
2.1026093271557005
10
95.827779443192739
20
5.9174504769949774
0
LWPOLYLINE
5
110
100
AcDbEntity
8
0
100
AcDbPolyline
90
4
70
1
43
0.0
10
-48.806429027986994
20
-45.391782128945721
10
-52.038608942764796
20
-41.576940979106453
10
-44.408926643086318
20
-35.112581149550842
10
-41.176746728308501
20
-38.927422299390116
0
LWPOLYLINE
5
111
100
AcDbEntity
8
0
100
AcDbPolyline
90
4
70
1
43
0.0
10
64.527779443192756
20
63.821935082954866
10
59.537779443192811
20
63.82193508295488
10
59.537779443192839
20
71.821935082954894
10
64.52777944319277
20
71.821935082954866
0
LWPOLYLINE
5
112
100
AcDbEntity
8
0
100
AcDbPolyline
90
4
70
1
43
0.0
10
-14.172220556807286
20
-28.913196964351641
42
0.99999999999999989
10
-14.172220556807286
20
-31.913196964351627
10
30.827779443192739
20
-31.913196964351627
42
0.99999999999999989
10
30.827779443192739
20
-28.913196964351641
0
LWPOLYLINE
5
113
100
AcDbEntity
8
0
100
AcDbPolyline
90
4
70
1
43
0.0
10
64.527779443192742
20
39.571935082954873
10
64.527779443192742
20
27.571935082954898
10
59.537779443192733
20
27.571935082954898
10
59.537779443192733
20
39.571935082954873
0
CIRCLE
5
114
100
AcDbEntity
8
0
100
AcDbCircle
10
-51.529844443203217
20
94.738543374729858
30
7.626211573352748e-07
40
1.7500092000068481
210
0
220
0
230
-1
0
CIRCLE
5
115
100
AcDbEntity
8
0
100
AcDbCircle
10
-26.749834243002741
20
27.503066471649063
30
7.626211573352748e-07
40
1.4999999998329252
210
0
220
0
230
-1
0
CIRCLE
5
116
100
AcDbEntity
8
0
100
AcDbCircle
10
-26.749834243002741
20
-10.496933528350938
30
7.626211573352748e-07
40
1.4999999998329248
210
0
220
0
230
-1
0
CIRCLE
5
117
100
AcDbEntity
8
0
100
AcDbCircle
10
11.250165756997259
20
-10.496933528350938
30
7.626211573352748e-07
40
1.4999999997630322
210
0
220
0
230
-1
0
CIRCLE
5
118
100
AcDbEntity
8
0
100
AcDbCircle
10
11.250165756997259
20
27.503066471649063
30
7.626211573352748e-07
40
1.499999999832927
210
0
220
0
230
-1
0
CIRCLE
5
119
100
AcDbEntity
8
0
100
AcDbCircle
10
-8.349844443192131
20
43.938543374742039
30
7.626211573352748e-07
40
1.7500092000001866
210
0
220
0
230
-1
0
CIRCLE
5
120
100
AcDbEntity
8
0
100
AcDbCircle
10
-36.289844443192187
20
43.938543374742039
30
7.626211573352748e-07
40
1.7500092000002101
210
0
220
0
230
-1
0
CIRCLE
5
121
100
AcDbEntity
8
0
100
AcDbCircle
10
-3.2698444432032248
20
96.00854337472984
30
7.626211573352748e-07
40
1.7500092000068481
210
0
220
0
230
-1
0
LWPOLYLINE
5
122
100
AcDbEntity
8
0
100
AcDbPolyline
90
32
70
1
43
0.0
10
-107.68667975288736
20
12.27193508295418
10
-39.591798957408351
20
-68.098329011657484
10
-35.213528680174193
20
-68.098329011657498
10
-35.213528680174193
20
-50.768754370897227
10
51.869087566559678
20
-50.768754370897227
10
51.869087566559706
20
-68.098329011657498
10
56.247357843793885
20
-68.098329011657498
10
124.34223863927281
20
12.271935082954153
10
88.327779443192753
20
12.27193508295418
10
88.327779443192753
20
27.571935082954898
10
83.337779443192744
20
27.571935082954898
10
83.337779443192744
20
39.571935082954873
10
88.327779443192753
20
39.571935082954873
10
88.327779443192753
20
63.821935082954852
10
83.337779443192815
20
63.821935082954866
10
83.337779443192829
20
71.821935082954866
10
88.327779443192753
20
71.821935082954852
10
88.327779443192753
20
94.77193508295457
10
59.537779443192854
20
119.77193508295458
10
25.489429526306605
20
181.90167098834252
10
-8.8338706399211233
20
181.90167098834252
10
-42.882220556807368
20
119.77193508295457
10
-71.672220556807275
20
94.77193508295457
10
-71.672220556807275
20
71.821935082954866
10
-66.682220556807366
20
71.821935082954894
10
-66.682220556807337
20
63.82193508295488
10
-71.672220556807275
20
63.821935082954866
10
-71.672220556807275
20
39.571935082954873
10
-66.682220556807266
20
39.571935082954873
10
-66.682220556807266
20
27.571935082954898
10
-71.672220556807275
20
27.571935082954898
10
-71.672220556807275
20
12.27193508295418
0
LWPOLYLINE
5
123
100
AcDbEntity
8
0
100
AcDbPolyline
90
4
70
1
43
0.0
10
-79.172220556807304
20
5.9174504769948602
10
-75.940040642029487
20
2.1026093271555899
10
-83.569722941708008
20
-4.3617505024000316
10
-86.80190285648581
20
-0.54690935256076156
0
LWPOLYLINE
5
124
100
AcDbEntity
8
0
100
AcDbPolyline
90
4
70
1
43
0.0
10
61.869087566559656
20
-2.7280649170458195
10
61.869087566559656
20
-17.72806491704582
10
51.869087566559656
20
-17.728064917045817
10
51.869087566559656
20
-2.7280649170458182
0
LWPOLYLINE
5
125
100
AcDbEntity
8
0
100
AcDbPolyline
90
4
70
1
43
0.0
10
-47.872220556807278
20
39.571935082954873
10
-42.882220556807269
20
39.571935082954873
10
-42.882220556807269
20
27.571935082954898
10
-47.872220556807278
20
27.571935082954898
0
CIRCLE
5
126
100
AcDbEntity
8
0
100
AcDbCircle
10
51.529844443203217
20
94.738543374729858
30
0
40
1.7500092000068481
210
0
220
0
230
1
0
CIRCLE
5
127
100
AcDbEntity
8
0
100
AcDbCircle
10
26.749834243002741
20
27.503066471649063
30
0
40
1.4999999998329252
210
0
220
0
230
1
0
LWPOLYLINE
5
128
100
AcDbEntity
8
0
100
AcDbPolyline
90
4
70
1
43
0.0
10
-47.872220556807278
20
63.821935082954866
10
-47.872220556807285
20
71.821935082954866
10
-42.882220556807354
20
71.821935082954894
10
-42.882220556807333
20
63.82193508295488
0
CIRCLE
5
129
100
AcDbEntity
8
0
100
AcDbCircle
10
26.749834243002741
20
-10.496933528350938
30
0
40
1.4999999998329248
210
0
220
0
230
1
0
LWPOLYLINE
5
130
100
AcDbEntity
8
0
100
AcDbPolyline
90
4
70
1
43
0.0
10
57.832305614693986
20
-38.927422299390045
10
61.064485529471796
20
-35.11258114955077
10
68.694167829150274
20
-41.576940979106368
10
65.4619879143725
20
-45.391782128945636
0
LWPOLYLINE
5
131
100
AcDbEntity
8
0
100
AcDbPolyline
90
4
70
1
43
0.0
10
-14.172220556807286
20
151.08680303564839
42
0.99999999999999989
10
-14.172220556807286
20
148.08680303564842
10
30.827779443192739
20
148.08680303564842
42
0.99999999999999989
10
30.827779443192739
20
151.08680303564836
0
CIRCLE
5
132
100
AcDbEntity
8
0
100
AcDbCircle
10
-11.250165756997259
20
-10.496933528350938
30
0
40
1.4999999997630322
210
0
220
0
230
1
0
LWPOLYLINE
5
133
100
AcDbEntity
8
0
100
AcDbPolyline
90
4
70
1
43
0.0
10
-45.213528680174178
20
-17.728064917045817
10
-45.213528680174178
20
-2.7280649170458182
10
-35.213528680174193
20
-2.7280649170458195
10
-35.213528680174193
20
-17.72806491704582
0
LWPOLYLINE
5
134
100
AcDbEntity
8
0
100
AcDbPolyline
90
4
70
1
43
0.0
10
0.82777944319273322
20
170.96497570475594
10
0.82777944319274011
20
175.96497570475594
10
15.827779443192734
20
175.96497570475594
10
15.827779443192734
20
170.96497570475594
0
LWPOLYLINE
5
135
100
AcDbEntity
8
0
100
AcDbPolyline
90
4
70
1
43
0.0
10
103.45746174287123
20
-0.54690935256062989
10
100.22528182809346
20
-4.3617505023998984
10
92.595599528414922
20
2.1026093271557005
10
95.827779443192739
20
5.9174504769949774
0
CIRCLE
5
136
100
AcDbEntity
8
0
100
AcDbCircle
10
-11.250165756997259
20
27.503066471649063
30
0
40
1.499999999832927
210
0
220
0
230
1
0
LWPOLYLINE
5
137
100
AcDbEntity
8
0
100
AcDbPolyline
90
4
70
1
43
0.0
10
-48.806429027986994
20
-45.391782128945721
10
-52.038608942764796
20
-41.576940979106453
10
-44.408926643086318
20
-35.112581149550842
10
-41.176746728308501
20
-38.927422299390116
0
LWPOLYLINE
5
138
100
AcDbEntity
8
0
100
AcDbPolyline
90
4
70
1
43
0.0
10
64.527779443192756
20
63.821935082954866
10
59.537779443192811
20
63.82193508295488
10
59.537779443192839
20
71.821935082954894
10
64.52777944319277
20
71.821935082954866
0
LWPOLYLINE
5
139
100
AcDbEntity
8
0
100
AcDbPolyline
90
4
70
1
43
0.0
10
-14.172220556807286
20
-28.913196964351641
42
0.99999999999999989
10
-14.172220556807286
20
-31.913196964351627
10
30.827779443192739
20
-31.913196964351627
42
0.99999999999999989
10
30.827779443192739
20
-28.913196964351641
0
LWPOLYLINE
5
140
100
AcDbEntity
8
0
100
AcDbPolyline
90
4
70
1
43
0.0
10
64.527779443192742
20
39.571935082954873
10
64.527779443192742
20
27.571935082954898
10
59.537779443192733
20
27.571935082954898
10
59.537779443192733
20
39.571935082954873
0
CIRCLE
5
141
100
AcDbEntity
8
0
100
AcDbCircle
10
8.349844443192131
20
43.938543374742039
30
0
40
1.7500092000001866
210
0
220
0
230
1
0
CIRCLE
5
142
100
AcDbEntity
8
0
100
AcDbCircle
10
36.289844443192187
20
43.938543374742039
30
0
40
1.7500092000002101
210
0
220
0
230
1
0
CIRCLE
5
143
100
AcDbEntity
8
0
100
AcDbCircle
10
3.2698444432032248
20
96.00854337472984
30
0
40
1.7500092000068481
210
0
220
0
230
1
0
ENDSEC
0
SECTION
2
OBJECTS
0
DICTIONARY
5
C
100
AcDbDictionary
3
ACAD_GROUP
350
D
3
ACAD_MLINESTYLE
350
17
0
DICTIONARY
5
D
100
AcDbDictionary
0
DICTIONARY
5
1A
330
C
100
AcDbDictionary
0
DICTIONARY
5
17
100
AcDbDictionary
0
ENDSEC
0
EOF
