0
SECTION
2
HEADER
9
$INSUNITS
70
4
9
$ACADVER
1
AC1014
9
$HANDSEED
5
FFFF
0
ENDSEC
0
SECTION
2
TABLES
0
TABLE
2
VPORT
5
8
100
AcDbSymbolTable
0
ENDTAB
0
TABLE
2
LTYPE
5
5
100
AcDbSymbolTable
0
LTYPE
5
14
100
AcDbSymbolTableRecord
100
AcDbLinetypeTableRecord
2
BYBLOCK
70
0
0
LTYPE
5
15
100
AcDbSymbolTableRecord
100
AcDbLinetypeTableRecord
2
BYLAYER
70
0
0
ENDTAB
0
TABLE
2
LAYER
5
2
100
AcDbSymbolTable
70
2
0
LAYER
5
50
100
AcDbSymbolTableRecord
100
AcDbLayerTableRecord
2
0
70
0
6
CONTINUOUS
0
ENDTAB
0
TABLE
2
STYLE
5
3
100
AcDbSymbolTable
70
1
0
STYLE
5
11
100
AcDbSymbolTableRecord
100
AcDbTextStyleTableRecord
2
STANDARD
70
0
0
ENDTAB
0
TABLE
2
VIEW
5
6
100
AcDbSymbolTable
70
0
0
ENDTAB
0
TABLE
2
UCS
5
7
100
AcDbSymbolTable
70
0
0
ENDTAB
0
TABLE
2
APPID
5
9
100
AcDbSymbolTable
70
2
0
APPID
5
12
100
AcDbSymbolTableRecord
100
AcDbRegAppTableRecord
2
ACAD
70
0
0
ENDTAB
0
TABLE
2
DIMSTYLE
5
A
100
AcDbSymbolTable
70
1
0
ENDTAB
0
TABLE
2
BLOCK_RECORD
5
1
100
AcDbSymbolTable
70
1
0
BLOCK_RECORD
5
1F
100
AcDbSymbolTableRecord
100
AcDbBlockTableRecord
2
*MODEL_SPACE
0
BLOCK_RECORD
5
1B
100
AcDbSymbolTableRecord
100
AcDbBlockTableRecord
2
*PAPER_SPACE
0
ENDTAB
0
ENDSEC
0
SECTION
2
BLOCKS
0
BLOCK
5
20
100
AcDbEntity
100
AcDbBlockBegin
2
*MODEL_SPACE
0
ENDBLK
5
21
100
AcDbEntity
100
AcDbBlockEnd
0
BLOCK
5
1C
100
AcDbEntity
100
AcDbBlockBegin
2
*PAPER_SPACE
0
ENDBLK
5
1D
100
AcDbEntity
100
AcDbBlockEnd
0
ENDSEC
0
SECTION
2
ENTITIES
0
LWPOLYLINE
5
100
100
AcDbEntity
8
0
100
AcDbPolyline
90
4
70
1
43
0.0
10
-139.10755125758823
20
156.98465288164294
10
-157.24824391143264
20
79.03950746042176
10
-55.008281002301018
20
78.599797626761131
10
-72.477867817828155
20
156.69809441479185
0
LINE
5
101
100
AcDbEntity
8
0
100
AcDbLine
10
-124.93646152000676
20
119.70215526837936
30
4.4408920985006262e-15
11
-124.24229666399823
21
122.09919209680066
31
4.5796699765787707e-15
0
SPLINE
5
102
100
AcDbEntity
8
0
100
AcDbSpline
70
0
71
3
72
29
73
25
74
0
42
0.000000001
43
0.0000000001
44
0.0000000001
40
0
40
0
40
0
40
0
40
0.6875
40
0.75
40
0.875
40
0.90625
40
0.9375
40
0.953125
40
0.96875
40
0.984375
40
0.9921875
40
0.99609375
40
1
40
1.00390625
40
1.0078125
40
1.015625
40
1.03125
40
1.046875
40
1.0625
40
1.09375
40
1.125
40
1.3125
40
1.625
40
2
40
2
40
2
40
2
10
-124.24229666399826
20
122.09919209680068
30
1.3322676295501878e-14
10
-124.50822676295054
20
124.20868863079065
30
1.3322676295501878e-14
10
-125.29839234950424
20
126.52602761349664
30
4.4408920985006262e-15
10
-125.54403485356542
20
129.20785772086998
30
1.3322676295501878e-14
10
-125.55572443484364
20
129.87671303701208
30
-4.4408920985006262e-15
10
-125.51957131785892
20
130.4485465833105
30
4.4408920985006262e-15
10
-125.49637201451306
20
130.68653080646502
30
4.4408920985006262e-15
10
-125.47265479809448
20
130.87679440831312
30
1.3322676295501878e-14
10
-125.45224733120898
20
131.0192930287387
30
4.4408920985006262e-15
10
-125.43291465175683
20
131.13833264346223
30
2.2204460492503131e-14
10
-125.41830471407647
20
131.22090843275583
30
1.3322676295501878e-14
10
-125.40939150179746
20
131.26919650415871
30
1.3322676295501878e-14
10
-125.40313200070725
20
131.30227102440375
30
2.2204460492503131e-14
10
-125.39439397920444
20
131.34732668713124
30
1.3322676295501878e-14
10
-125.38332659403095
20
131.40312832289061
30
4.4408920985006262e-15
10
-125.36300218294885
20
131.50254439551333
30
4.4408920985006262e-15
10
-125.33252336705581
20
131.64299972212547
30
4.4408920985006262e-15
10
-125.29330332437306
20
131.81113295465232
30
4.4408920985006262e-15
10
-125.23770802187101
20
132.03405103510207
30
4.4408920985006262e-15
10
-125.16211519225712
20
132.3107283086394
30
4.4408920985006262e-15
10
-124.89559482519533
20
133.18785334375841
30
2.2204460492503131e-14
10
-124.15600580155582
20
134.99423719520232
30
4.4408920985006262e-15
10
-122.51146427157344
20
137.82777007171703
30
4.4408920985006262e-15
10
-121.16512642934887
20
140.03612392325832
30
1.3322676295501878e-14
10
-120.55975607440273
20
141.28353192922603
30
4.4408920985006262e-15
0
LINE
5
103
100
AcDbEntity
8
0
100
AcDbLine
10
-120.55975607440273
20
141.283531929226
30
4.4408920985006254e-15
11
-126.93045196935267
21
148.11099366943873
31
4.4408920985006262e-15
0
ARC
5
104
100
AcDbEntity
8
0
100
AcDbCircle
10
-129.57349999538761
20
133.31519831665327
30
-4.4408920985006277e-15
40
15.030012075491987
210
-3.318494910170489e-17
220
-1.0685178422298064e-16
230
1
100
AcDbArc
50
35.624611116198132
51
79.871794351831525
0
LINE
5
105
100
AcDbEntity
8
0
100
AcDbLine
10
-117.35634509029498
20
142.06976221295366
30
-3.1000256623936982e-15
11
-118.21138694706883
21
129.27332116775813
31
-5.5511151231257827e-15
0
SPLINE
5
106
100
AcDbEntity
8
0
100
AcDbSpline
70
0
71
3
72
49
73
45
74
0
42
0.000000001
43
0.0000000001
44
0.0000000001
40
0
40
0
40
0
40
0
40
0.796875
40
0.84375
40
0.890625
40
0.9140625
40
0.9375
40
0.9609375
40
0.97265625
40
0.984375
40
0.990234375
40
0.99609375
40
0.9990234375
40
0.999755859375
40
1.00048828125
40
1.001953125
40
1.0048828125
40
1.0078125
40
1.013671875
40
1.01953125
40
1.03125
40
1.04296875
40
1.0546875
40
1.3125
40
1.59375
40
1.6875
40
1.78125
40
1.828125
40
1.875
40
1.921875
40
1.96875
40
1.98046875
40
1.9921875
40
1.998046875
40
2.00390625
40
2.015625
40
2.0390625
40
2.0625
40
2.109375
40
2.15625
40
2.25
40
2.34375
40
2.4375
40
3
40
3
40
3
40
3
10
-118.21138694706883
20
129.27332116775813
30
1.3322676295501878e-14
10
-117.14112859218545
20
131.07498494502136
30
4.4408920985006262e-15
10
-115.80837190588647
20
132.88061370893109
30
4.4408920985006262e-15
10
-114.71170709523176
20
134.94510958610508
30
4.4408920985006262e-15
10
-114.57240228742162
20
135.21930493288357
30
1.3322676295501878e-14
10
-114.46422693958667
20
135.44033836205608
30
4.4408920985006262e-15
10
-114.38480546793042
20
135.60697099794837
30
-4.4408920985006262e-15
10
-114.32007987949248
20
135.74662936429237
30
1.3322676295501878e-14
10
-114.26926152214799
20
135.85873164574696
30
-4.4408920985006262e-15
10
-114.23779690693566
20
135.9292121089172
30
-1.3322676295501878e-14
10
-114.2130792657337
20
135.98522224439364
30
4.4408920985006262e-15
10
-114.1972400155443
20
136.02141236028447
30
-4.4408920985006262e-15
10
-114.18790784941011
20
136.04285371450874
30
-4.4408920985006262e-15
10
-114.18264774312503
20
136.05497395829761
30
4.4408920985006262e-15
10
-114.18152271407097
20
136.05756943629081
30
-4.4408920985006262e-15
10
-114.1807148961058
20
136.05945849213688
30
2.2204460492503131e-14
10
-114.17898880874679
20
136.06354311626123
30
4.4408920985006262e-15
10
-114.17662308030106
20
136.06930795365358
30
4.4408920985006262e-15
10
-114.17366366352523
20
136.07678482034135
30
4.4408920985006262e-15
10
-114.16923055467892
20
136.08861224453918
30
4.4408920985006262e-15
10
-114.16410801598674
20
136.10347061641747
30
1.3322676295501878e-14
10
-114.15866023237081
20
136.1213157016798
30
-4.4408920985006262e-15
10
-114.12045219973395
20
136.26441236221905
30
4.4408920985006262e-15
10
-114.16431141926839
20
136.55106670149632
30
-4.4408920985006262e-15
10
-114.34547615277972
20
136.89086584358711
30
4.4408920985006262e-15
10
-114.46729259473139
20
137.14546696724884
30
1.3322676295501878e-14
10
-114.51845721793227
20
137.27329294493302
30
-4.4408920985006262e-15
10
-114.54955568406319
20
137.37573035755466
30
1.3322676295501878e-14
10
-114.56696178728721
20
137.45265419743887
30
4.4408920985006262e-15
10
-114.57746915987605
20
137.52948673933557
30
-4.4408920985006262e-15
10
-114.57938223067188
20
137.5874592912343
30
4.4408920985006262e-15
10
-114.57793040751737
20
137.62555889293711
30
-4.4408920985006262e-15
10
-114.57676550021381
20
137.64223475640409
30
4.4408920985006262e-15
10
-114.57573365806164
20
137.65370090725594
30
4.4408920985006262e-15
10
-114.57379392340127
20
137.67201624158065
30
4.4408920985006262e-15
10
-114.56983318755118
20
137.70718832953003
30
-1.3322676295501878e-14
10
-114.56359923628015
20
137.7556159271841
30
-4.4408920985006262e-15
10
-114.55202539355875
20
137.83369662113336
30
-4.4408920985006262e-15
10
-114.53486161916301
20
137.93038475641373
30
1.3322676295501878e-14
10
-114.50201661854814
20
138.08409121507731
30
-4.4408920985006262e-15
10
-114.45175126595234
20
138.27415104681327
30
-4.4408920985006262e-15
10
-114.37939452039282
20
138.49962042523086
30
4.4408920985006262e-15
10
-114.16157089828718
20
139.09542176620945
30
4.4408920985006262e-15
10
-113.91691376794159
20
139.60494737633522
30
1.3322676295501878e-14
10
-113.76497982978294
20
140.0542981062062
30
-1.3322676295501878e-14
0
LINE
5
107
100
AcDbEntity
8
0
100
AcDbLine
10
-113.76497982978294
20
140.0542981062062
30
-1.3322676295501871e-14
11
-111.00285208762494
21
131.24233746534986
31
-1.27675647831893e-14
0
LINE
5
108
100
AcDbEntity
8
0
100
AcDbLine
10
-111.00285208762494
20
131.24233746534986
30
-1.27675647831893e-14
11
-107.36503901795716
21
140.02677347855837
31
4.4408920985006262e-15
0
LINE
5
109
100
AcDbEntity
8
0
100
AcDbLine
10
-107.36503901795716
20
140.02677347855837
30
4.4408920985006262e-15
11
-111.33747739770044
21
146.44391718266405
31
-4.4408920985006262e-15
0
SPLINE
5
110
100
AcDbEntity
8
0
100
AcDbSpline
70
0
71
3
72
29
73
25
74
0
42
0.000000001
43
0.0000000001
44
0.0000000001
40
0
40
0
40
0
40
0
40
0.6875
40
0.75
40
0.875
40
0.90625
40
0.9375
40
0.953125
40
0.96875
40
0.984375
40
0.9921875
40
0.99609375
40
1
40
1.00390625
40
1.0078125
40
1.015625
40
1.03125
40
1.046875
40
1.0625
40
1.09375
40
1.125
40
1.3125
40
1.625
40
2
40
2
40
2
40
2
10
-111.33747739770044
20
146.44391718266405
30
4.4408920985006262e-15
10
-109.87516085741927
20
145.42928544738157
30
4.4408920985006262e-15
10
-107.81497933070291
20
144.73733495446487
30
-4.4408920985006262e-15
10
-106.04014296894709
20
143.3689746261802
30
-4.4408920985006262e-15
10
-105.64266462252078
20
142.98563233094853
30
-4.4408920985006262e-15
10
-105.34488896485462
20
142.61873181136826
30
-4.4408920985006262e-15
10
-105.22839215685136
20
142.45912047199755
30
-4.4408920985006262e-15
10
-105.13996155512382
20
142.32711913377344
30
4.4408920985006262e-15
10
-105.07615228639733
20
142.22603394684538
30
1.3322676295501878e-14
10
-105.02489221546787
20
142.13958162078893
30
1.3322676295501878e-14
10
-104.99049959006308
20
142.07872925741302
30
4.4408920985006262e-15
10
-104.9706096381211
20
142.04261675057234
30
4.4408920985006262e-15
10
-104.95744329479444
20
142.01833951042732
30
4.4408920985006262e-15
10
-104.9383757869964
20
141.98262468903434
30
1.3322676295501878e-14
10
-104.91536037818395
20
141.93888384441752
30
4.4408920985006262e-15
10
-104.87481255796868
20
141.86026072880293
30
-4.4408920985006262e-15
10
-104.81944496198764
20
141.74826287494753
30
1.3322676295501878e-14
10
-104.75596531278936
20
141.61244417571857
30
4.4408920985006262e-15
10
-104.67554390722441
20
141.43018644594866
30
-1.3322676295501878e-14
10
-104.58255832273197
20
141.1999194386982
30
4.4408920985006262e-15
10
-104.31565308808779
20
140.45342862567554
30
4.4408920985006262e-15
10
-103.96376612783251
20
138.79894815796715
30
-1.3322676295501878e-14
10
-103.91419114521497
20
135.90620032996017
30
4.4408920985006262e-15
10
-103.94259555173019
20
133.61199517214123
30
-4.4408920985006262e-15
10
-103.79775780663698
20
132.41136116146339
30
4.4408920985006262e-15
0
SPLINE
5
111
100
AcDbEntity
8
0
100
AcDbSpline
70
0
71
3
72
24
73
20
74
0
42
0.000000001
43
0.0000000001
44
0.0000000001
40
0
40
0
40
0
40
0
40
0.25
40
0.5
40
0.625
40
0.75
40
0.8125
40
0.875
40
0.9375
40
0.96875
40
1
40
1.03125
40
1.0625
40
1.125
40
1.25
40
1.375
40
1.5
40
1.75
40
2
40
2
40
2
40
2
10
-103.79775780663698
20
132.41136116146339
30
4.4408920985006262e-15
10
-103.66327884690529
20
132.67745193221347
30
2.2204460492503131e-14
10
-103.37215665293758
20
133.20058758252486
30
4.4408920985006262e-15
10
-102.99440418955004
20
133.84884416208087
30
-1.3322676295501878e-14
10
-102.70881952344367
20
134.3742524467977
30
-4.4408920985006262e-15
10
-102.54246236612558
20
134.7075412284612
30
-4.4408920985006262e-15
10
-102.41973737523136
20
134.9785032033538
30
1.3322676295501878e-14
10
-102.33374554882229
20
135.18391710510102
30
4.4408920985006262e-15
10
-102.26746478084826
20
135.3581757058906
30
1.3322676295501878e-14
10
-102.21876345109328
20
135.49736355921527
30
4.4408920985006262e-15
10
-102.18269542637474
20
135.60736223333924
30
4.4408920985006262e-15
10
-102.15451658254763
20
135.69988997021352
30
4.4408920985006262e-15
10
-102.11774465004446
20
135.83014082158073
30
4.4408920985006262e-15
10
-102.06127507332715
20
136.05670177818445
30
4.4408920985006262e-15
10
-101.99793744557701
20
136.38583137402267
30
1.3322676295501878e-14
10
-101.94406831116413
20
136.78498968326639
30
2.2204460492503131e-14
10
-101.89263733315062
20
137.32196109734156
30
4.4408920985006262e-15
10
-101.85030246234828
20
137.99795240760812
30
-1.3322676295501878e-14
10
-101.80473155984052
20
138.53617968409213
30
4.4408920985006262e-15
10
-101.77025167529364
20
138.80270052714923
30
4.4408920985006262e-15
0
SPLINE
5
112
100
AcDbEntity
8
0
100
AcDbSpline
70
0
71
3
72
30
73
26
74
0
42
0.000000001
43
0.0000000001
44
0.0000000001
40
0
40
0
40
0
40
0
40
0.6875
40
0.75
40
0.8125
40
0.875
40
0.90625
40
0.9375
40
0.953125
40
0.96875
40
0.984375
40
0.9921875
40
0.99609375
40
1
40
1.00390625
40
1.0078125
40
1.015625
40
1.03125
40
1.046875
40
1.0625
40
1.09375
40
1.125
40
1.1875
40
1.625
40
2
40
2
40
2
40
2
10
-101.77025167529364
20
138.80270052714923
30
4.4408920985006262e-15
10
-101.4098961267854
20
137.33447049264683
30
4.4408920985006262e-15
10
-101.16308603273593
20
135.68615185309997
30
-1.3322676295501878e-14
10
-100.71199541861409
20
133.95900354197346
30
-4.4408920985006262e-15
10
-100.59958535846881
20
133.56308074875361
30
4.4408920985006262e-15
10
-100.49794223338534
20
133.23567902137344
30
4.4408920985006262e-15
10
-100.41122818996411
20
132.97548868687983
30
1.3322676295501878e-14
10
-100.35464210689335
20
132.81360678909488
30
4.4408920985006262e-15
10
-100.30788612248199
20
132.68463086049883
30
-4.4408920985006262e-15
10
-100.27199272245907
20
132.58800949474801
30
1.3322676295501878e-14
10
-100.24159175750803
20
132.50813357879736
30
1.3322676295501878e-14
10
-100.21962139889982
20
132.45148674228079
30
-1.3322676295501878e-14
10
-100.20748654722892
20
132.42047213072223
30
-1.3322676295501878e-14
10
-100.19686234380428
20
132.3935027144579
30
-4.4408920985006262e-15
10
-100.19181067746381
20
132.38078836191517
30
-1.3322676295501878e-14
10
-100.18305012515385
20
132.35890585241259
30
-4.4408920985006262e-15
10
-100.16846485877352
20
132.32301141419424
30
4.4408920985006262e-15
10
-100.14667736483472
20
132.27077123272818
30
-1.3322676295501878e-14
10
-100.11999691277239
20
132.20898567645665
30
1.3322676295501878e-14
10
-100.08338931739988
20
132.1269250835303
30
-4.4408920985006262e-15
10
-100.03589552426996
20
132.0253267530091
30
-4.4408920985006262e-15
10
-99.956333865765856
20
131.86458691824893
30
4.4408920985006262e-15
10
-99.596768173179271
20
131.19264600138996
30
4.4408920985006262e-15
10
-98.837889735532386
20
130.17263356606605
30
1.3322676295501878e-14
10
-98.11135779877506
20
129.23687617164407
30
-4.4408920985006262e-15
10
-97.813295898602235
20
128.78559011639157
30
1.3322676295501878e-14
0
SPLINE
5
113
100
AcDbEntity
8
0
100
AcDbSpline
70
0
71
3
72
39
73
35
74
0
42
0.000000001
43
0.0000000001
44
0.0000000001
40
0
40
0
40
0
40
0
40
0.75
40
0.796875
40
0.890625
40
0.9140625
40
0.9375
40
0.9609375
40
0.97265625
40
0.984375
40
0.990234375
40
0.99609375
40
0.9990234375
40
0.999755859375
40
1.00048828125
40
1.001953125
40
1.0048828125
40
1.0078125
40
1.013671875
40
1.01953125
40
1.03125
40
1.04296875
40
1.0546875
40
1.40625
40
1.5
40
1.59375
40
1.6875
40
1.875
40
1.96875
40
2.0625
40
2.25
40
2.4375
40
2.625
40
3
40
3
40
3
40
3
10
-97.813295898602235
20
128.78559011639157
30
1.3322676295501878e-14
10
-97.703835232663494
20
130.98513969814971
30
1.3322676295501878e-14
10
-97.682437729400405
20
133.32946928461234
30
-1.3322676295501878e-14
10
-97.517649133348371
20
135.93875373404268
30
1.3322676295501878e-14
10
-97.482198926040567
20
136.4190165088061
30
1.3322676295501878e-14
10
-97.447437211618848
20
136.83034084234052
30
-4.4408920985006262e-15
10
-97.42914587734704
20
137.0359200292358
30
-1.3322676295501878e-14
10
-97.413108352589887
20
137.20721577649596
30
-4.4408920985006262e-15
10
-97.399795134901296
20
137.34412332065475
30
4.4408920985006262e-15
10
-97.391243600393153
20
137.42988191097442
30
-4.4408920985006262e-15
10
-97.384324172295123
20
137.49800377743873
30
-4.4408920985006262e-15
10
-97.379832695133061
20
137.54165998700785
30
4.4408920985006262e-15
10
-97.377097318369238
20
137.5680168574863
30
-1.3322676295501878e-14
10
-97.375608051906198
20
137.58230592648505
30
4.4408920985006262e-15
10
-97.375161814827749
20
137.58657973396933
30
4.4408920985006262e-15
10
-97.374639097569613
20
137.59151764430862
30
1.3322676295501878e-14
10
-97.373735619625478
20
137.59989428316987
30
1.3322676295501878e-14
10
-97.372327790463927
20
137.61255010533219
30
-4.4408920985006262e-15
10
-97.37046807526562
20
137.62861208305134
30
-4.4408920985006262e-15
10
-97.367352551154497
20
137.65414546539063
30
-1.3322676295501878e-14
10
-97.363166753892315
20
137.68606631076233
30
4.4408920985006262e-15
10
-97.357700120533721
20
137.72428108735829
30
-1.3322676295501878e-14
10
-97.294758532906343
20
138.13124208861612
30
1.3322676295501878e-14
10
-97.133159469364102
20
138.61393595584474
30
1.3322676295501878e-14
10
-96.927077527025091
20
139.17980502254258
30
2.2204460492503131e-14
10
-96.822442486295984
20
139.47519520516818
30
4.4408920985006262e-15
10
-96.695142968153817
20
139.87049425947768
30
-4.4408920985006262e-15
10
-96.598800164153374
20
140.2697261626565
30
-4.4408920985006262e-15
10
-96.55833929072061
20
140.67679957223771
30
1.3322676295501878e-14
10
-96.56416313335022
20
141.089613577987
30
1.3322676295501878e-14
10
-96.633878444587651
20
141.59576482604709
30
-4.4408920985006262e-15
10
-96.788450367639527
20
142.19577601000782
30
4.4408920985006262e-15
10
-97.045937526773997
20
142.98932016394249
30
4.4408920985006262e-15
10
-97.249649821242741
20
143.58330288220367
30
-1.3322676295501878e-14
10
-97.347928607199549
20
143.98372925524976
30
4.4408920985006262e-15
0
SPLINE
5
114
100
AcDbEntity
8
0
100
AcDbSpline
70
0
71
3
72
53
73
49
74
0
42
0.000000001
43
0.0000000001
44
0.0000000001
40
0
40
0
40
0
40
0
40
0.75
40
0.84375
40
0.890625
40
0.9140625
40
0.9375
40
0.9609375
40
0.97265625
40
0.984375
40
0.990234375
40
0.99609375
40
0.9990234375
40
1.00048828125
40
1.001953125
40
1.0078125
40
1.01953125
40
1.03125
40
1.0546875
40
1.078125
40
1.125
40
1.171875
40
1.265625
40
1.3125
40
1.875
40
1.921875
40
1.9453125
40
1.95703125
40
1.96875
40
1.98046875
40
1.986328125
40
1.9921875
40
1.9951171875
40
1.998046875
40
1.99951171875
40
2.000244140625
40
2.0009765625
40
2.00390625
40
2.009765625
40
2.015625
40
2.02734375
40
2.0390625
40
2.0625
40
2.0859375
40
2.109375
40
2.34375
40
2.8125
40
3
40
3
40
3
40
3
10
-97.347928607199549
20
143.98372925524976
30
4.4408920985006262e-15
10
-96.652665876354419
20
142.88072892233578
30
-1.3322676295501878e-14
10
-95.481953838186783
20
141.79133142919488
30
4.4408920985006262e-15
10
-94.822943420431869
20
140.41656154355394
30
4.4408920985006262e-15
10
-94.723238009897855
20
140.15485907322449
30
2.2204460492503131e-14
10
-94.673029659502745
20
140.00267446628217
30
-4.4408920985006262e-15
10
-94.638900128291056
20
139.88716777020241
30
2.2204460492503131e-14
10
-94.613511758880179
20
139.78970064767421
30
1.3322676295501878e-14
10
-94.595114335661918
20
139.71102886127736
30
-4.4408920985006262e-15
10
-94.584405895961424
20
139.66144211620988
30
4.4408920985006262e-15
10
-94.576375924187317
20
139.62181286602996
30
-4.4408920985006262e-15
10
-94.571467418610467
20
139.59643252170875
30
4.4408920985006262e-15
10
-94.568336852302224
20
139.57968774916313
30
-4.4408920985006262e-15
10
-94.566273859566053
20
139.56844170440019
30
4.4408920985006262e-15
10
-94.561566658310539
20
139.54253737740618
30
1.3322676295501878e-14
10
-94.552557031464545
20
139.49167803504602
30
4.4408920985006262e-15
10
-94.538858490660829
20
139.4098306895097
30
-4.4408920985006262e-15
10
-94.519004922662631
20
139.28077355832625
30
4.4408920985006262e-15
10
-94.497181590142333
20
139.11860479022408
30
1.3322676295501878e-14
10
-94.468691898526899
20
138.85917375957476
30
4.4408920985006262e-15
10
-94.444424874817585
20
138.53413853802459
30
-4.4408920985006262e-15
10
-94.427509369442788
20
138.01294865039216
30
4.4408920985006262e-15
10
-94.439903206140002
20
137.4900828223717
30
4.4408920985006262e-15
10
-94.569806365801696
20
135.52434347169913
30
-1.3322676295501878e-14
10
-94.974851142755853
20
133.67177388690942
30
4.4408920985006262e-15
10
-95.01892682677898
20
131.89591287175824
30
-4.4408920985006262e-15
10
-95.018684656277628
20
131.66590201054248
30
-4.4408920985006262e-15
10
-95.016734091729433
20
131.53452517855132
30
4.4408920985006262e-15
10
-95.014337832932227
20
131.4360291169817
30
1.3322676295501878e-14
10
-95.011538934860454
20
131.35395900944377
30
4.4408920985006262e-15
10
-95.008807574607985
20
131.28835806570737
30
1.3322676295501878e-14
10
-95.006886608465905
20
131.24727738640215
30
4.4408920985006262e-15
10
-95.005234179409968
20
131.21461698586958
30
2.2204460492503131e-14
10
-95.004122095714365
20
131.19375023569131
30
1.3322676295501878e-14
10
-95.003367603653643
20
131.18005803107263
30
4.4408920985006262e-15
10
-95.002846814740593
20
131.17080485867913
30
4.4408920985006262e-15
10
-95.001633352830368
20
131.14921671587746
30
-4.4408920985006262e-15
10
-94.999281032931009
20
131.10714107878974
30
-1.3322676295501878e-14
10
-94.99556977154694
20
131.0400043695426
30
-4.4408920985006262e-15
10
-94.989892683357624
20
130.93565543558088
30
4.4408920985006262e-15
10
-94.983063196083592
20
130.80717602590198
30
-1.3322676295501878e-14
10
-94.972754086161828
20
130.60727045906262
30
-1.3322676295501878e-14
10
-94.960911128722358
20
130.36712259491867
30
4.4408920985006262e-15
10
-94.948142918534415
20
130.09424198542067
30
4.4408920985006262e-15
10
-94.901874034308378
20
129.06164634392132
30
4.4408920985006262e-15
10
-94.837064968441211
20
127.20343146659789
30
-4.4408920985006262e-15
10
-94.486553237052945
20
126.67222133746148
30
-4.4408920985006262e-15
10
-93.417428397809175
20
126.16310774974306
30
-4.4408920985006262e-15
10
-93.025382314067741
20
125.96497254440862
30
4.4408920985006262e-15
0
SPLINE
5
115
100
AcDbEntity
8
0
100
AcDbSpline
70
0
71
3
72
29
73
25
74
0
42
0.000000001
43
0.0000000001
44
0.0000000001
40
0
40
0
40
0
40
0
40
0.6875
40
0.75
40
0.875
40
0.90625
40
0.9375
40
0.953125
40
0.96875
40
0.984375
40
0.9921875
40
0.99609375
40
1
40
1.00390625
40
1.0078125
40
1.015625
40
1.03125
40
1.046875
40
1.0625
40
1.09375
40
1.125
40
1.3125
40
1.75
40
2
40
2
40
2
40
2
10
-93.025382314067741
20
125.96497254440862
30
4.4408920985006262e-15
10
-92.932139563356046
20
126.33124158713807
30
4.4408920985006262e-15
10
-92.73816293962453
20
126.72292739855774
30
4.4408920985006262e-15
10
-92.636613783662582
20
127.19054975778427
30
2.2204460492503131e-14
10
-92.620399484953651
20
127.30823490246736
30
-4.4408920985006262e-15
10
-92.61502051493521
20
127.40984724395283
30
-4.4408920985006262e-15
10
-92.614279531570887
20
127.45229716154472
30
4.4408920985006262e-15
10
-92.614639883691893
20
127.48637680914065
30
-4.4408920985006262e-15
10
-92.615389141001273
20
127.51187262398378
30
-4.4408920985006262e-15
10
-92.6164563981866
20
127.53349048031728
30
-1.3322676295501878e-14
10
-92.617375376012049
20
127.54798315921322
30
4.4408920985006262e-15
10
-92.618046549463202
20
127.55729912156106
30
1.3322676295501878e-14
10
-92.618353511355721
20
127.56139044867965
30
-4.4408920985006262e-15
10
-92.619568543613866
20
127.57656383254286
30
1.3322676295501878e-14
10
-92.620925640613024
20
127.59292079673196
30
4.4408920985006262e-15
10
-92.623554058800281
20
127.62332944606658
30
4.4408920985006262e-15
10
-92.627548302834001
20
127.66577777427038
30
4.4408920985006262e-15
10
-92.632863260085614
20
127.7170400342206
30
1.3322676295501878e-14
10
-92.640576021358271
20
127.78514619081294
30
4.4408920985006262e-15
10
-92.651385556192295
20
127.87013942665777
30
1.3322676295501878e-14
10
-92.690684455550013
20
128.14130451730338
30
4.4408920985006262e-15
10
-92.834783385405061
20
128.84656183256891
30
1.3322676295501878e-14
10
-93.128877241586451
20
129.77044241712917
30
-4.4408920985006262e-15
10
-93.339215953433111
20
130.49969752714188
30
-4.4408920985006262e-15
10
-93.404735144070969
20
130.76664844250593
30
4.4408920985006262e-15
0
LINE
5
116
100
AcDbEntity
8
0
100
AcDbLine
10
-93.404735144070969
20
130.76664844250593
30
4.4408920985006277e-15
11
-90.990995025812424
21
133.95629711305088
31
4.4408920985006262e-15
0
LINE
5
117
100
AcDbEntity
8
0
100
AcDbLine
10
-90.990995025812424
20
133.95629711305088
30
4.4408920985006262e-15
11
-89.392730112083939
21
133.54941965539982
31
-4.40619762898109e-15
0
LINE
5
118
100
AcDbEntity
8
0
100
AcDbLine
10
-89.392730112083939
20
133.54941965539982
30
-4.40619762898109e-15
11
-91.409914508059387
21
129.55805809414866
31
-4.4408920985006262e-15
0
LINE
5
119
100
AcDbEntity
8
0
100
AcDbLine
10
-91.409914508059387
20
129.55805809414866
30
-4.4408920985006262e-15
11
-88.284827949846019
21
123.63733625289761
31
-1.27675647831893e-14
0
SPLINE
5
120
100
AcDbEntity
8
0
100
AcDbSpline
70
0
71
3
72
8
73
4
74
0
42
0.000000001
43
0.0000000001
44
0.0000000001
40
0
40
0
40
0
40
0
40
1
40
1
40
1
40
1
10
-88.284827949846019
20
123.63733625289761
30
-4.4408920985006262e-15
10
-85.9981138081789
20
127.55926578726948
30
1.3322676295501878e-14
10
-85.803529546921567
20
125.88398031615856
30
1.3322676295501878e-14
10
-86.585480299344155
20
128.40306993856802
30
-4.4408920985006262e-15
0
LINE
5
121
100
AcDbEntity
8
0
100
AcDbLine
10
-86.585480299344155
20
128.40306993856802
30
-4.440892098500627e-15
11
-84.235785433175266
21
123.52714837695821
31
-4.4408920985006262e-15
0
LINE
5
122
100
AcDbEntity
8
0
100
AcDbLine
10
-84.235785433175266
20
123.52714837695821
30
-4.4408920985006262e-15
11
-88.659828790497329
21
117.94612334811856
31
3.8857805861880479e-15
0
LINE
5
123
100
AcDbEntity
8
0
100
AcDbLine
10
-88.659828790497329
20
117.94612334811856
30
3.8857805861880479e-15
11
-88.2615527789862
21
117.54440675815147
31
-4.40619762898109e-15
0
LINE
5
124
100
AcDbEntity
8
0
100
AcDbLine
10
-88.2615527789862
20
117.54440675815147
30
-4.40619762898109e-15
11
-83.852992024716059
21
119.52546508033913
31
-4.3021142204224816e-15
0
LINE
5
125
100
AcDbEntity
8
0
100
AcDbLine
10
-83.852992024716059
20
119.52546508033913
30
-4.3021142204224816e-15
11
-88.730360648844851
21
101.54627501781508
31
1.3322676295501878e-14
0
LINE
5
126
100
AcDbEntity
8
0
100
AcDbLine
10
-88.730360648844851
20
101.54627501781508
30
1.3322676295501878e-14
11
-87.940689782734566
21
99.142856634924428
31
8.7430063189231078e-15
0
LINE
5
127
100
AcDbEntity
8
0
100
AcDbLine
10
-87.940689782734566
20
99.142856634924428
30
8.7430063189231078e-15
11
-94.371595800664139
21
91.970447849268282
31
1.7208456881689926e-14
0
LINE
5
128
100
AcDbEntity
8
0
100
AcDbLine
10
-94.371595800664139
20
91.970447849268282
30
1.7208456881689926e-14
11
-98.362957361915292
21
93.987632245243731
31
8.8817841970012523e-15
0
LINE
5
129
100
AcDbEntity
8
0
100
AcDbLine
10
-98.362957361915292
20
93.987632245243731
30
8.8817841970012523e-15
11
-99.179542406670166
21
88.442001955460242
31
-5.5511151231257827e-16
0
LINE
5
130
100
AcDbEntity
8
0
100
AcDbLine
10
-99.179542406670166
20
88.442001955460242
30
-5.5511151231257827e-16
11
-96.385339618183608
21
88.779078889495338
31
8.9164786665207885e-15
0
SPLINE
5
131
100
AcDbEntity
8
0
100
AcDbSpline
70
0
71
3
72
70
73
66
74
0
42
0.000000001
43
0.0000000001
44
0.0000000001
40
0
40
0
40
0
40
0
40
0.25
40
0.5
40
0.625
40
0.75
40
0.875
40
0.9375
40
0.96875
40
1
40
1.03125
40
1.0625
40
1.125
40
1.25
40
1.375
40
1.5
40
1.6875
40
1.90625
40
1.9375
40
1.953125
40
1.96875
40
1.9765625
40
1.984375
40
1.98828125
40
1.9921875
40
1.99609375
40
1.998046875
40
1.9990234375
40
2
40
2.0009765625
40
2.001953125
40
2.00390625
40
2.0078125
40
2.01171875
40
2.015625
40
2.0234375
40
2.03125
40
2.09375
40
2.1875
40
2.625
40
2.90625
40
2.9375
40
2.953125
40
2.96875
40
2.9765625
40
2.984375
40
2.98828125
40
2.9921875
40
2.99609375
40
2.998046875
40
2.9990234375
40
3
40
3.0009765625
40
3.001953125
40
3.00390625
40
3.0078125
40
3.01171875
40
3.015625
40
3.0234375
40
3.03125
40
3.078125
40
3.15625
40
3.375
40
3.75
40
4
40
4
40
4
40
4
10
-96.385339618183608
20
88.779078889495338
30
1.7763568394002505e-14
10
-96.854008973145213
20
88.314423542732385
30
1.3322676295501878e-14
10
-97.731684431234299
20
87.302642039443555
30
4.4408920985006262e-15
10
-98.791512218558083
20
85.986360221555373
30
4.4408920985006262e-15
10
-99.68407589307516
20
84.995209239917614
30
8.8817841970012523e-15
10
-100.39276649366769
20
84.305914593353464
30
0
10
-101.02958020663877
20
83.796106301484272
30
4.4408920985006262e-15
10
-101.50788735003343
20
83.482877452707072
30
0
10
-101.79020782399851
20
83.318430824524484
30
-4.4408920985006262e-15
10
-102.01047718325363
20
83.200979636905018
30
-8.8817841970012523e-15
10
-102.22411470932482
20
83.096938997893375
30
4.4408920985006262e-15
10
-102.51583224714292
20
82.966638427385277
30
0
10
-103.03374811878675
20
82.765349507580936
30
0
10
-103.79746863160675
20
82.544672476494739
30
8.8817841970012523e-15
10
-104.74239759828201
20
82.366778027806404
30
1.3322676295501878e-14
10
-105.86914036019766
20
82.235832818634975
30
0
10
-107.2597809427632
20
82.156002182752957
30
4.4408920985006262e-15
10
-108.40621320559862
20
82.115232480855667
30
1.3322676295501878e-14
10
-109.09271931296638
20
82.073767373322141
30
0
10
-109.25376535585056
20
82.063109422109974
30
4.4408920985006262e-15
10
-109.35420747893258
20
82.056038116181881
30
4.4408920985006262e-15
10
-109.43441773151947
20
82.050115210362321
30
8.8817841970012523e-15
10
-109.48450597885183
20
82.046296832914791
30
4.4408920985006262e-15
10
-109.52450511871383
20
82.043173320063957
30
0
10
-109.55458287916322
20
82.040786168462745
30
0
10
-109.5793245386689
20
82.038791391218552
30
-4.4408920985006262e-15
10
-109.59723927795395
20
82.037328520617905
30
8.8817841970012523e-15
10
-109.60653111529422
20
82.036565890009356
30
8.8817841970012523e-15
10
-109.61615466295035
20
82.035771630219784
30
1.3322676295501878e-14
10
-109.61562498960454
20
82.035815517836141
30
-8.8817841970012523e-15
10
-109.61846093117001
20
82.035583274494172
30
8.8817841970012523e-15
10
-109.62177496713757
20
82.035316228124486
30
-8.8817841970012523e-15
10
-109.62737563067728
20
82.034873090155273
30
8.8817841970012523e-15
10
-109.63373286072385
20
82.034386972890502
30
8.8817841970012523e-15
10
-109.64234563292067
20
82.033748471526053
30
8.8817841970012523e-15
10
-109.65308126371524
20
82.032992070011247
30
8.8817841970012523e-15
10
-109.69615697255611
20
82.030164925417765
30
0
10
-109.78722986891954
20
82.026158887447622
30
0
10
-110.12077632030469
20
82.027422785637071
30
1.7763568394002505e-14
10
-110.58561270395177
20
82.104362884611646
30
4.4408920985006262e-15
10
-110.96917148911764
20
82.280073792536569
30
-4.4408920985006262e-15
10
-111.12145820028717
20
82.378177965366589
30
0
10
-111.15000099795944
20
82.397475956415263
30
4.4408920985006262e-15
10
-111.16763915101608
20
82.409790479726297
30
8.8817841970012523e-15
10
-111.18163408935261
20
82.419800486774179
30
4.4408920985006262e-15
10
-111.19031564199261
20
82.426110314894345
30
8.8817841970012523e-15
10
-111.19726182358832
20
82.431220999463122
30
4.4408920985006262e-15
10
-111.20236805788369
20
82.435006894395258
30
0
10
-111.20688932684453
20
82.438389185879288
30
8.8817841970012523e-15
10
-111.2094994163278
20
82.440350610088586
30
0
10
-111.21184438541776
20
82.442121263143918
30
0
10
-111.21119224404909
20
82.441626664335033
30
0
10
-111.21975087745682
20
82.448104754147096
30
0
10
-111.22794696869317
20
82.45431323307514
30
4.4408920985006262e-15
10
-111.24378189554827
20
82.466317548611329
30
-4.4408920985006262e-15
10
-111.26560510992456
20
82.482893091900877
30
0
10
-111.29210354688851
20
82.503067164975761
30
-4.4408920985006262e-15
10
-111.32728536141838
20
82.529917019882149
30
0
10
-111.37124228400569
20
82.563583535934924
30
4.4408920985006262e-15
10
-111.51160497593685
20
82.671593929467718
30
-4.4408920985006262e-15
10
-111.8080348686096
20
82.903427083184596
30
4.4408920985006262e-15
10
-112.56497040506501
20
83.515972127447299
30
-4.4408920985006262e-15
10
-114.00319484748201
20
84.763722541714372
30
8.8817841970012523e-15
10
-115.75007436002716
20
86.40309217222098
30
4.4408920985006262e-15
10
-117.05726273892624
20
87.601305547267586
30
1.3322676295501878e-14
10
-117.58858413581238
20
88.070261617100542
30
4.4408920985006262e-15
0
LINE
5
132
100
AcDbEntity
8
0
100
AcDbLine
10
-117.58858413581238
20
88.070261617100556
30
4.4408920985006293e-15
11
-114.52353413928142
21
89.279707892578472
31
4.3715031594615539e-15
0
LINE
5
133
100
AcDbEntity
8
0
100
AcDbLine
10
-114.52353413928142
20
89.279707892578472
30
4.3715031594615539e-15
11
-116.3645111844032
21
93.665048959764121
31
-4.7184478546569153e-15
0
LINE
5
134
100
AcDbEntity
8
0
100
AcDbLine
10
-116.3645111844032
20
93.665048959764121
30
-4.7184478546569153e-15
11
-124.36443734794415
21
93.699454744963703
31
-4.4408920985006262e-15
0
SPLINE
5
135
100
AcDbEntity
8
0
100
AcDbSpline
70
0
71
3
72
31
73
27
74
0
42
0.000000001
43
0.0000000001
44
0.0000000001
40
0
40
0
40
0
40
0
40
0.875
40
0.921875
40
0.953125
40
0.96875
40
0.9765625
40
0.984375
40
0.98828125
40
0.9921875
40
0.99609375
40
0.998046875
40
0.9990234375
40
1
40
1.0009765625
40
1.001953125
40
1.00390625
40
1.0078125
40
1.01171875
40
1.015625
40
1.0234375
40
1.03125
40
1.09375
40
1.1875
40
1.625
40
2
40
2
40
2
40
2
10
-124.36443734794416
20
93.699454744963745
30
8.8817841970012523e-15
10
-125.40439261688772
20
96.037282258498664
30
4.4408920985006262e-15
10
-126.85534407385298
20
98.375222908319145
30
1.7763568394002505e-14
10
-127.72659537488514
20
101.01390277070799
30
-8.8817841970012523e-15
10
-127.80659603788965
20
101.27544964957892
30
4.4408920985006262e-15
10
-127.85116480465007
20
101.42876219895813
30
8.8817841970012523e-15
10
-127.8760159288037
20
101.51657915942761
30
1.3322676295501878e-14
10
-127.89129259300309
20
101.57157156410346
30
-4.4408920985006262e-15
10
-127.90334704145289
20
101.61558557021984
30
8.8817841970012523e-15
10
-127.9123342907654
20
101.64872088664114
30
0
10
-127.91967566793032
20
101.67604876473203
30
-4.4408920985006262e-15
10
-127.92493964858073
20
101.69579561962888
30
1.3322676295501878e-14
10
-127.9276876129093
20
101.70613844044405
30
-4.4408920985006262e-15
10
-127.93044773112402
20
101.71655838434474
30
8.8817841970012523e-15
10
-127.93051108281283
20
101.71680819896389
30
0
10
-127.93152687243932
20
101.72068842539225
30
4.4408920985006262e-15
10
-127.93284773326252
20
101.72582537333925
30
4.4408920985006262e-15
10
-127.93490806543784
20
101.73402610782833
30
0
10
-127.93719467422883
20
101.74349416514978
30
-8.8817841970012523e-15
10
-127.94016114558107
20
101.75624350077595
30
0
10
-127.94364034685158
20
101.77212861993846
30
-8.8817841970012523e-15
10
-127.95642909864176
20
101.83569234521457
30
1.7763568394002505e-14
10
-127.97259152859594
20
101.96877602035457
30
-4.4408920985006262e-15
10
-127.95363445463985
20
102.44787009615536
30
8.8817841970012523e-15
10
-127.58845862408268
20
103.16775487200708
30
8.8817841970012523e-15
10
-127.22097322529599
20
103.81183343552918
30
4.4408920985006262e-15
10
-127.11968393319023
20
104.11140058877649
30
4.4408920985006262e-15
0
SPLINE
5
136
100
AcDbEntity
8
0
100
AcDbSpline
70
0
71
3
72
54
73
50
74
0
42
0.000000001
43
0.0000000001
44
0.0000000001
40
0
40
0
40
0
40
0
40
0.75
40
0.796875
40
0.890625
40
0.9140625
40
0.9375
40
0.9609375
40
0.97265625
40
0.984375
40
0.990234375
40
0.99609375
40
0.9990234375
40
0.999755859375
40
1.00048828125
40
1.001953125
40
1.0048828125
40
1.0078125
40
1.013671875
40
1.01953125
40
1.03125
40
1.04296875
40
1.0546875
40
1.3125
40
1.78125
40
1.8984375
40
1.921875
40
1.9453125
40
1.95703125
40
1.96875
40
1.98046875
40
1.986328125
40
1.9921875
40
1.9951171875
40
1.998046875
40
1.99951171875
40
2.000244140625
40
2.0009765625
40
2.00244140625
40
2.00390625
40
2.0068359375
40
2.009765625
40
2.015625
40
2.021484375
40
2.02734375
40
2.0390625
40
2.203125
40
2.4375
40
3
40
3
40
3
40
3
10
-127.11968393319023
20
104.11140058877649
30
4.4408920985006262e-15
10
-128.11580403427502
20
105.01569298850946
30
0
10
-129.49264165331562
20
105.73615533853074
30
-8.8817841970012523e-15
10
-130.55874636205934
20
106.89814556166731
30
4.4408920985006262e-15
10
-130.7380396551797
20
107.12510129415897
30
1.3322676295501878e-14
10
-130.87703524011718
20
107.33070756855355
30
-4.4408920985006262e-15
10
-130.94347945428186
20
107.43583216977339
30
-4.4408920985006262e-15
10
-130.99617768436821
20
107.52539889734902
30
4.4408920985006262e-15
10
-131.03672631439375
20
107.5983877205614
30
-4.4408920985006262e-15
10
-131.06126873683951
20
107.64433575157533
30
-4.4408920985006262e-15
10
-131.0807000202918
20
107.68187490062178
30
-4.4408920985006262e-15
10
-131.09214840506201
20
107.70442989226247
30
1.3322676295501878e-14
10
-131.1004612873239
20
107.72109858775909
30
-4.4408920985006262e-15
10
-131.10326981064205
20
107.72676066458925
30
4.4408920985006262e-15
10
-131.10763682210734
20
107.73559158363329
30
-1.3322676295501878e-14
10
-131.1164723515754
20
107.75349491572335
30
-4.4408920985006262e-15
10
-131.12842079300424
20
107.77781279339339
30
4.4408920985006262e-15
10
-131.1477988385742
20
107.81746896866451
30
4.4408920985006262e-15
10
-131.17172943186179
20
107.86686078840958
30
4.4408920985006262e-15
10
-131.20972387740383
20
107.9461625312132
30
-4.4408920985006262e-15
10
-131.25652182389214
20
108.0455001007884
30
-4.4408920985006262e-15
10
-131.31163537193987
20
108.16512866343669
30
2.2204460492503131e-14
10
-131.7442621037963
20
109.12527885610672
30
4.4408920985006262e-15
10
-132.63568586305607
20
111.73927610120776
30
1.3322676295501878e-14
10
-133.25019584110228
20
114.8838217023274
30
1.3322676295501878e-14
10
-133.82729073706861
20
117.10757592416061
30
4.4408920985006262e-15
10
-133.9972302184519
20
117.70097772677386
30
1.3322676295501878e-14
10
-134.05979950751342
20
117.9122240714095
30
-4.4408920985006262e-15
10
-134.11106461372515
20
118.08077516273374
30
2.2204460492503131e-14
10
-134.15014308889488
20
118.20696824538024
30
-4.4408920985006262e-15
10
-134.18323892054661
20
118.3119024093221
30
4.4408920985006262e-15
10
-134.2100715068627
20
118.39579198926063
30
4.4408920985006262e-15
10
-134.22693495999323
20
118.44802318254335
30
4.4408920985006262e-15
10
-134.24062321338079
20
118.49011505942612
30
4.4408920985006262e-15
10
-134.24896093051166
20
118.51563662097284
30
-4.4408920985006262e-15
10
-134.2553249115812
20
118.53504298738795
30
4.4408920985006262e-15
10
-134.25817151787581
20
118.54370784220698
30
-4.4408920985006262e-15
10
-134.25802104515105
20
118.54324686464923
30
4.4408920985006262e-15
10
-134.25886133214092
20
118.54579425429461
30
4.4408920985006262e-15
10
-134.2596360472628
20
118.54812205769022
30
4.4408920985006262e-15
10
-134.26080821988026
20
118.55162612865055
30
1.3322676295501878e-14
10
-134.26258952815363
20
118.55689093639499
30
4.4408920985006262e-15
10
-134.26488297735534
20
118.56357248988115
30
4.4408920985006262e-15
10
-134.26766521700262
20
118.57151892688537
30
1.3322676295501878e-14
10
-134.27144156648623
20
118.58210174605065
30
4.4408920985006262e-15
10
-134.30140020508586
20
118.66374293493571
30
-4.4408920985006262e-15
10
-134.38465553596481
20
118.84058548757567
30
1.3322676295501878e-14
10
-134.6408628470337
20
119.22526343270934
30
4.4408920985006262e-15
10
-134.90348771799444
20
119.5200190745353
30
4.4408920985006262e-15
10
-135.05251866808089
20
119.74566210216153
30
4.4408920985006262e-15
0
SPLINE
5
137
100
AcDbEntity
8
0
100
AcDbSpline
70
0
71
3
72
25
73
21
74
0
42
0.000000001
43
0.0000000001
44
0.0000000001
40
0
40
0
40
0
40
0
40
0.5
40
0.625
40
0.75
40
0.8125
40
0.875
40
0.9375
40
0.96875
40
0.984375
40
1
40
1.015625
40
1.03125
40
1.0625
40
1.125
40
1.1875
40
1.25
40
1.375
40
1.5
40
2
40
2
40
2
40
2
10
-135.05251866808089
20
119.74566210216153
30
4.4408920985006262e-15
10
-134.18758030570746
20
119.34193850809513
30
4.4408920985006262e-15
10
-132.99713516325124
20
118.99710454246021
30
4.4408920985006262e-15
10
-131.65056171072311
20
118.46344467255534
30
-4.4408920985006262e-15
10
-131.11338105213133
20
118.20611449395017
30
-4.4408920985006262e-15
10
-130.70414972192086
20
117.97030756751866
30
4.4408920985006262e-15
10
-130.40893773850235
20
117.77615541212313
30
4.4408920985006262e-15
10
-130.17424512030226
20
117.59833983818311
30
4.4408920985006262e-15
10
-130.01602762631441
20
117.46395178548096
30
2.2204460492503131e-14
10
-129.92824365574717
20
117.3849457414874
30
4.4408920985006262e-15
10
-129.86150946488084
20
117.32241565956988
30
4.4408920985006262e-15
10
-129.80304944777151
20
117.26531484681135
30
4.4408920985006262e-15
10
-129.72463594774902
20
117.1855088145831
30
-4.4408920985006262e-15
10
-129.59340753005853
20
117.04331319832548
30
-4.4408920985006262e-15
10
-129.41864055070198
20
116.82986452145498
30
-4.4408920985006262e-15
10
-129.22821872903691
20
116.55996320723307
30
4.4408920985006262e-15
10
-128.99670680924856
20
116.18349988974138
30
4.4408920985006262e-15
10
-128.74398293396038
20
115.68602688995082
30
-4.4408920985006262e-15
10
-128.2194863553064
20
114.43176233865982
30
4.4408920985006262e-15
10
-127.88010988242468
20
113.31475608423202
30
4.4408920985006262e-15
10
-127.48355416014152
20
112.51304319352582
30
-4.4408920985006262e-15
0
SPLINE
5
138
100
AcDbEntity
8
0
100
AcDbSpline
70
0
71
3
72
8
73
4
74
0
42
0.000000001
43
0.0000000001
44
0.0000000001
40
0
40
0
40
0
40
0
40
1
40
1
40
1
40
1
10
-127.48355416014152
20
112.51304319352582
30
-4.4408920985006262e-15
10
-130.66337345283674
20
124.81101669083678
30
-4.4408920985006262e-15
10
-133.59367353756133
20
125.01180356100276
30
4.4408920985006262e-15
10
-129.39408062398155
20
133.32145227809946
30
4.4408920985006262e-15
0
LINE
5
139
100
AcDbEntity
8
0
100
AcDbLine
10
-129.39408062398155
20
133.32145227809946
30
4.4408920985006254e-15
11
-126.24399857123521
21
121.70779716767719
31
5.5511151231257827e-15
0
LINE
5
140
100
AcDbEntity
8
0
100
AcDbLine
10
-126.24399857123521
20
121.70779716767719
30
5.5511151231257827e-15
11
-124.93646152000676
21
119.70215526837936
31
4.4408920985006262e-15
0
SPLINE
5
141
100
AcDbEntity
8
0
100
AcDbSpline
70
0
71
3
72
29
73
25
74
0
42
0.000000001
43
0.0000000001
44
0.0000000001
40
0
40
0
40
0
40
0
40
0.6875
40
0.75
40
0.875
40
0.90625
40
0.9375
40
0.953125
40
0.96875
40
0.984375
40
0.9921875
40
0.99609375
40
1
40
1.00390625
40
1.0078125
40
1.015625
40
1.03125
40
1.046875
40
1.0625
40
1.09375
40
1.125
40
1.3125
40
1.625
40
2
40
2
40
2
40
2
10
-124.24229666397294
20
122.09919197828629
30
1.3322676295501878e-14
10
-124.50822676292523
20
124.20868851227627
30
1.3322676295501878e-14
10
-125.29839234947892
20
126.52602749498226
30
-4.4408920985006262e-15
10
-125.54403485354008
20
129.20785760235557
30
4.4408920985006262e-15
10
-125.5557244348183
20
129.87671291849773
30
4.4408920985006262e-15
10
-125.5195713178336
20
130.44854646479615
30
1.3322676295501878e-14
10
-125.49637201448772
20
130.68653068795064
30
1.3322676295501878e-14
10
-125.47265479806916
20
130.87679428979871
30
4.4408920985006262e-15
10
-125.45224733118363
20
131.01929291022429
30
4.4408920985006262e-15
10
-125.43291465173149
20
131.13833252494786
30
4.4408920985006262e-15
10
-125.41830471405113
20
131.22090831424146
30
4.4408920985006262e-15
10
-125.40939150177212
20
131.26919638564434
30
1.3322676295501878e-14
10
-125.40313200068191
20
131.30227090588937
30
4.4408920985006262e-15
10
-125.3943939791791
20
131.34732656861686
30
4.4408920985006262e-15
10
-125.38332659400561
20
131.40312820437623
30
2.2204460492503131e-14
10
-125.36300218292352
20
131.50254427699895
30
-4.4408920985006262e-15
10
-125.33252336703049
20
131.64299960361106
30
4.4408920985006262e-15
10
-125.29330332434773
20
131.81113283613794
30
-4.4408920985006262e-15
10
-125.23770802184566
20
132.03405091658769
30
-1.3322676295501878e-14
10
-125.16211519223179
20
132.31072819012502
30
-4.4408920985006262e-15
10
-124.89559482517001
20
133.18785322524403
30
-4.4408920985006262e-15
10
-124.15600580153048
20
134.99423707668794
30
4.4408920985006262e-15
10
-122.51146427154811
20
137.82776995320265
30
1.3322676295501878e-14
10
-121.16512642932355
20
140.03612380474391
30
-4.4408920985006262e-15
10
-120.55975607437739
20
141.28353181071165
30
-4.4408920985006262e-15
0
LINE
5
142
100
AcDbEntity
8
0
100
AcDbLine
10
-124.24229666397294
20
122.09919197828629
30
1.3322676295501878e-14
11
-124.93646151998141
21
119.70215514986498
31
1.3322676295501878e-14
0
LINE
5
143
100
AcDbEntity
8
0
100
AcDbLine
10
-124.93646151998141
20
119.70215514986498
30
1.3322676295501878e-14
11
-126.24399857120991
21
121.70779704916279
31
1.3183898417423734e-14
0
LINE
5
144
100
AcDbEntity
8
0
100
AcDbLine
10
-126.24399857120991
20
121.70779704916279
30
1.3183898417423734e-14
11
-129.3940806239562
21
133.32145215958508
31
4.4408920985006262e-15
0
SPLINE
5
145
100
AcDbEntity
8
0
100
AcDbSpline
70
0
71
3
72
8
73
4
74
0
42
0.000000001
43
0.0000000001
44
0.0000000001
40
0
40
0
40
0
40
0
40
1
40
1
40
1
40
1
10
-127.4835541601162
20
112.51304307501141
30
1.3322676295501878e-14
10
-130.66337345281141
20
124.81101657232237
30
4.4408920985006262e-15
10
-133.59367353753601
20
125.01180344248837
30
4.4408920985006262e-15
10
-129.39408062395623
20
133.32145215958505
30
4.4408920985006262e-15
0
SPLINE
5
146
100
AcDbEntity
8
0
100
AcDbSpline
70
0
71
3
72
25
73
21
74
0
42
0.000000001
43
0.0000000001
44
0.0000000001
40
0
40
0
40
0
40
0
40
0.5
40
0.625
40
0.75
40
0.8125
40
0.875
40
0.9375
40
0.96875
40
0.984375
40
1
40
1.015625
40
1.03125
40
1.0625
40
1.125
40
1.1875
40
1.25
40
1.375
40
1.5
40
2
40
2
40
2
40
2
10
-135.05251866805554
20
119.74566198364714
30
4.4408920985006262e-15
10
-134.18758030568213
20
119.34193838958073
30
4.4408920985006262e-15
10
-132.99713516322589
20
118.99710442394581
30
4.4408920985006262e-15
10
-131.65056171069779
20
118.46344455404096
30
4.4408920985006262e-15
10
-131.11338105210601
20
118.20611437543577
30
1.3322676295501878e-14
10
-130.70414972189553
20
117.97030744900427
30
-4.4408920985006262e-15
10
-130.40893773847702
20
117.77615529360874
30
-1.3322676295501878e-14
10
-130.17424512027694
20
117.5983397196687
30
4.4408920985006262e-15
10
-130.01602762628909
20
117.46395166696658
30
-4.4408920985006262e-15
10
-129.92824365572181
20
117.38494562297302
30
-4.4408920985006262e-15
10
-129.86150946485549
20
117.32241554105549
30
1.3322676295501878e-14
10
-129.80304944774619
20
117.26531472829697
30
-1.3322676295501878e-14
10
-129.7246359477237
20
117.18550869606872
30
4.4408920985006262e-15
10
-129.5934075300332
20
117.04331307981109
30
4.4408920985006262e-15
10
-129.41864055067666
20
116.82986440294059
30
-4.4408920985006262e-15
10
-129.22821872901159
20
116.5599630887187
30
4.4408920985006262e-15
10
-128.99670680922321
20
116.18349977122699
30
1.3322676295501878e-14
10
-128.74398293393506
20
115.68602677143642
30
-1.3322676295501878e-14
10
-128.21948635528108
20
114.43176222014543
30
1.3322676295501878e-14
10
-127.88010988239932
20
113.31475596571761
30
1.3322676295501878e-14
10
-127.4835541601162
20
112.51304307501141
30
1.3322676295501878e-14
0
SPLINE
5
147
100
AcDbEntity
8
0
100
AcDbSpline
70
0
71
3
72
54
73
50
74
0
42
0.000000001
43
0.0000000001
44
0.0000000001
40
0
40
0
40
0
40
0
40
0.75
40
0.796875
40
0.890625
40
0.9140625
40
0.9375
40
0.9609375
40
0.97265625
40
0.984375
40
0.990234375
40
0.99609375
40
0.9990234375
40
0.999755859375
40
1.00048828125
40
1.001953125
40
1.0048828125
40
1.0078125
40
1.013671875
40
1.01953125
40
1.03125
40
1.04296875
40
1.0546875
40
1.3125
40
1.78125
40
1.8984375
40
1.921875
40
1.9453125
40
1.95703125
40
1.96875
40
1.98046875
40
1.986328125
40
1.9921875
40
1.9951171875
40
1.998046875
40
1.99951171875
40
2.000244140625
40
2.0009765625
40
2.00244140625
40
2.00390625
40
2.0068359375
40
2.009765625
40
2.015625
40
2.021484375
40
2.02734375
40
2.0390625
40
2.203125
40
2.4375
40
3
40
3
40
3
40
3
10
-127.11968393316489
20
104.11140047026211
30
8.8817841970012523e-15
10
-128.11580403424969
20
105.01569286999509
30
4.4408920985006262e-15
10
-129.49264165329029
20
105.73615522001634
30
8.8817841970012523e-15
10
-130.55874636203401
20
106.89814544315294
30
-4.4408920985006262e-15
10
-130.73803965515435
20
107.1251011756446
30
1.3322676295501878e-14
10
-130.87703524009186
20
107.33070745003917
30
4.4408920985006262e-15
10
-130.94347945425653
20
107.435832051259
30
4.4408920985006262e-15
10
-130.99617768434291
20
107.52539877883463
30
1.3322676295501878e-14
10
-131.03672631436842
20
107.59838760204703
30
4.4408920985006262e-15
10
-131.06126873681416
20
107.64433563306096
30
4.4408920985006262e-15
10
-131.08070002026648
20
107.68187478210741
30
1.3322676295501878e-14
10
-131.09214840503668
20
107.70442977374807
30
4.4408920985006262e-15
10
-131.10046128729857
20
107.72109846924468
30
4.4408920985006262e-15
10
-131.10326981061672
20
107.72676054607487
30
-4.4408920985006262e-15
10
-131.10763682208204
20
107.73559146511893
30
1.3322676295501878e-14
10
-131.11647235155007
20
107.75349479720896
30
4.4408920985006262e-15
10
-131.12842079297889
20
107.77781267487903
30
4.4408920985006262e-15
10
-131.14779883854885
20
107.81746885015014
30
4.4408920985006262e-15
10
-131.17172943183644
20
107.8668606698952
30
1.3322676295501878e-14
10
-131.20972387737848
20
107.94616241269881
30
-1.3322676295501878e-14
10
-131.25652182386682
20
108.04549998227401
30
1.3322676295501878e-14
10
-131.31163537191452
20
108.16512854492231
30
-4.4408920985006262e-15
10
-131.74426210377095
20
109.12527873759231
30
-4.4408920985006262e-15
10
-132.63568586303074
20
111.73927598269337
30
1.3322676295501878e-14
10
-133.25019584107696
20
114.88382158381299
30
4.4408920985006262e-15
10
-133.82729073704328
20
117.10757580564625
30
4.4408920985006262e-15
10
-133.99723021842658
20
117.70097760825945
30
-4.4408920985006262e-15
10
-134.05979950748809
20
117.91222395289512
30
4.4408920985006262e-15
10
-134.11106461369982
20
118.08077504421934
30
4.4408920985006262e-15
10
-134.15014308886956
20
118.20696812686585
30
4.4408920985006262e-15
10
-134.18323892052129
20
118.31190229080772
30
-4.4408920985006262e-15
10
-134.21007150683738
20
118.39579187074625
30
-4.4408920985006262e-15
10
-134.22693495996791
20
118.44802306402896
30
-4.4408920985006262e-15
10
-134.24062321335543
20
118.49011494091172
30
1.3322676295501878e-14
10
-134.24896093048633
20
118.51563650245843
30
4.4408920985006262e-15
10
-134.25532491155587
20
118.53504286887357
30
4.4408920985006262e-15
10
-134.25817151785049
20
118.54370772369258
30
-4.4408920985006262e-15
10
-134.25802104512573
20
118.54324674613487
30
-4.4408920985006262e-15
10
-134.2588613321156
20
118.54579413578023
30
4.4408920985006262e-15
10
-134.25963604723748
20
118.54812193917584
30
4.4408920985006262e-15
10
-134.26080821985491
20
118.55162601013616
30
4.4408920985006262e-15
10
-134.2625895281283
20
118.5568908178806
30
4.4408920985006262e-15
10
-134.26488297732999
20
118.56357237136677
30
1.3322676295501878e-14
10
-134.26766521697729
20
118.57151880837101
30
-4.4408920985006262e-15
10
-134.27144156646091
20
118.58210162753628
30
1.3322676295501878e-14
10
-134.30140020506053
20
118.66374281642132
30
4.4408920985006262e-15
10
-134.38465553593949
20
118.84058536906127
30
4.4408920985006262e-15
10
-134.64086284700838
20
119.22526331419498
30
4.4408920985006262e-15
10
-134.90348771796911
20
119.52001895602089
30
1.3322676295501878e-14
10
-135.05251866805554
20
119.74566198364714
30
4.4408920985006262e-15
0
SPLINE
5
148
100
AcDbEntity
8
0
100
AcDbSpline
70
0
71
3
72
31
73
27
74
0
42
0.000000001
43
0.0000000001
44
0.0000000001
40
0
40
0
40
0
40
0
40
0.875
40
0.921875
40
0.953125
40
0.96875
40
0.9765625
40
0.984375
40
0.98828125
40
0.9921875
40
0.99609375
40
0.998046875
40
0.9990234375
40
1
40
1.0009765625
40
1.001953125
40
1.00390625
40
1.0078125
40
1.01171875
40
1.015625
40
1.0234375
40
1.03125
40
1.09375
40
1.1875
40
1.625
40
2
40
2
40
2
40
2
10
-124.36443734791882
20
93.699454626449338
30
8.8817841970012523e-15
10
-125.40439261686238
20
96.037282139984299
30
8.8817841970012523e-15
10
-126.85534407382764
20
98.375222789804752
30
8.8817841970012523e-15
10
-127.7265953748598
20
101.01390265219358
30
-8.8817841970012523e-15
10
-127.80659603786432
20
101.27544953106454
30
8.8817841970012523e-15
10
-127.85116480462474
20
101.42876208044373
30
8.8817841970012523e-15
10
-127.87601592877836
20
101.51657904091323
30
0
10
-127.89129259297775
20
101.57157144558909
30
4.4408920985006262e-15
10
-127.90334704142757
20
101.61558545170547
30
0
10
-127.91233429074006
20
101.64872076812676
30
1.3322676295501878e-14
10
-127.91967566790498
20
101.67604864621764
30
0
10
-127.92493964855538
20
101.6957955011145
30
1.3322676295501878e-14
10
-127.92768761288397
20
101.70613832192964
30
-8.8817841970012523e-15
10
-127.9304477310987
20
101.71655826583036
30
0
10
-127.93051108278749
20
101.71680808044952
30
0
10
-127.931526872414
20
101.72068830687789
30
0
10
-127.9328477332372
20
101.72582525482485
30
8.8817841970012523e-15
10
-127.9349080654125
20
101.73402598931395
30
-4.4408920985006262e-15
10
-127.93719467420351
20
101.74349404663539
30
0
10
-127.94016114555575
20
101.75624338226157
30
0
10
-127.94364034682624
20
101.77212850142408
30
-8.8817841970012523e-15
10
-127.95642909861643
20
101.83569222670017
30
2.2204460492503131e-14
10
-127.9725915285706
20
101.96877590184016
30
0
10
-127.95363445461453
20
102.44786997764098
30
8.8817841970012523e-15
10
-127.58845862405735
20
103.16775475349269
30
-8.8817841970012523e-15
10
-127.22097322527065
20
103.81183331701479
30
-1.3322676295501878e-14
10
-127.11968393316489
20
104.11140047026211
30
8.8817841970012523e-15
0
LINE
5
149
100
AcDbEntity
8
0
100
AcDbLine
10
-124.36443734791882
20
93.699454626449338
30
8.8817841970012523e-15
11
-116.36451118437789
21
93.665048841249728
31
8.8817841970012523e-15
0
LINE
5
150
100
AcDbEntity
8
0
100
AcDbLine
10
-116.36451118437789
20
93.665048841249728
30
8.8817841970012523e-15
11
-114.52353413925609
21
89.279707774064079
31
9.1593399531575415e-15
0
LINE
5
151
100
AcDbEntity
8
0
100
AcDbLine
10
-114.52353413925609
20
89.279707774064079
30
9.1593399531575415e-15
11
-117.58858413578706
21
88.070261498586149
31
-8.8817841970012523e-15
0
SPLINE
5
152
100
AcDbEntity
8
0
100
AcDbSpline
70
0
71
3
72
70
73
66
74
0
42
0.000000001
43
0.0000000001
44
0.0000000001
40
0
40
0
40
0
40
0
40
0.25
40
0.5
40
0.625
40
0.75
40
0.875
40
0.9375
40
0.96875
40
1
40
1.03125
40
1.0625
40
1.125
40
1.25
40
1.375
40
1.5
40
1.6875
40
1.90625
40
1.9375
40
1.953125
40
1.96875
40
1.9765625
40
1.984375
40
1.98828125
40
1.9921875
40
1.99609375
40
1.998046875
40
1.9990234375
40
2
40
2.0009765625
40
2.001953125
40
2.00390625
40
2.0078125
40
2.01171875
40
2.015625
40
2.0234375
40
2.03125
40
2.09375
40
2.1875
40
2.625
40
2.90625
40
2.9375
40
2.953125
40
2.96875
40
2.9765625
40
2.984375
40
2.98828125
40
2.9921875
40
2.99609375
40
2.998046875
40
2.9990234375
40
3
40
3.0009765625
40
3.001953125
40
3.00390625
40
3.0078125
40
3.01171875
40
3.015625
40
3.0234375
40
3.03125
40
3.078125
40
3.15625
40
3.375
40
3.75
40
4
40
4
40
4
40
4
10
-96.38533961815827
20
88.779078770980959
30
4.4408920985006262e-15
10
-96.854008973119875
20
88.314423424217978
30
4.4408920985006262e-15
10
-97.731684431208961
20
87.302641920929162
30
-4.4408920985006262e-15
10
-98.791512218532759
20
85.98636010304098
30
4.4408920985006262e-15
10
-99.684075893049823
20
84.995209121403235
30
4.4408920985006262e-15
10
-100.39276649364237
20
84.305914474839071
30
4.4408920985006262e-15
10
-101.02958020661345
20
83.796106182969879
30
4.4408920985006262e-15
10
-101.50788735000809
20
83.482877334192693
30
0
10
-101.79020782397318
20
83.318430706010091
30
8.8817841970012523e-15
10
-102.01047718322829
20
83.200979518390625
30
4.4408920985006262e-15
10
-102.22411470929949
20
83.096938879378982
30
0
10
-102.51583224711759
20
82.966638308870913
30
0
10
-103.03374811876141
20
82.765349389066571
30
-8.8817841970012523e-15
10
-103.79746863158141
20
82.544672357980346
30
4.4408920985006262e-15
10
-104.74239759825667
20
82.366777909292011
30
4.4408920985006262e-15
10
-105.86914036017234
20
82.235832700120582
30
-4.4408920985006262e-15
10
-107.25978094273786
20
82.156002064238578
30
8.8817841970012523e-15
10
-108.40621320557329
20
82.11523236234126
30
4.4408920985006262e-15
10
-109.09271931294106
20
82.073767254807763
30
4.4408920985006262e-15
10
-109.25376535582522
20
82.063109303595581
30
4.4408920985006262e-15
10
-109.35420747890724
20
82.056037997667488
30
4.4408920985006262e-15
10
-109.43441773149415
20
82.050115091847942
30
-4.4408920985006262e-15
10
-109.48450597882649
20
82.046296714400384
30
8.8817841970012523e-15
10
-109.5245051186885
20
82.043173201549578
30
4.4408920985006262e-15
10
-109.55458287913788
20
82.040786049948366
30
8.8817841970012523e-15
10
-109.57932453864358
20
82.038791272704145
30
4.4408920985006262e-15
10
-109.59723927792862
20
82.037328402103526
30
0
10
-109.60653111526888
20
82.036565771494963
30
4.4408920985006262e-15
10
-109.61615466292501
20
82.035771511705406
30
1.3322676295501878e-14
10
-109.6156249895792
20
82.035815399321763
30
-8.8817841970012523e-15
10
-109.61846093114467
20
82.035583155979793
30
0
10
-109.62177496711223
20
82.035316109610079
30
4.4408920985006262e-15
10
-109.62737563065195
20
82.034872971640894
30
4.4408920985006262e-15
10
-109.63373286069853
20
82.034386854376109
30
4.4408920985006262e-15
10
-109.64234563289534
20
82.033748353011646
30
4.4408920985006262e-15
10
-109.6530812636899
20
82.032991951496882
30
0
10
-109.69615697253077
20
82.030164806903372
30
0
10
-109.78722986889422
20
82.026158768933243
30
0
10
-110.12077632027936
20
82.027422667122693
30
4.4408920985006262e-15
10
-110.58561270392644
20
82.104362766097253
30
0
10
-110.9691714890923
20
82.280073674022191
30
0
10
-111.12145820026184
20
82.378177846852196
30
4.4408920985006262e-15
10
-111.15000099793411
20
82.397475837900885
30
8.8817841970012523e-15
10
-111.16763915099074
20
82.40979036121189
30
4.4408920985006262e-15
10
-111.18163408932729
20
82.419800368259786
30
0
10
-111.19031564196729
20
82.426110196379966
30
8.8817841970012523e-15
10
-111.197261823563
20
82.431220880948729
30
8.8817841970012523e-15
10
-111.20236805785837
20
82.435006775880851
30
4.4408920985006262e-15
10
-111.20688932681921
20
82.438389067364909
30
8.8817841970012523e-15
10
-111.20949941630246
20
82.440350491574208
30
0
10
-111.21184438539244
20
82.442121144629539
30
4.4408920985006262e-15
10
-111.21119224402376
20
82.44162654582064
30
8.8817841970012523e-15
10
-111.21975087743149
20
82.448104635632703
30
4.4408920985006262e-15
10
-111.22794696866784
20
82.454313114560762
30
0
10
-111.24378189552294
20
82.466317430096936
30
0
10
-111.26560510989924
20
82.482892973386498
30
4.4408920985006262e-15
10
-111.29210354686319
20
82.503067046461382
30
8.8817841970012523e-15
10
-111.32728536139304
20
82.529916901367741
30
4.4408920985006262e-15
10
-111.37124228398037
20
82.563583417420546
30
-4.4408920985006262e-15
10
-111.51160497591151
20
82.67159381095334
30
4.4408920985006262e-15
10
-111.80803486858426
20
82.903426964670203
30
8.8817841970012523e-15
10
-112.56497040503967
20
83.51597200893292
30
-8.8817841970012523e-15
10
-114.00319484745667
20
84.76372242319998
30
1.3322676295501878e-14
10
-115.75007436000183
20
86.403092053706587
30
8.8817841970012523e-15
10
-117.05726273890092
20
87.601305428753221
30
8.8817841970012523e-15
10
-117.58858413578706
20
88.070261498586149
30
8.8817841970012523e-15
0
LINE
5
153
100
AcDbEntity
8
0
100
AcDbLine
10
-96.38533961815827
20
88.779078770980959
30
4.4408920985006262e-15
11
-99.179542406644856
21
88.442001836945877
31
4.40619762898109e-15
0
LINE
5
154
100
AcDbEntity
8
0
100
AcDbLine
10
-99.179542406644856
20
88.442001836945877
30
4.40619762898109e-15
11
-98.362957361889983
21
93.987632126729338
31
-3.8857805861880479e-15
0
LINE
5
155
100
AcDbEntity
8
0
100
AcDbLine
10
-98.362957361889983
20
93.987632126729338
30
-3.8857805861880479e-15
11
-94.371595800638801
21
91.970447730753889
31
4.5796699765787707e-15
0
LINE
5
156
100
AcDbEntity
8
0
100
AcDbLine
10
-94.371595800638801
20
91.970447730753889
30
4.5796699765787707e-15
11
-87.940689782709228
21
99.142856516410035
31
1.3877787807814457e-14
0
LINE
5
157
100
AcDbEntity
8
0
100
AcDbLine
10
-87.940689782709228
20
99.142856516410035
30
1.3877787807814457e-14
11
-88.730360648819527
21
101.5462748993007
31
1.7902346272080649e-14
0
LINE
5
158
100
AcDbEntity
8
0
100
AcDbLine
10
-88.730360648819527
20
101.5462748993007
30
1.7902346272080649e-14
11
-83.852992024690707
21
119.52546496182475
31
1.4432899320127035e-14
0
LINE
5
159
100
AcDbEntity
8
0
100
AcDbLine
10
-83.852992024690707
20
119.52546496182475
30
1.4432899320127035e-14
11
-88.261552778960862
21
117.54440663963709
31
-4.7184478546569153e-15
0
LINE
5
160
100
AcDbEntity
8
0
100
AcDbLine
10
-88.261552778960862
20
117.54440663963709
30
-4.7184478546569153e-15
11
-88.659828790471977
21
117.94612322960418
31
4.4408920985006262e-15
0
LINE
5
161
100
AcDbEntity
8
0
100
AcDbLine
10
-88.659828790471977
20
117.94612322960418
30
4.4408920985006262e-15
11
-84.235785433149942
21
123.52714825844384
31
-1.3877787807814457e-14
0
LINE
5
162
100
AcDbEntity
8
0
100
AcDbLine
10
-84.235785433149942
20
123.52714825844384
30
-1.3877787807814457e-14
11
-86.585480299318846
21
128.40306982005364
31
4.4408920985006262e-15
0
SPLINE
5
163
100
AcDbEntity
8
0
100
AcDbSpline
70
0
71
3
72
8
73
4
74
0
42
0.000000001
43
0.0000000001
44
0.0000000001
40
0
40
0
40
0
40
0
40
1
40
1
40
1
40
1
10
-88.284827949820681
20
123.63733613438322
30
4.4408920985006262e-15
10
-85.998113808153562
20
127.5592656687551
30
1.3322676295501878e-14
10
-85.803529546896229
20
125.88398019764418
30
-4.4408920985006262e-15
10
-86.585480299318846
20
128.40306982005364
30
1.3322676295501878e-14
0
LINE
5
164
100
AcDbEntity
8
0
100
AcDbLine
10
-88.284827949820681
20
123.63733613438322
30
4.4408920985006262e-15
11
-91.409914508034049
21
129.55805797563426
31
3.8857805861880479e-15
0
LINE
5
165
100
AcDbEntity
8
0
100
AcDbLine
10
-91.409914508034049
20
129.55805797563426
30
3.8857805861880479e-15
11
-89.392730112058615
21
133.54941953688541
31
-4.4408920985006262e-15
0
LINE
5
166
100
AcDbEntity
8
0
100
AcDbLine
10
-89.392730112058615
20
133.54941953688541
30
-4.4408920985006262e-15
11
-90.990995025787086
21
133.9562969945365
31
-4.4755865680201623e-15
0
LINE
5
167
100
AcDbEntity
8
0
100
AcDbLine
10
-90.990995025787086
20
133.9562969945365
30
-4.4755865680201623e-15
11
-93.404735144045645
21
130.76664832399155
31
1.3322676295501878e-14
0
SPLINE
5
168
100
AcDbEntity
8
0
100
AcDbSpline
70
0
71
3
72
29
73
25
74
0
42
0.000000001
43
0.0000000001
44
0.0000000001
40
0
40
0
40
0
40
0
40
0.6875
40
0.75
40
0.875
40
0.90625
40
0.9375
40
0.953125
40
0.96875
40
0.984375
40
0.9921875
40
0.99609375
40
1
40
1.00390625
40
1.0078125
40
1.015625
40
1.03125
40
1.046875
40
1.0625
40
1.09375
40
1.125
40
1.3125
40
1.75
40
2
40
2
40
2
40
2
10
-93.025382314042417
20
125.96497242589423
30
1.3322676295501878e-14
10
-92.932139563330708
20
126.33124146862369
30
-4.4408920985006262e-15
10
-92.738162939599192
20
126.72292728004335
30
4.4408920985006262e-15
10
-92.636613783637245
20
127.19054963926986
30
-4.4408920985006262e-15
10
-92.620399484928328
20
127.30823478395297
30
-4.4408920985006262e-15
10
-92.615020514909872
20
127.40984712543846
30
-4.4408920985006262e-15
10
-92.614279531545549
20
127.45229704303036
30
1.3322676295501878e-14
10
-92.61463988366657
20
127.48637669062629
30
4.4408920985006262e-15
10
-92.615389140975964
20
127.5118725054694
30
4.4408920985006262e-15
10
-92.616456398161247
20
127.53349036180289
30
4.4408920985006262e-15
10
-92.617375375986711
20
127.54798304069881
30
4.4408920985006262e-15
10
-92.618046549437892
20
127.55729900304669
30
4.4408920985006262e-15
10
-92.618353511330383
20
127.56139033016525
30
4.4408920985006262e-15
10
-92.619568543588542
20
127.57656371402847
30
1.3322676295501878e-14
10
-92.6209256405877
20
127.59292067821758
30
4.4408920985006262e-15
10
-92.623554058774943
20
127.6233293275522
30
-1.3322676295501878e-14
10
-92.627548302808677
20
127.66577765575602
30
4.4408920985006262e-15
10
-92.632863260060276
20
127.71703991570621
30
4.4408920985006262e-15
10
-92.640576021332933
20
127.78514607229855
30
4.4408920985006262e-15
10
-92.651385556166957
20
127.87013930814338
30
-1.3322676295501878e-14
10
-92.690684455524703
20
128.14130439878898
30
-4.4408920985006262e-15
10
-92.834783385379737
20
128.8465617140545
30
4.4408920985006262e-15
10
-93.128877241561128
20
129.7704422986148
30
4.4408920985006262e-15
10
-93.339215953407773
20
130.49969740862747
30
1.3322676295501878e-14
10
-93.404735144045645
20
130.76664832399155
30
4.4408920985006262e-15
0
SPLINE
5
169
100
AcDbEntity
8
0
100
AcDbSpline
70
0
71
3
72
53
73
49
74
0
42
0.000000001
43
0.0000000001
44
0.0000000001
40
0
40
0
40
0
40
0
40
0.75
40
0.84375
40
0.890625
40
0.9140625
40
0.9375
40
0.9609375
40
0.97265625
40
0.984375
40
0.990234375
40
0.99609375
40
0.9990234375
40
1.00048828125
40
1.001953125
40
1.0078125
40
1.01953125
40
1.03125
40
1.0546875
40
1.078125
40
1.125
40
1.171875
40
1.265625
40
1.3125
40
1.875
40
1.921875
40
1.9453125
40
1.95703125
40
1.96875
40
1.98046875
40
1.986328125
40
1.9921875
40
1.9951171875
40
1.998046875
40
1.99951171875
40
2.000244140625
40
2.0009765625
40
2.00390625
40
2.009765625
40
2.015625
40
2.02734375
40
2.0390625
40
2.0625
40
2.0859375
40
2.109375
40
2.34375
40
2.8125
40
3
40
3
40
3
40
3
10
-97.347928607174211
20
143.98372913673538
30
4.4408920985006262e-15
10
-96.652665876329081
20
142.8807288038214
30
1.3322676295501878e-14
10
-95.481953838161445
20
141.7913313106805
30
1.3322676295501878e-14
10
-94.822943420406517
20
140.41656142503956
30
4.4408920985006262e-15
10
-94.723238009872532
20
140.15485895471011
30
-4.4408920985006262e-15
10
-94.673029659477436
20
140.00267434776777
30
1.3322676295501878e-14
10
-94.638900128265746
20
139.88716765168803
30
4.4408920985006262e-15
10
-94.613511758854841
20
139.78970052915983
30
4.4408920985006262e-15
10
-94.595114335636595
20
139.71102874276295
30
-4.4408920985006262e-15
10
-94.584405895936086
20
139.6614419976955
30
4.4408920985006262e-15
10
-94.576375924161979
20
139.62181274751555
30
-1.3322676295501878e-14
10
-94.571467418585144
20
139.59643240319434
30
-4.4408920985006262e-15
10
-94.5683368522769
20
139.57968763064878
30
4.4408920985006262e-15
10
-94.566273859540715
20
139.56844158588581
30
4.4408920985006262e-15
10
-94.561566658285216
20
139.54253725889177
30
4.4408920985006262e-15
10
-94.552557031439207
20
139.49167791653164
30
-1.3322676295501878e-14
10
-94.538858490635505
20
139.40983057099533
30
-4.4408920985006262e-15
10
-94.519004922637308
20
139.28077343981187
30
-4.4408920985006262e-15
10
-94.497181590117009
20
139.11860467170968
30
-4.4408920985006262e-15
10
-94.468691898501561
20
138.85917364106035
30
1.3322676295501878e-14
10
-94.444424874792247
20
138.53413841951021
30
4.4408920985006262e-15
10
-94.427509369417436
20
138.01294853187778
30
4.4408920985006262e-15
10
-94.439903206114678
20
137.4900827038573
30
4.4408920985006262e-15
10
-94.569806365776373
20
135.52434335318475
30
-4.4408920985006262e-15
10
-94.974851142730529
20
133.67177376839501
30
-4.4408920985006262e-15
10
-95.018926826753642
20
131.89591275324381
30
-4.4408920985006262e-15
10
-95.01868465625229
20
131.66590189202807
30
-4.4408920985006262e-15
10
-95.016734091704109
20
131.53452506003697
30
2.2204460492503131e-14
10
-95.014337832906904
20
131.43602899846732
30
-4.4408920985006262e-15
10
-95.011538934835116
20
131.35395889092936
30
1.3322676295501878e-14
10
-95.008807574582647
20
131.28835794719296
30
-4.4408920985006262e-15
10
-95.006886608440567
20
131.24727726788774
30
1.3322676295501878e-14
10
-95.005234179384644
20
131.21461686735518
30
-1.3322676295501878e-14
10
-95.004122095689041
20
131.1937501171769
30
4.4408920985006262e-15
10
-95.003367603628305
20
131.18005791255825
30
-4.4408920985006262e-15
10
-95.002846814715269
20
131.17080474016473
30
-4.4408920985006262e-15
10
-95.001633352805044
20
131.14921659736308
30
-4.4408920985006262e-15
10
-94.999281032905685
20
131.10714096027533
30
-4.4408920985006262e-15
10
-94.995569771521602
20
131.04000425102817
30
-4.4408920985006262e-15
10
-94.989892683332315
20
130.93565531706651
30
2.2204460492503131e-14
10
-94.983063196058254
20
130.80717590738757
30
-4.4408920985006262e-15
10
-94.972754086136476
20
130.60727034054824
30
4.4408920985006262e-15
10
-94.960911128697006
20
130.36712247640429
30
-4.4408920985006262e-15
10
-94.948142918509092
20
130.09424186690629
30
1.3322676295501878e-14
10
-94.901874034283054
20
129.06164622540695
30
1.3322676295501878e-14
10
-94.837064968415888
20
127.20343134808353
30
-4.4408920985006262e-15
10
-94.486553237027607
20
126.6722212189471
30
4.4408920985006262e-15
10
-93.417428397783837
20
126.16310763122867
30
1.3322676295501878e-14
10
-93.025382314042417
20
125.96497242589423
30
1.3322676295501878e-14
0
SPLINE
5
170
100
AcDbEntity
8
0
100
AcDbSpline
70
0
71
3
72
39
73
35
74
0
42
0.000000001
43
0.0000000001
44
0.0000000001
40
0
40
0
40
0
40
0
40
0.75
40
0.796875
40
0.890625
40
0.9140625
40
0.9375
40
0.9609375
40
0.97265625
40
0.984375
40
0.990234375
40
0.99609375
40
0.9990234375
40
0.999755859375
40
1.00048828125
40
1.001953125
40
1.0048828125
40
1.0078125
40
1.013671875
40
1.01953125
40
1.03125
40
1.04296875
40
1.0546875
40
1.40625
40
1.5
40
1.59375
40
1.6875
40
1.875
40
1.96875
40
2.0625
40
2.25
40
2.4375
40
2.625
40
3
40
3
40
3
40
3
10
-97.813295898576911
20
128.7855899978772
30
-4.4408920985006262e-15
10
-97.70383523263817
20
130.9851395796353
30
-1.3322676295501878e-14
10
-97.682437729375081
20
133.32946916609797
30
-4.4408920985006262e-15
10
-97.517649133323033
20
135.93875361552824
30
4.4408920985006262e-15
10
-97.482198926015244
20
136.41901639029172
30
1.3322676295501878e-14
10
-97.447437211593524
20
136.83034072382614
30
-4.4408920985006262e-15
10
-97.429145877321716
20
137.03591991072139
30
-4.4408920985006262e-15
10
-97.413108352564549
20
137.20721565798158
30
1.3322676295501878e-14
10
-97.399795134875973
20
137.34412320214034
30
-4.4408920985006262e-15
10
-97.391243600367829
20
137.42988179246004
30
-4.4408920985006262e-15
10
-97.3843241722698
20
137.49800365892435
30
-4.4408920985006262e-15
10
-97.379832695107723
20
137.54165986849344
30
4.4408920985006262e-15
10
-97.377097318343928
20
137.56801673897189
30
1.3322676295501878e-14
10
-97.375608051880874
20
137.58230580797064
30
4.4408920985006262e-15
10
-97.375161814802425
20
137.58657961545495
30
1.3322676295501878e-14
10
-97.374639097544275
20
137.59151752579419
30
4.4408920985006262e-15
10
-97.37373561960014
20
137.59989416465547
30
4.4408920985006262e-15
10
-97.37232779043859
20
137.61254998681781
30
-1.3322676295501878e-14
10
-97.370468075240296
20
137.6286119645369
30
4.4408920985006262e-15
10
-97.367352551129173
20
137.65414534687625
30
-4.4408920985006262e-15
10
-97.363166753866977
20
137.68606619224789
30
4.4408920985006262e-15
10
-97.357700120508383
20
137.72428096884394
30
4.4408920985006262e-15
10
-97.294758532881005
20
138.13124197010171
30
4.4408920985006262e-15
10
-97.133159469338764
20
138.61393583733036
30
4.4408920985006262e-15
10
-96.927077526999753
20
139.17980490402817
30
4.4408920985006262e-15
10
-96.822442486270646
20
139.47519508665383
30
4.4408920985006262e-15
10
-96.695142968128494
20
139.8704941409633
30
1.3322676295501878e-14
10
-96.59880016412805
20
140.26972604414212
30
-4.4408920985006262e-15
10
-96.558339290695287
20
140.67679945372331
30
4.4408920985006262e-15
10
-96.564163133324882
20
141.08961345947259
30
4.4408920985006262e-15
10
-96.633878444562313
20
141.59576470753274
30
1.3322676295501878e-14
10
-96.788450367614189
20
142.19577589149344
30
1.3322676295501878e-14
10
-97.045937526748673
20
142.98932004542814
30
4.4408920985006262e-15
10
-97.249649821217403
20
143.58330276368929
30
4.4408920985006262e-15
10
-97.347928607174211
20
143.98372913673538
30
4.4408920985006262e-15
0
SPLINE
5
171
100
AcDbEntity
8
0
100
AcDbSpline
70
0
71
3
72
30
73
26
74
0
42
0.000000001
43
0.0000000001
44
0.0000000001
40
0
40
0
40
0
40
0
40
0.6875
40
0.75
40
0.8125
40
0.875
40
0.90625
40
0.9375
40
0.953125
40
0.96875
40
0.984375
40
0.9921875
40
0.99609375
40
1
40
1.00390625
40
1.0078125
40
1.015625
40
1.03125
40
1.046875
40
1.0625
40
1.09375
40
1.125
40
1.1875
40
1.625
40
2
40
2
40
2
40
2
10
-101.77025167526828
20
138.80270040863482
30
-4.4408920985006262e-15
10
-101.40989612676007
20
137.33447037413245
30
4.4408920985006262e-15
10
-101.16308603271058
20
135.68615173458562
30
4.4408920985006262e-15
10
-100.71199541858876
20
133.95900342345908
30
4.4408920985006262e-15
10
-100.59958535844348
20
133.56308063023926
30
1.3322676295501878e-14
10
-100.49794223336001
20
133.23567890285904
30
-4.4408920985006262e-15
10
-100.41122818993875
20
132.97548856836542
30
4.4408920985006262e-15
10
-100.35464210686803
20
132.8136066705805
30
4.4408920985006262e-15
10
-100.30788612245665
20
132.68463074198445
30
4.4408920985006262e-15
10
-100.27199272243374
20
132.58800937623363
30
-4.4408920985006262e-15
10
-100.24159175748269
20
132.50813346028298
30
4.4408920985006262e-15
10
-100.21962139887449
20
132.45148662376639
30
-4.4408920985006262e-15
10
-100.20748654720359
20
132.42047201220782
30
4.4408920985006262e-15
10
-100.19686234377895
20
132.39350259594352
30
-4.4408920985006262e-15
10
-100.19181067743847
20
132.38078824340079
30
-4.4408920985006262e-15
10
-100.18305012512852
20
132.35890573389821
30
4.4408920985006262e-15
10
-100.16846485874819
20
132.32301129567989
30
4.4408920985006262e-15
10
-100.14667736480938
20
132.2707711142138
30
-4.4408920985006262e-15
10
-100.11999691274707
20
132.20898555794224
30
4.4408920985006262e-15
10
-100.08338931737455
20
132.12692496501589
30
-4.4408920985006262e-15
10
-100.03589552424464
20
132.02532663449469
30
4.4408920985006262e-15
10
-99.956333865740532
20
131.86458679973455
30
4.4408920985006262e-15
10
-99.596768173153947
20
131.19264588287558
30
4.4408920985006262e-15
10
-98.837889735507062
20
130.17263344755168
30
-4.4408920985006262e-15
10
-98.111357798749751
20
129.23687605312972
30
-4.4408920985006262e-15
10
-97.813295898576911
20
128.7855899978772
30
-4.4408920985006262e-15
0
SPLINE
5
172
100
AcDbEntity
8
0
100
AcDbSpline
70
0
71
3
72
24
73
20
74
0
42
0.000000001
43
0.0000000001
44
0.0000000001
40
0
40
0
40
0
40
0
40
0.25
40
0.5
40
0.625
40
0.75
40
0.8125
40
0.875
40
0.9375
40
0.96875
40
1
40
1.03125
40
1.0625
40
1.125
40
1.25
40
1.375
40
1.5
40
1.75
40
2
40
2
40
2
40
2
10
-103.79775780661164
20
132.41136104294901
30
4.4408920985006262e-15
10
-103.66327884687996
20
132.67745181369912
30
4.4408920985006262e-15
10
-103.37215665291225
20
133.20058746401045
30
4.4408920985006262e-15
10
-102.99440418952472
20
133.84884404356652
30
4.4408920985006262e-15
10
-102.70881952341833
20
134.37425232828332
30
-4.4408920985006262e-15
10
-102.54246236610024
20
134.70754110994682
30
-4.4408920985006262e-15
10
-102.41973737520603
20
134.97850308483945
30
-4.4408920985006262e-15
10
-102.33374554879695
20
135.18391698658661
30
-4.4408920985006262e-15
10
-102.26746478082291
20
135.35817558737622
30
-4.4408920985006262e-15
10
-102.21876345106794
20
135.49736344070089
30
-1.3322676295501878e-14
10
-102.18269542634941
20
135.60736211482489
30
-1.3322676295501878e-14
10
-102.15451658252229
20
135.69988985169914
30
1.3322676295501878e-14
10
-102.11774465001912
20
135.83014070306632
30
4.4408920985006262e-15
10
-102.06127507330181
20
136.05670165967007
30
1.3322676295501878e-14
10
-101.99793744555167
20
136.38583125550826
30
4.4408920985006262e-15
10
-101.94406831113881
20
136.78498956475198
30
4.4408920985006262e-15
10
-101.89263733312529
20
137.32196097882718
30
-1.3322676295501878e-14
10
-101.85030246232294
20
137.99795228909372
30
4.4408920985006262e-15
10
-101.80473155981518
20
138.53617956557775
30
1.3322676295501878e-14
10
-101.77025167526828
20
138.80270040863482
30
-4.4408920985006262e-15
0
SPLINE
5
173
100
AcDbEntity
8
0
100
AcDbSpline
70
0
71
3
72
29
73
25
74
0
42
0.000000001
43
0.0000000001
44
0.0000000001
40
0
40
0
40
0
40
0
40
0.6875
40
0.75
40
0.875
40
0.90625
40
0.9375
40
0.953125
40
0.96875
40
0.984375
40
0.9921875
40
0.99609375
40
1
40
1.00390625
40
1.0078125
40
1.015625
40
1.03125
40
1.046875
40
1.0625
40
1.09375
40
1.125
40
1.3125
40
1.625
40
2
40
2
40
2
40
2
10
-111.33747739767512
20
146.44391706414964
30
4.4408920985006262e-15
10
-109.87516085739394
20
145.42928532886717
30
-4.4408920985006262e-15
10
-107.81497933067757
20
144.73733483595052
30
4.4408920985006262e-15
10
-106.04014296892176
20
143.36897450766583
30
1.3322676295501878e-14
10
-105.64266462249546
20
142.98563221243415
30
2.2204460492503131e-14
10
-105.34488896482928
20
142.61873169285391
30
-4.4408920985006262e-15
10
-105.22839215682602
20
142.45912035348317
30
-4.4408920985006262e-15
10
-105.13996155509849
20
142.32711901525906
30
2.2204460492503131e-14
10
-105.07615228637199
20
142.22603382833097
30
-4.4408920985006262e-15
10
-105.02489221544253
20
142.13958150227455
30
4.4408920985006262e-15
10
-104.99049959003776
20
142.07872913889867
30
4.4408920985006262e-15
10
-104.97060963809577
20
142.04261663205796
30
-1.3322676295501878e-14
10
-104.95744329476912
20
142.01833939191295
30
4.4408920985006262e-15
10
-104.93837578697108
20
141.98262457051999
30
-4.4408920985006262e-15
10
-104.91536037815862
20
141.93888372590311
30
4.4408920985006262e-15
10
-104.87481255794336
20
141.86026061028852
30
4.4408920985006262e-15
10
-104.81944496196232
20
141.74826275643312
30
4.4408920985006262e-15
10
-104.75596531276402
20
141.61244405720419
30
2.2204460492503131e-14
10
-104.67554390719908
20
141.43018632743428
30
1.3322676295501878e-14
10
-104.58255832270665
20
141.1999193201838
30
-4.4408920985006262e-15
10
-104.31565308806245
20
140.45342850716114
30
-4.4408920985006262e-15
10
-103.96376612780719
20
138.79894803945274
30
-4.4408920985006262e-15
10
-103.91419114518965
20
135.90620021144576
30
4.4408920985006262e-15
10
-103.94259555170485
20
133.61199505362686
30
-1.3322676295501878e-14
10
-103.79775780661164
20
132.41136104294901
30
4.4408920985006262e-15
0
LINE
5
174
100
AcDbEntity
8
0
100
AcDbLine
10
-111.33747739767512
20
146.44391706414964
30
4.4408920985006262e-15
11
-107.36503901793184
21
140.02677336004399
31
4.4408920985006262e-15
0
LINE
5
175
100
AcDbEntity
8
0
100
AcDbLine
10
-107.36503901793184
20
140.02677336004399
30
4.4408920985006262e-15
11
-111.00285208759959
21
131.24233734683548
31
4.4408920985006262e-15
0
LINE
5
176
100
AcDbEntity
8
0
100
AcDbLine
10
-111.00285208759959
20
131.24233734683548
30
4.4408920985006262e-15
11
-113.76497982975761
21
140.05429798769183
31
-1.3322676295501878e-14
0
SPLINE
5
177
100
AcDbEntity
8
0
100
AcDbSpline
70
0
71
3
72
49
73
45
74
0
42
0.000000001
43
0.0000000001
44
0.0000000001
40
0
40
0
40
0
40
0
40
0.796875
40
0.84375
40
0.890625
40
0.9140625
40
0.9375
40
0.9609375
40
0.97265625
40
0.984375
40
0.990234375
40
0.99609375
40
0.9990234375
40
0.999755859375
40
1.00048828125
40
1.001953125
40
1.0048828125
40
1.0078125
40
1.013671875
40
1.01953125
40
1.03125
40
1.04296875
40
1.0546875
40
1.3125
40
1.59375
40
1.6875
40
1.78125
40
1.828125
40
1.875
40
1.921875
40
1.96875
40
1.98046875
40
1.9921875
40
1.998046875
40
2.00390625
40
2.015625
40
2.0390625
40
2.0625
40
2.109375
40
2.15625
40
2.25
40
2.34375
40
2.4375
40
3
40
3
40
3
40
3
10
-118.21138694704351
20
129.27332104924375
30
1.3322676295501878e-14
10
-117.14112859216013
20
131.07498482650695
30
-4.4408920985006262e-15
10
-115.80837190586115
20
132.88061359041674
30
1.3322676295501878e-14
10
-114.71170709520642
20
134.94510946759067
30
4.4408920985006262e-15
10
-114.57240228739629
20
135.2193048143692
30
4.4408920985006262e-15
10
-114.46422693956134
20
135.4403382435417
30
4.4408920985006262e-15
10
-114.38480546790508
20
135.60697087943399
30
-4.4408920985006262e-15
10
-114.32007987946716
20
135.74662924577797
30
4.4408920985006262e-15
10
-114.26926152212266
20
135.85873152723255
30
4.4408920985006262e-15
10
-114.23779690691033
20
135.92921199040285
30
1.3322676295501878e-14
10
-114.21307926570836
20
135.98522212587923
30
4.4408920985006262e-15
10
-114.19724001551897
20
136.02141224177007
30
-4.4408920985006262e-15
10
-114.18790784938479
20
136.04285359599436
30
-4.4408920985006262e-15
10
-114.18264774309969
20
136.0549738397832
30
4.4408920985006262e-15
10
-114.18152271404564
20
136.05756931777643
30
1.3322676295501878e-14
10
-114.18071489608046
20
136.05945837362248
30
4.4408920985006262e-15
10
-114.17898880872146
20
136.06354299774682
30
4.4408920985006262e-15
10
-114.17662308027573
20
136.06930783513917
30
1.3322676295501878e-14
10
-114.17366366349989
20
136.07678470182697
30
1.3322676295501878e-14
10
-114.16923055465359
20
136.0886121260248
30
1.3322676295501878e-14
10
-114.16410801596142
20
136.10347049790309
30
4.4408920985006262e-15
10
-114.15866023234548
20
136.12131558316543
30
-4.4408920985006262e-15
10
-114.12045219970862
20
136.26441224370467
30
1.3322676295501878e-14
10
-114.16431141924306
20
136.55106658298192
30
4.4408920985006262e-15
10
-114.3454761527544
20
136.89086572507276
30
4.4408920985006262e-15
10
-114.46729259470607
20
137.14546684873446
30
4.4408920985006262e-15
10
-114.51845721790693
20
137.27329282641861
30
1.3322676295501878e-14
10
-114.54955568403787
20
137.37573023904031
30
-4.4408920985006262e-15
10
-114.56696178726189
20
137.4526540789245
30
1.3322676295501878e-14
10
-114.57746915985071
20
137.52948662082119
30
4.4408920985006262e-15
10
-114.57938223064656
20
137.58745917271992
30
-1.3322676295501878e-14
10
-114.57793040749203
20
137.62555877442273
30
4.4408920985006262e-15
10
-114.57676550018847
20
137.64223463788969
30
-4.4408920985006262e-15
10
-114.57573365803631
20
137.65370078874156
30
-1.3322676295501878e-14
10
-114.57379392337593
20
137.67201612306624
30
1.3322676295501878e-14
10
-114.56983318752584
20
137.70718821101565
30
2.2204460492503131e-14
10
-114.56359923625483
20
137.75561580866969
30
4.4408920985006262e-15
10
-114.5520253935334
20
137.83369650261898
30
-4.4408920985006262e-15
10
-114.53486161913767
20
137.93038463789935
30
1.3322676295501878e-14
10
-114.50201661852282
20
138.08409109656293
30
-4.4408920985006262e-15
10
-114.45175126592702
20
138.27415092829892
30
-4.4408920985006262e-15
10
-114.3793945203675
20
138.49962030671645
30
-4.4408920985006262e-15
10
-114.16157089826186
20
139.09542164769505
30
4.4408920985006262e-15
10
-113.91691376791627
20
139.60494725782081
30
4.4408920985006262e-15
10
-113.76497982975762
20
140.05429798769183
30
1.3322676295501878e-14
0
LINE
5
178
100
AcDbEntity
8
0
100
AcDbLine
10
-118.21138694704351
20
129.27332104924375
30
1.3322676295501878e-14
11
-117.35634509026964
21
142.06976209443926
31
1.4432899320127035e-14
0
ARC
5
179
100
AcDbEntity
8
0
100
AcDbCircle
10
-129.57349999536225
20
133.31519819813889
30
4.4408920985006277e-15
40
15.030012075491966
210
-5.0105452045243895e-16
220
-4.4211757149864868e-16
230
1
100
AcDbArc
50
35.624611116198068
51
79.871794351831738
0
LINE
5
180
100
AcDbEntity
8
0
100
AcDbLine
10
-126.93045196932738
20
148.11099355092435
30
6.1095586451611659e-15
11
-120.55975607437739
21
141.28353181071162
31
-4.4408920985006333e-15
0
LINE
5
181
100
AcDbEntity
8
0
100
AcDbLine
10
-103.8149067448592
20
104.48704886677326
30
0
11
-106.05268073066973
21
105.48875860702067
31
-6.9388939039072284e-17
0
LINE
5
182
100
AcDbEntity
8
0
100
AcDbLine
10
-106.05268073066973
20
105.48875860702067
30
-6.9388939039072284e-17
11
-103.80663160393385
21
106.41115875559139
31
-4.3715031594615539e-15
0
LINE
5
183
100
AcDbEntity
8
0
100
AcDbLine
10
-103.80663160393385
20
106.41115875559139
30
-4.3715031594615539e-15
11
-95.889007120268914
21
111.1771513228574
31
-4.4408920985006262e-15
0
LINE
5
184
100
AcDbEntity
8
0
100
AcDbLine
10
-95.889007120268914
20
111.1771513228574
30
-4.4408920985006262e-15
11
-94.283861049767125
21
112.37025906834928
31
4.3715031594615539e-15
0
LINE
5
185
100
AcDbEntity
8
0
100
AcDbLine
10
-94.283861049767125
20
112.37025906834928
30
4.3715031594615539e-15
11
-92.392490139302041
21
112.36212473061315
31
-1.3322134194415636e-14
0
LINE
5
186
100
AcDbEntity
8
0
100
AcDbLine
10
-92.392490139302041
20
112.36212473061315
30
-1.3322134194415636e-14
11
-91.540600320594635
21
114.46254694359598
31
4.3021142204224816e-15
0
SPLINE
5
187
100
AcDbEntity
8
0
100
AcDbSpline
70
0
71
3
72
29
73
25
74
0
42
0.000000001
43
0.0000000001
44
0.0000000001
40
0
40
0
40
0
40
0
40
0.6875
40
0.75
40
0.875
40
0.90625
40
0.9375
40
0.953125
40
0.96875
40
0.984375
40
0.9921875
40
0.99609375
40
1
40
1.00390625
40
1.0078125
40
1.015625
40
1.03125
40
1.046875
40
1.0625
40
1.09375
40
1.125
40
1.3125
40
1.625
40
2
40
2
40
2
40
2
10
-90.996101939194915
20
108.83195891811826
30
4.4408920985006262e-15
10
-90.92361614868085
20
109.69855906246026
30
1.3322676295501878e-14
10
-90.727397148013097
20
110.64469896308796
30
4.4408920985006262e-15
10
-90.656885158244961
20
111.74750487633108
30
4.4408920985006262e-15
10
-90.650905373534769
20
112.02313525640662
30
-1.3322676295501878e-14
10
-90.656594448578403
20
112.25930737777516
30
1.3322676295501878e-14
10
-90.660873260240351
20
112.35771797923425
30
4.4408920985006262e-15
10
-90.66549872362323
20
112.43639765065186
30
4.4408920985006262e-15
10
-90.669597464820001
20
112.49551564315044
30
4.4408920985006262e-15
10
-90.673507209273453
20
112.54442013768016
30
4.4408920985006262e-15
10
-90.676596165344847
20
112.57935219135355
30
4.4408920985006262e-15
10
-90.678337697158199
20
112.59821867006197
30
4.4408920985006262e-15
10
-90.679983268523472
20
112.61545053381958
30
-4.4408920985006262e-15
10
-90.680531075914956
20
112.6209001188689
30
4.4408920985006262e-15
10
-90.681712303251558
20
112.63225751819803
30
-4.4408920985006262e-15
10
-90.683734738401569
20
112.65018170650447
30
1.3322676295501878e-14
10
-90.687116710001575
20
112.67667991379727
30
-4.4408920985006262e-15
10
-90.691752164514583
20
112.70788112050241
30
4.4408920985006262e-15
10
-90.698751601557888
20
112.74941305553385
30
4.4408920985006262e-15
10
-90.708966121373152
20
112.80087613864843
30
-1.3322676295501878e-14
10
-90.747606411409961
20
112.96399426244153
30
4.4408920985006262e-15
10
-90.871540595325342
20
113.29918319621197
30
4.4408920985006262e-15
10
-91.178630314955285
20
113.823235622891
30
4.4408920985006262e-15
10
-91.433000319002929
20
114.23141442823419
30
2.2204460492503131e-14
10
-91.540600320594649
20
114.46254694359598
30
4.4408920985006262e-15
0
SPLINE
5
188
100
AcDbEntity
8
0
100
AcDbSpline
70
0
71
3
72
49
73
45
74
0
42
0.000000001
43
0.0000000001
44
0.0000000001
40
0
40
0
40
0
40
0
40
0.75
40
0.84375
40
0.890625
40
0.9140625
40
0.9375
40
0.9609375
40
0.97265625
40
0.984375
40
0.990234375
40
0.99609375
40
0.9990234375
40
1.00048828125
40
1.001953125
40
1.0078125
40
1.01953125
40
1.03125
40
1.0546875
40
1.078125
40
1.125
40
1.171875
40
1.21875
40
1.59375
40
1.78125
40
1.828125
40
1.875
40
1.921875
40
1.9453125
40
1.96875
40
1.98046875
40
1.9921875
40
1.998046875
40
2.0009765625
40
2.00390625
40
2.015625
40
2.0390625
40
2.0625
40
2.109375
40
2.15625
40
2.25
40
2.34375
40
2.625
40
3
40
3
40
3
40
3
10
-103.8149067448592
20
104.48704886677326
30
0
10
-102.2273276597569
20
105.00866630948929
30
4.4408920985006262e-15
10
-100.74066394360686
20
106.2028324536543
30
-4.4408920985006262e-15
10
-99.141222781550255
20
107.4012415109998
30
-4.4408920985006262e-15
10
-98.844180821845413
20
107.61708912682231
30
4.4408920985006262e-15
10
-98.673545107223944
20
107.73859642159169
30
1.3322676295501878e-14
10
-98.545061084376115
20
107.82870617110824
30
4.4408920985006262e-15
10
-98.437543594795756
20
107.90284478911394
30
4.4408920985006262e-15
10
-98.351191245053272
20
107.9615590740049
30
-4.4408920985006262e-15
10
-98.297166868531761
20
107.9979345747787
30
4.4408920985006262e-15
10
-98.253685989388529
20
108.0269851233368
30
1.3322676295501878e-14
10
-98.226883172495292
20
108.04480007194184
30
4.4408920985006262e-15
10
-98.20728502086385
20
108.05777366428762
30
4.4408920985006262e-15
10
-98.197359526409628
20
108.0643290334792
30
1.3322676295501878e-14
10
-98.189418997342855
20
108.0695796659009
30
1.3322676295501878e-14
10
-98.168169115721057
20
108.08366986762164
30
1.3322676295501878e-14
10
-98.138260721384739
20
108.10365704051711
30
4.4408920985006262e-15
10
-98.088974416127172
20
108.13688790174538
30
-4.4408920985006262e-15
10
-98.028062617791548
20
108.17851325152429
30
-1.3322676295501878e-14
10
-97.930643660478452
20
108.24614802611698
30
4.4408920985006262e-15
10
-97.809527687341799
20
108.3320475836947
30
4.4408920985006262e-15
10
-97.664825211736456
20
108.43693786220851
30
4.4408920985006262e-15
10
-97.184079944885227
20
108.7908438323573
30
4.4408920985006262e-15
10
-96.564078838032316
20
109.26644435461296
30
1.3322676295501878e-14
10
-95.906627062261535
20
109.6600822309739
30
4.4408920985006262e-15
10
-95.591746174174943
20
109.81613028322514
30
-4.4408920985006262e-15
10
-95.431798744990729
20
109.88853656488627
30
4.4408920985006262e-15
10
-95.29626802185328
20
109.94377522025286
30
4.4408920985006262e-15
10
-95.186337176958787
20
109.98467577164595
30
4.4408920985006262e-15
10
-95.117098713083337
20
110.00878156979451
30
4.4408920985006262e-15
10
-95.06108735690745
20
110.02724580693986
30
4.4408920985006262e-15
10
-95.026435403423491
20
110.0382566607645
30
1.3322676295501878e-14
10
-95.001045634164072
20
110.04607016576821
30
-4.4408920985006262e-15
10
-94.988146226152935
20
110.04999714146464
30
4.4408920985006262e-15
10
-94.977389546282836
20
110.05308516626343
30
4.4408920985006262e-15
10
-94.947919023269463
20
110.06052305222698
30
1.3322676295501878e-14
10
-94.902321026493695
20
110.0680146976395
30
4.4408920985006262e-15
10
-94.819873891205063
20
110.07464400120314
30
4.4408920985006262e-15
10
-94.704020037524259
20
110.07207294623686
30
-4.4408920985006262e-15
10
-94.49260748479287
20
110.0473947454058
30
4.4408920985006262e-15
10
-94.186011584587533
20
109.98160298684266
30
-4.4408920985006262e-15
10
-93.48983380327924
20
109.77756494549607
30
-1.3322676295501878e-14
10
-92.207765860509625
20
109.28506775056961
30
4.4408920985006262e-15
10
-91.274105148936826
20
108.90273144042166
30
4.4408920985006262e-15
10
-90.996101939194943
20
108.83195891811825
30
4.4408920985006262e-15
0
LINE
5
189
100
AcDbEntity
8
0
100
AcDbLine
10
-122.5749878095026
20
112.49193249513496
30
1.3322676295501878e-14
11
-120.68361689903752
21
112.48379815739884
31
1.3323218396588121e-14
0
LINE
5
190
100
AcDbEntity
8
0
100
AcDbLine
10
-120.68361689903752
20
112.48379815739884
30
1.3323218396588121e-14
11
-119.08879256390527
21
111.27692809808424
31
-1.3322676295501878e-14
0
LINE
5
191
100
AcDbEntity
8
0
100
AcDbLine
10
-119.08879256390527
20
111.27692809808424
30
-1.3322676295501878e-14
11
-111.21245502172003
21
106.44300944577648
31
1.3322676295501878e-14
0
LINE
5
192
100
AcDbEntity
8
0
100
AcDbLine
10
-111.21245502172003
20
106.44300944577648
30
1.3322676295501878e-14
11
-108.97442288363969
21
105.50132432711216
31
4.4408920985006262e-15
0
LINE
5
193
100
AcDbEntity
8
0
100
AcDbLine
10
-108.97442288363969
20
105.50132432711216
30
4.4408920985006262e-15
11
-111.22073016143021
21
104.51889955695313
31
1.3392065234540951e-14
0
SPLINE
5
194
100
AcDbEntity
8
0
100
AcDbSpline
70
0
71
3
72
49
73
45
74
0
42
0.000000001
43
0.0000000001
44
0.0000000001
40
0
40
0
40
0
40
0
40
0.75
40
0.84375
40
0.890625
40
0.9140625
40
0.9375
40
0.9609375
40
0.97265625
40
0.984375
40
0.990234375
40
0.99609375
40
0.9990234375
40
1.00048828125
40
1.001953125
40
1.0078125
40
1.01953125
40
1.03125
40
1.0546875
40
1.078125
40
1.125
40
1.171875
40
1.21875
40
1.59375
40
1.78125
40
1.828125
40
1.875
40
1.921875
40
1.9453125
40
1.96875
40
1.98046875
40
1.9921875
40
1.998046875
40
2.0009765625
40
2.00390625
40
2.015625
40
2.0390625
40
2.0625
40
2.109375
40
2.15625
40
2.25
40
2.34375
40
2.625
40
3
40
3
40
3
40
3
10
-111.22073016143023
20
104.51889955695313
30
0
10
-112.8037638952661
20
105.05415305347383
30
4.4408920985006262e-15
10
-114.28010115532277
20
106.26106236214424
30
1.3322676295501878e-14
10
-115.86917519452157
20
107.47318446719518
30
-4.4408920985006262e-15
10
-116.16434958144838
20
107.69157906507698
30
4.4408920985006262e-15
10
-116.33393385505283
20
107.81454956533054
30
-4.4408920985006262e-15
10
-116.46163805797428
20
107.90576111964953
30
4.4408920985006262e-15
10
-116.56851387678844
20
107.98082179242999
30
1.3322676295501878e-14
10
-116.65435800905843
20
108.04027665355267
30
-4.4408920985006262e-15
10
-116.7080675080694
20
108.07711549217541
30
-1.3322676295501878e-14
10
-116.75129690433108
20
108.10653896106419
30
-4.4408920985006262e-15
10
-116.77794549681899
20
108.12458379150463
30
-1.3322676295501878e-14
10
-116.79743133284322
20
108.13772547481236
30
1.3322676295501878e-14
10
-116.80730007499568
20
108.14436597432126
30
4.4408920985006262e-15
10
-116.81519514770858
20
108.14968471191068
30
4.4408920985006262e-15
10
-116.8363230482551
20
108.16395717042241
30
4.4408920985006262e-15
10
-116.8660584192058
20
108.18420085700748
30
4.4408920985006262e-15
10
-116.91505707042316
20
108.21785441852472
30
-1.3322676295501878e-14
10
-116.97560858058989
20
108.26000215318774
30
1.3322676295501878e-14
10
-117.07244218264759
20
108.32847236197014
30
1.3322676295501878e-14
10
-117.19281482182431
20
108.41541050479897
30
1.3322676295501878e-14
10
-117.33660974479479
20
108.52154154220521
30
4.4408920985006262e-15
10
-117.81429315271809
20
108.87956948678712
30
-4.4408920985006262e-15
10
-118.43018050977513
20
109.36048527222788
30
1.3322676295501878e-14
10
-119.08422214112271
20
109.75976357070439
30
4.4408920985006262e-15
10
-119.39774915449414
20
109.91851425630915
30
1.3322676295501878e-14
10
-119.55706787386086
20
109.99229362595938
30
-4.4408920985006262e-15
10
-119.69211845546155
20
110.04869598734768
30
4.4408920985006262e-15
10
-119.80169343310975
20
110.09054058122642
30
1.3322676295501878e-14
10
-119.87072199287873
20
110.11524103305284
30
1.3322676295501878e-14
10
-119.92657245938548
20
110.13418636136883
30
1.3322676295501878e-14
10
-119.96112842261896
20
110.14549486203023
30
-4.4408920985006262e-15
10
-119.98645004582799
20
110.15352646470643
30
4.4408920985006262e-15
10
-119.99931519930102
20
110.15756424767159
30
-4.4408920985006262e-15
10
-120.01004492002198
20
110.16074468038366
30
4.4408920985006262e-15
10
-120.03945037686499
20
110.16843577797385
30
-4.4408920985006262e-15
10
-120.08498224847116
20
110.17631935133824
30
4.4408920985006262e-15
10
-120.16736931276901
20
110.18365756770292
30
4.4408920985006262e-15
10
-120.28324099531964
20
110.18208310931288
30
4.4408920985006262e-15
10
-120.49485799363754
20
110.15922425825693
30
-4.4408920985006262e-15
10
-120.80200845114724
20
110.09607207722475
30
1.3322676295501878e-14
10
-121.49991548513466
20
109.89802966405328
30
1.3322676295501878e-14
10
-122.78617215000487
20
109.41657822417093
30
4.4408920985006262e-15
10
-123.72308693795709
20
109.04228681562839
30
-4.4408920985006262e-15
10
-124.00168860409147
20
108.973908118894
30
4.4408920985006262e-15
0
SPLINE
5
195
100
AcDbEntity
8
0
100
AcDbSpline
70
0
71
3
72
29
73
25
74
0
42
0.000000001
43
0.0000000001
44
0.0000000001
40
0
40
0
40
0
40
0
40
0.6875
40
0.75
40
0.875
40
0.90625
40
0.9375
40
0.953125
40
0.96875
40
0.984375
40
0.9921875
40
0.99609375
40
1
40
1.00390625
40
1.0078125
40
1.015625
40
1.03125
40
1.046875
40
1.0625
40
1.09375
40
1.125
40
1.3125
40
1.625
40
2
40
2
40
2
40
2
10
-124.00168860409151
20
108.973908118894
30
4.4408920985006262e-15
10
-124.0667177676489
20
109.84109968244098
30
4.4408920985006262e-15
10
-124.25479141356439
20
110.78889233460436
30
-4.4408920985006262e-15
10
-124.315815156982
20
111.89226395184143
30
4.4408920985006262e-15
10
-124.31942392254236
20
112.16793556999775
30
4.4408920985006262e-15
10
-124.31170365495663
20
112.40405002096369
30
-4.4408920985006262e-15
10
-124.30657853591862
20
112.50242017834708
30
4.4408920985006262e-15
10
-124.30127649094565
20
112.58105715390559
30
4.4408920985006262e-15
10
-124.29666940584565
20
112.64013770470994
30
4.4408920985006262e-15
10
-124.29233916053772
20
112.68900676099783
30
4.4408920985006262e-15
10
-124.28894985533486
20
112.72391095320584
30
4.4408920985006262e-15
10
-124.28704611044536
20
112.74276175444368
30
4.4408920985006262e-15
10
-124.28525238237648
20
112.75997882659006
30
-4.4408920985006262e-15
10
-124.28465772137099
20
112.76542349815375
30
-4.4408920985006262e-15
10
-124.28337884857567
20
112.77677031717562
30
4.4408920985006262e-15
10
-124.28120231572595
20
112.79467644671649
30
4.4408920985006262e-15
10
-124.27759254843835
20
112.82114458419849
30
-1.3322676295501878e-14
10
-124.27268889238512
20
112.85230476545136
30
4.4408920985006262e-15
10
-124.26533248286957
20
112.89377495939132
30
4.4408920985006262e-15
10
-124.25467568807044
20
112.94514827993147
30
1.3322676295501878e-14
10
-124.21463378865153
20
113.10792801028771
30
1.3322676295501878e-14
10
-124.08782110646666
20
113.44203854125305
30
-4.4408920985006262e-15
10
-123.77623517979853
20
113.96343019070002
30
-4.4408920985006262e-15
10
-123.51836368997739
20
114.36940596685915
30
-4.4408920985006262e-15
10
-123.40877961327595
20
114.59960442500672
30
4.4408920985006262e-15
0
LINE
5
196
100
AcDbEntity
8
0
100
AcDbLine
10
-123.40877961327595
20
114.59960442500673
30
4.4408920985006262e-15
11
-122.5749878095026
21
112.49193249513496
31
1.3322676295501878e-14
0
SPLINE
5
197
100
AcDbEntity
8
0
100
AcDbSpline
70
0
71
3
72
82
73
78
74
0
42
0.000000001
43
0.0000000001
44
0.0000000001
40
0
40
0
40
0
40
0
40
0.375
40
0.5625
40
0.75
40
0.84375
40
0.9375
40
0.984375
40
0.99609375
40
1.0078125
40
1.03125
40
1.078125
40
1.125
40
1.21875
40
1.3125
40
1.5
40
1.6875
40
1.875
40
1.96875
40
2.0625
40
2.25
40
2.4375
40
2.625
40
2.71875
40
2.8125
40
2.90625
40
2.953125
40
2.9765625
40
3
40
3.0234375
40
3.046875
40
3.09375
40
3.1875
40
3.28125
40
3.375
40
3.46875
40
3.75
40
3.84375
40
3.890625
40
3.9140625
40
3.9375
40
3.9609375
40
3.97265625
40
3.984375
40
3.990234375
40
3.99609375
40
3.9990234375
40
4.00048828125
40
4.001953125
40
4.0078125
40
4.01953125
40
4.03125
40
4.0546875
40
4.078125
40
4.125
40
4.171875
40
4.21875
40
4.40625
40
4.5
40
4.59375
40
4.6875
40
4.78125
40
4.875
40
4.921875
40
4.96875
40
4.9921875
40
4.998046875
40
5.00390625
40
5.015625
40
5.0390625
40
5.0625
40
5.109375
40
5.15625
40
5.25
40
5.34375
40
5.4375
40
6
40
6
40
6
40
6
10
-109.52500741970967
20
102.83571884114166
30
4.4408920985006262e-15
10
-109.65302996539344
20
102.70879276897108
30
8.8817841970012523e-15
10
-109.89118309088269
20
102.57246707718046
30
0
10
-110.2256080168564
20
102.41200572536975
30
4.4408920985006262e-15
10
-110.4257834128195
20
102.30272891895878
30
4.4408920985006262e-15
10
-110.57156950912133
20
102.19860392409529
30
0
10
-110.65392722588916
20
102.12531746001652
30
-1.7763568394002505e-14
10
-110.70384630239757
20
102.07057474858573
30
8.8817841970012523e-15
10
-110.72450588678481
20
102.04581432514935
30
4.4408920985006262e-15
10
-110.7413270084247
20
102.02485489075819
30
4.4408920985006262e-15
10
-110.77130659592255
20
101.98548268939217
30
0
10
-110.81049929265275
20
101.9283642673912
30
8.8817841970012523e-15
10
-110.86831347058427
20
101.83276723054561
30
-8.8817841970012523e-15
10
-110.93158864838465
20
101.70750379057171
30
1.3322676295501878e-14
10
-111.01921228990702
20
101.49781559186842
30
-4.4408920985006262e-15
10
-111.11265114293893
20
101.22526440452179
30
-4.4408920985006262e-15
10
-111.22997327348563
20
100.90286857386069
30
1.3322676295501878e-14
10
-111.35769175998976
20
100.65588014093768
30
-8.8817841970012523e-15
10
-111.49343519787841
20
100.48218118318769
30
0
10
-111.65612220359864
20
100.32736986767149
30
0
10
-111.87651035265608
20
100.1469661986911
30
8.8817841970012523e-15
10
-112.16856607249353
20
99.961937457605146
30
1.3322676295501878e-14
10
-112.42824032461762
20
99.837335211741816
30
4.4408920985006262e-15
10
-112.64293880208299
20
99.758305663898739
30
-8.8817841970012523e-15
10
-112.8065048033173
20
99.710017515452762
30
4.4408920985006262e-15
10
-112.9446788368905
20
99.679455304679749
30
-4.4408920985006262e-15
10
-113.04126837410386
20
99.663529429331774
30
-4.4408920985006262e-15
10
-113.09749932741806
20
99.655899668298105
30
4.4408920985006262e-15
10
-113.13702904740749
20
99.651298594322881
30
8.8817841970012523e-15
10
-113.18680312184561
20
99.646292181575191
30
4.4408920985006262e-15
10
-113.25006810430672
20
99.640663879370237
30
-8.8817841970012523e-15
10
-113.36328320696944
20
99.632593236140906
30
8.8817841970012523e-15
10
-113.52623558042987
20
99.626880918172702
30
-4.4408920985006262e-15
10
-113.72394344963404
20
99.629879906868553
30
8.8817841970012523e-15
10
-113.92186106914849
20
99.64348332331528
30
1.3322676295501878e-14
10
-114.2497853877265
20
99.684989566990339
30
4.4408920985006262e-15
10
-114.56874549214584
20
99.76653096290292
30
8.8817841970012523e-15
10
-114.83429750373335
20
99.882316579962378
30
-4.4408920985006262e-15
10
-114.93377424197615
20
99.933836152056017
30
0
10
-114.98944265640984
20
99.965176273739118
30
8.8817841970012523e-15
10
-115.03057754202807
20
99.989638842921593
30
0
10
-115.0643416491036
20
100.01084425854987
30
1.3322676295501878e-14
10
-115.09099125442364
20
100.02827716783261
30
4.4408920985006262e-15
10
-115.10758129080779
20
100.03943058007431
30
4.4408920985006262e-15
10
-115.1205993141497
20
100.04835856995243
30
4.4408920985006262e-15
10
-115.12908479500091
20
100.05426191905968
30
-4.4408920985006262e-15
10
-115.13423398942416
20
100.05787757057482
30
1.7763568394002505e-14
10
-115.13837830051153
20
100.06080264486663
30
4.4408920985006262e-15
10
-115.15113105567265
20
100.06983452846811
30
0
10
-115.17486579501576
20
100.08680201717087
30
-4.4408920985006262e-15
10
-115.21370639418053
20
100.11509959829749
30
4.4408920985006262e-15
10
-115.27387009900519
20
100.16013693881725
30
4.4408920985006262e-15
10
-115.34856542781606
20
100.21822112035686
30
-4.4408920985006262e-15
10
-115.46569621008473
20
100.31393148388469
30
1.3322676295501878e-14
10
-115.60831989973748
20
100.43902088193536
30
0
10
-115.77341706134226
20
100.59712201336646
30
0
10
-116.09201994767567
20
100.92819852273811
30
0
10
-116.43103801081168
20
101.35433012266051
30
8.8817841970012523e-15
10
-116.78021630273471
20
101.87706483391634
30
-4.4408920985006262e-15
10
-117.02459601543052
20
102.28222995885017
30
-8.8817841970012523e-15
10
-117.25311754269987
20
102.69578984934832
30
4.4408920985006262e-15
10
-117.46737611881886
20
103.11291394851629
30
8.8817841970012523e-15
10
-117.63552652046855
20
103.45980849459835
30
0
10
-117.76434627102637
20
103.73391559003245
30
4.4408920985006262e-15
10
-117.84324670934245
20
103.90461796277347
30
-1.3322676295501878e-14
10
-117.89265214201633
20
104.01245416103311
30
0
10
-117.91626273280828
20
104.06414746361051
30
1.3322676295501878e-14
10
-117.92952924464021
20
104.09322521841614
30
-4.4408920985006262e-15
10
-117.95155632412686
20
104.14156565534458
30
4.4408920985006262e-15
10
-117.98356300021538
20
104.21198792403784
30
8.8817841970012523e-15
10
-118.03429335916887
20
104.32398110309893
30
4.4408920985006262e-15
10
-118.09756874296377
20
104.46434149438772
30
4.4408920985006262e-15
10
-118.19824478592531
20
104.68899917050987
30
4.4408920985006262e-15
10
-118.3232542378508
20
104.97025436999536
30
1.7763568394002505e-14
10
-118.47213550764458
20
105.3082414237534
30
4.4408920985006262e-15
10
-118.86684313153734
20
106.2105918260124
30
0
10
-119.20717723045358
20
107.00239770516752
30
1.3322676295501878e-14
10
-119.50427146801425
20
107.67868167955122
30
-4.4408920985006262e-15
0
LINE
5
198
100
AcDbEntity
8
0
100
AcDbLine
10
-119.50427146801425
20
107.67868167955122
30
-4.4408920985006333e-15
11
-121.10253638178996
21
108.08555913701659
31
-4.4408920985006262e-15
0
SPLINE
5
199
100
AcDbEntity
8
0
100
AcDbSpline
70
0
71
3
72
29
73
25
74
0
42
0.000000001
43
0.0000000001
44
0.0000000001
40
0
40
0
40
0
40
0
40
0.6875
40
0.75
40
0.875
40
0.90625
40
0.9375
40
0.953125
40
0.96875
40
0.984375
40
0.9921875
40
0.99609375
40
1
40
1.00390625
40
1.0078125
40
1.015625
40
1.03125
40
1.046875
40
1.0625
40
1.09375
40
1.125
40
1.1875
40
1.625
40
2
40
2
40
2
40
2
10
-121.10253638178997
20
108.0855591370166
30
4.4408920985006262e-15
10
-119.00458652764317
20
109.12327978441115
30
-1.3322676295501878e-14
10
-116.97202284589144
20
107.11961444314366
30
2.2204460492503131e-14
10
-114.96437040306847
20
104.97946140518096
30
1.7763568394002505e-14
10
-114.4853969712068
20
104.48055896670759
30
0
10
-114.09155513548615
20
104.1127466203051
30
4.4408920985006262e-15
10
-113.93023208371737
20
103.97086432607642
30
0
10
-113.80289846979056
20
103.86506680993968
30
8.8817841970012523e-15
10
-113.70813289588524
20
103.78969629223143
30
0
10
-113.63021562238983
20
103.73068145855805
30
4.4408920985006262e-15
10
-113.57535996025771
20
103.69086021044166
30
-4.4408920985006262e-15
10
-113.54518899099803
20
103.66941196987005
30
8.8817841970012523e-15
10
-113.51960250590508
20
103.65154863734703
30
-4.4408920985006262e-15
10
-113.50558007782018
20
103.64187948735427
30
8.8817841970012523e-15
10
-113.48289715873949
20
103.62630379842133
30
1.3322676295501878e-14
10
-113.44517420089065
20
103.6007226859663
30
1.3322676295501878e-14
10
-113.39057729795024
20
103.56451461025067
30
0
10
-113.32590137160668
20
103.5229671587648
30
0
10
-113.24005967985515
20
103.46957187578603
30
8.8817841970012523e-15
10
-113.13377846880057
20
103.40673320976776
30
4.4408920985006262e-15
10
-112.96559787501359
20
103.31410862630048
30
4.4408920985006262e-15
10
-112.26185281130726
20
102.9690377598067
30
0
10
-111.17982284504998
20
102.79144631178106
30
8.8817841970012523e-15
10
-110.0861824309949
20
102.83813232171404
30
4.4408920985006262e-15
10
-109.52500741970967
20
102.83571884114166
30
4.4408920985006262e-15
0
SPLINE
5
200
100
AcDbEntity
8
0
100
AcDbSpline
70
0
71
3
72
8
73
4
74
0
42
0.000000001
43
0.0000000001
44
0.0000000001
40
0.061177078763281836
40
0.061177078763281836
40
0.061177078763281836
40
0.061177078763281836
40
1
40
1
40
1
40
1
10
-107.56664011214367
20
93.151114336391032
30
4.4408920985006262e-15
10
-105.69439661579108
20
92.806192156476499
30
-4.4408920985006262e-15
10
-106.36870188895773
20
93.224443786767239
30
4.4408920985006262e-15
10
-105.17149591967447
20
92.016895540182617
30
4.4408920985006262e-15
0
SPLINE
5
201
100
AcDbEntity
8
0
100
AcDbSpline
70
0
71
3
72
8
73
4
74
0
42
0.000000001
43
0.0000000001
44
0.0000000001
40
0.061177079633497528
40
0.061177079633497528
40
0.061177079633497528
40
0.061177079633497528
40
1
40
1
40
1
40
1
10
-107.56664011214367
20
93.151114336391032
30
4.4408920985006262e-15
10
-109.44178114535553
20
92.822308769237324
30
0
10
-108.76390328330105
20
93.234744979090777
30
4.4408920985006262e-15
10
-109.97145152853582
20
92.037539010362622
30
4.4408920985006262e-15
0
LINE
5
202
100
AcDbEntity
8
0
100
AcDbLine
10
-109.97145152853582
20
92.037539010362636
30
4.4408920985006246e-15
11
-110.3645666740335
21
93.639244503158466
31
4.4408920985006262e-15
0
LINE
5
203
100
AcDbEntity
8
0
100
AcDbLine
10
-110.3645666740335
20
93.639244503158466
30
4.4408920985006262e-15
11
-107.54394909738161
21
98.427158087103265
31
8.8817841970012523e-15
0
LINE
5
204
100
AcDbEntity
8
0
100
AcDbLine
10
-107.54394909738161
20
98.427158087103265
30
8.8817841970012523e-15
11
-104.76461846219874
21
93.615160453960172
31
4.4408920985006262e-15
0
LINE
5
205
100
AcDbEntity
8
0
100
AcDbLine
10
-104.76461846219874
20
93.615160453960172
30
4.4408920985006262e-15
11
-105.17149591967447
21
92.016895540182617
31
4.4408920985006277e-15
0
LINE
5
206
100
AcDbEntity
8
0
100
AcDbLine
10
-93.90278793004326
20
107.96857946950678
30
-4.4408920985006262e-15
11
-95.504493422273356
21
107.57546432586574
31
-4.4408920985006262e-15
0
SPLINE
5
207
100
AcDbEntity
8
0
100
AcDbSpline
70
0
71
3
72
82
73
78
74
0
42
0.000000001
43
0.0000000001
44
0.0000000001
40
0
40
0
40
0
40
0
40
0.375
40
0.5625
40
0.75
40
0.84375
40
0.9375
40
0.984375
40
0.99609375
40
1.0078125
40
1.03125
40
1.078125
40
1.125
40
1.21875
40
1.3125
40
1.5
40
1.6875
40
1.875
40
1.96875
40
2.0625
40
2.25
40
2.4375
40
2.625
40
2.71875
40
2.8125
40
2.90625
40
2.953125
40
2.9765625
40
3
40
3.0234375
40
3.046875
40
3.09375
40
3.1875
40
3.28125
40
3.375
40
3.46875
40
3.75
40
3.84375
40
3.890625
40
3.9140625
40
3.9375
40
3.9609375
40
3.97265625
40
3.984375
40
3.990234375
40
3.99609375
40
3.9990234375
40
4.00048828125
40
4.001953125
40
4.0078125
40
4.01953125
40
4.03125
40
4.0546875
40
4.078125
40
4.125
40
4.171875
40
4.21875
40
4.40625
40
4.5
40
4.59375
40
4.6875
40
4.78125
40
4.875
40
4.921875
40
4.96875
40
4.9921875
40
4.998046875
40
5.00390625
40
5.015625
40
5.0390625
40
5.0625
40
5.109375
40
5.15625
40
5.25
40
5.34375
40
5.4375
40
6
40
6
40
6
40
6
10
-105.5250444120397
20
102.81851594886052
30
8.8817841970012523e-15
10
-105.3981183398989
20
102.69049340314729
30
0
10
-105.16114661152544
20
102.55212431203886
30
8.8817841970012523e-15
10
-104.82811424365586
20
102.38879238469877
30
1.3322676295501878e-14
10
-104.62888618254064
20
102.27779783873977
30
4.4408920985006262e-15
10
-104.48400109647417
20
102.17242273605535
30
8.8817841970012523e-15
10
-104.40227679006287
20
102.09843059410787
30
-4.4408920985006262e-15
10
-104.35283042231211
20
102.04326053546644
30
-8.8817841970012523e-15
10
-104.33238457565221
20
102.01832332731954
30
4.4408920985006262e-15
10
-104.31574435604537
20
101.99721998363522
30
4.4408920985006262e-15
10
-104.28610453230307
20
101.95759137332054
30
4.4408920985006262e-15
10
-104.24740458189306
20
101.90013795351692
30
-4.4408920985006262e-15
10
-104.19041480780804
20
101.80404717210017
30
8.8817841970012523e-15
10
-104.12821940747855
20
101.67824411292582
30
-4.4408920985006262e-15
10
-104.04240261243545
20
101.46780998803727
30
4.4408920985006262e-15
10
-103.9513115286121
20
101.1944651811946
30
0
10
-103.8367667828244
20
100.87107214608699
30
1.3322676295501878e-14
10
-103.71117745899413
20
100.62299429634515
30
-8.8817841970012523e-15
10
-103.57693309099851
20
100.4481341850713
30
8.8817841970012523e-15
10
-103.41558369234464
20
100.29192926582702
30
8.8817841970012523e-15
10
-103.19675541407364
20
100.10963663115544
30
0
10
-102.90630199812149
20
99.922102656421927
30
-8.8817841970012523e-15
10
-102.64770910157591
20
99.795271466462339
30
4.4408920985006262e-15
10
-102.43369832844328
20
99.714398141803315
30
4.4408920985006262e-15
10
-102.27055372198096
20
99.664704888515004
30
-8.8817841970012523e-15
10
-102.13264767658083
20
99.632955322796334
30
0
10
-102.03619869674212
20
99.616199234566778
30
4.4408920985006262e-15
10
-101.98003544991961
20
99.608086092733259
30
0
10
-101.94054676775492
20
99.603145179350065
30
8.8817841970012523e-15
10
-101.89081759657248
20
99.597710826740737
30
1.3322676295501878e-14
10
-101.82760336552789
20
99.591538567433773
30
0
10
-101.71446186952885
20
99.582494418155406
30
-4.4408920985006262e-15
10
-101.55156465781489
20
99.575380698398533
30
8.8817841970012523e-15
10
-101.35383830690563
20
99.576679018293234
30
4.4408920985006262e-15
10
-101.15581100087465
20
99.588579569515886
30
8.8817841970012523e-15
10
-100.82754180259884
20
99.627263680495133
30
4.4408920985006262e-15
10
-100.50789212985266
20
99.706058567206242
30
1.3322676295501878e-14
10
-100.24135402714296
20
99.819555790872357
30
8.8817841970012523e-15
10
-100.14143783006097
20
99.870217821238398
30
8.8817841970012523e-15
10
-100.08550190706201
20
99.901077959133815
30
4.4408920985006262e-15
10
-100.04415813159812
20
99.925185807155287
30
0
10
-100.01021287798564
20
99.946100020880948
30
0
10
-99.983414311655963
20
99.963303062252947
30
-4.4408920985006262e-15
10
-99.966728954390248
20
99.974313364918004
30
4.4408920985006262e-15
10
-99.953634619702868
20
99.983129051736938
30
8.8817841970012523e-15
10
-99.945098675880516
20
99.988959195733429
30
-4.4408920985006262e-15
10
-99.939918572394362
20
99.992530423387876
30
8.8817841970012523e-15
10
-99.93574925497883
20
99.995419742735109
30
-4.4408920985006262e-15
10
-99.922919285031369
20
100.00434160110302
30
0
10
-99.899039480103667
20
100.02110431094295
30
1.3322676295501878e-14
10
-99.859956919878371
20
100.04906676304095
30
0
10
-99.799408057979676
20
100.09358494743894
30
0
10
-99.724215888992447
20
100.15102449839725
30
8.8817841970012523e-15
10
-99.606266199753549
20
100.24572383656782
30
4.4408920985006262e-15
10
-99.462571846329325
20
100.36958184861726
30
4.4408920985006262e-15
10
-99.296120906280905
20
100.52625707029172
30
4.4408920985006262e-15
10
-98.97468209541772
20
100.85458091211339
30
0
10
-98.632011259278727
20
101.27778072974657
30
0
10
-98.278349651429892
20
101.79749269327613
30
-4.4408920985006262e-15
10
-98.030494005165352
20
102.20054083066756
30
0
10
-97.798423751238289
20
102.61211982514688
30
-4.4408920985006262e-15
10
-97.580585263774879
20
103.02738557731874
30
0
10
-97.409457315258678
20
103.37282096767863
30
0
10
-97.278284634444091
20
103.64580989732414
30
4.4408920985006262e-15
10
-97.197918841161368
20
103.815827303774
30
1.3322676295501878e-14
10
-97.147587697441722
20
103.92323455867165
30
-4.4408920985006262e-15
10
-97.123533347017243
20
103.97472286564093
30
8.8817841970012523e-15
10
-97.110017217517168
20
104.00368543465781
30
4.4408920985006262e-15
10
-97.087575159046636
20
104.05183462037004
30
8.8817841970012523e-15
10
-97.054963939213778
20
104.12197898281747
30
4.4408920985006262e-15
10
-97.003272162510982
20
104.23353166856313
30
-4.4408920985006262e-15
10
-96.938791828246224
20
104.37334261280657
30
4.4408920985006262e-15
10
-96.836187146506802
20
104.59712602674099
30
0
10
-96.708763139908896
20
104.87729556978742
30
4.4408920985006262e-15
10
-96.556980227043312
20
105.21398953820018
30
8.8817841970012523e-15
10
-96.154525757743158
20
106.112911535348
30
-4.4408920985006262e-15
10
-95.807393635978173
20
106.90176078532468
30
4.4408920985006262e-15
10
-95.504493422273327
20
107.57546432586572
30
1.3322676295501878e-14
0
SPLINE
5
208
100
AcDbEntity
8
0
100
AcDbSpline
70
0
71
3
72
29
73
25
74
0
42
0.000000001
43
0.0000000001
44
0.0000000001
40
0
40
0
40
0
40
0
40
0.6875
40
0.75
40
0.875
40
0.90625
40
0.9375
40
0.953125
40
0.96875
40
0.984375
40
0.9921875
40
0.99609375
40
1
40
1.00390625
40
1.0078125
40
1.015625
40
1.03125
40
1.046875
40
1.0625
40
1.09375
40
1.125
40
1.1875
40
1.625
40
2
40
2
40
2
40
2
10
-93.90278793004326
20
107.96857946950678
30
-4.4408920985006262e-15
10
-95.991734360201662
20
109.02430696487293
30
-4.4408920985006262e-15
10
-98.041457112596618
20
107.03819856942033
30
-4.4408920985006262e-15
10
-100.06744352830484
20
104.91539325558688
30
8.8817841970012523e-15
10
-100.55069048453879
20
104.42062909880647
30
-4.4408920985006262e-15
10
-100.94768143991848
20
104.05621793668783
30
4.4408920985006262e-15
10
-101.11021890557987
20
103.91572848973917
30
0
10
-101.23845781234678
20
103.81103013040338
30
1.7763568394002505e-14
10
-101.3338681700956
20
103.73647751427582
30
0
10
-101.41229016945992
20
103.67813505873826
30
-4.4408920985006262e-15
10
-101.46748631950058
20
103.63878711736658
30
0
10
-101.49784065684247
20
103.61759918178475
30
0
10
-101.52357984450057
20
103.59995658880804
30
1.3322676295501878e-14
10
-101.53768492176538
20
103.59040840854516
30
1.3322676295501878e-14
10
-101.56050097396003
20
103.57502839989735
30
-8.8817841970012523e-15
10
-101.59844256887075
20
103.54977270273942
30
0
10
-101.65334889107149
20
103.5140355744258
30
4.4408920985006262e-15
10
-101.71837978975606
20
103.47304596123362
30
-4.4408920985006262e-15
10
-101.80467757841737
20
103.4203910093362
30
4.4408920985006262e-15
10
-101.91149535627348
20
103.35846883153155
30
1.7763568394002505e-14
10
-102.08046642664819
20
103.26729425741433
30
0
10
-102.78715353813205
20
102.92828932521368
30
4.4408920985006262e-15
10
-103.87067100661122
20
102.76001138313248
30
0
10
-104.96386940075509
20
102.81610246815777
30
1.3322676295501878e-14
10
-105.52504441203972
20
102.81851594886052
30
8.8817841970012523e-15
0
ENDSEC
0
SECTION
2
OBJECTS
0
DICTIONARY
5
C
100
AcDbDictionary
3
ACAD_GROUP
350
D
3
ACAD_MLINESTYLE
350
17
0
DICTIONARY
5
D
100
AcDbDictionary
0
DICTIONARY
5
1A
330
C
100
AcDbDictionary
0
DICTIONARY
5
17
100
AcDbDictionary
0
ENDSEC
0
EOF
