0
SECTION
2
HEADER
9
$INSUNITS
70
4
9
$ACADVER
1
AC1014
9
$HANDSEED
5
FFFF
0
ENDSEC
0
SECTION
2
TABLES
0
TABLE
2
VPORT
5
8
100
AcDbSymbolTable
0
ENDTAB
0
TABLE
2
LTYPE
5
5
100
AcDbSymbolTable
0
LTYPE
5
14
100
AcDbSymbolTableRecord
100
AcDbLinetypeTableRecord
2
BYBLOCK
70
0
0
LTYPE
5
15
100
AcDbSymbolTableRecord
100
AcDbLinetypeTableRecord
2
BYLAYER
70
0
0
ENDTAB
0
TABLE
2
LAYER
5
2
100
AcDbSymbolTable
70
2
0
LAYER
5
50
100
AcDbSymbolTableRecord
100
AcDbLayerTableRecord
2
0
70
0
6
CONTINUOUS
0
ENDTAB
0
TABLE
2
STYLE
5
3
100
AcDbSymbolTable
70
1
0
STYLE
5
11
100
AcDbSymbolTableRecord
100
AcDbTextStyleTableRecord
2
STANDARD
70
0
0
ENDTAB
0
TABLE
2
VIEW
5
6
100
AcDbSymbolTable
70
0
0
ENDTAB
0
TABLE
2
UCS
5
7
100
AcDbSymbolTable
70
0
0
ENDTAB
0
TABLE
2
APPID
5
9
100
AcDbSymbolTable
70
2
0
APPID
5
12
100
AcDbSymbolTableRecord
100
AcDbRegAppTableRecord
2
ACAD
70
0
0
ENDTAB
0
TABLE
2
DIMSTYLE
5
A
100
AcDbSymbolTable
70
1
0
ENDTAB
0
TABLE
2
BLOCK_RECORD
5
1
100
AcDbSymbolTable
70
1
0
BLOCK_RECORD
5
1F
100
AcDbSymbolTableRecord
100
AcDbBlockTableRecord
2
*MODEL_SPACE
0
BLOCK_RECORD
5
1B
100
AcDbSymbolTableRecord
100
AcDbBlockTableRecord
2
*PAPER_SPACE
0
ENDTAB
0
ENDSEC
0
SECTION
2
BLOCKS
0
BLOCK
5
20
100
AcDbEntity
100
AcDbBlockBegin
2
*MODEL_SPACE
0
ENDBLK
5
21
100
AcDbEntity
100
AcDbBlockEnd
0
BLOCK
5
1C
100
AcDbEntity
100
AcDbBlockBegin
2
*PAPER_SPACE
0
ENDBLK
5
1D
100
AcDbEntity
100
AcDbBlockEnd
0
ENDSEC
0
SECTION
2
ENTITIES
0
LWPOLYLINE
5
100
100
AcDbEntity
8
0
100
AcDbPolyline
90
34
70
1
43
0.0
10
-186.06372982104929
20
196.69906318418825
10
-181.07372982087472
20
196.69906318416807
10
-181.07372982100156
20
188.69906318418265
10
-186.06372982093046
20
188.69906318420283
10
-186.06372982117963
20
164.44906318413305
10
-181.07372982109962
20
164.44906318416804
10
-181.07372982114808
20
152.44906318409824
10
-186.0637298211833
20
152.44906318420288
10
-186.06372982129002
20
137.14906318373286
10
-195.3583387079014
20
137.14906318377044
10
-195.35833870793323
20
129.27406997224034
10
-157.36286487961635
20
84.429197195702159
10
-54.764594763078236
20
84.429197195285667
10
-16.769120934710461
20
129.27406997151834
10
-16.769120934678622
20
137.14906318304847
10
-26.063729821289989
20
137.14906318355534
10
-26.063729821273007
20
152.44906318355606
10
-31.053729821308202
20
152.4490631834918
10
-31.05372982125969
20
164.44906318356161
10
-26.063729821179678
20
164.44906318348626
10
-26.063729821232812
20
188.69906318355604
10
-31.053729821161653
20
188.69906318357621
10
-31.053729821223818
20
196.69906318356163
10
-26.063729821049257
20
196.69906318354145
10
-26.063729821198454
20
219.64906318355585
10
-16.769120934215906
20
219.27406997151834
10
-18.19582045650429
20
228.70974760753072
10
-45.363159061424497
20
252.30069811564317
10
-81.794500845638879
20
318.77879908908596
10
-130.33295879547265
20
318.77879908928213
10
-166.76430058022447
20
252.30069811613401
10
-193.93163918533546
20
228.70974760824114
10
-195.35833870770011
20
219.2740699722404
10
-186.06372982119848
20
219.64906318373329
0
LWPOLYLINE
5
101
100
AcDbEntity
8
0
100
AcDbPolyline
90
4
70
1
43
0.0
10
-157.27372982087471
20
196.69906318400206
10
-157.27372982090705
20
188.69906318408647
10
-162.26372982093042
20
188.69906318403685
10
-162.26372982096919
20
196.69906318409204
0
LWPOLYLINE
5
102
100
AcDbEntity
8
0
100
AcDbPolyline
90
4
70
1
43
0.0
10
-49.863729821129361
20
196.69906318363763
10
-49.863729821232788
20
188.69906318358247
10
-54.853729821256181
20
188.69906318367242
10
-54.853729821223844
20
196.69906318358801
0
LWPOLYLINE
5
103
100
AcDbEntity
8
0
100
AcDbPolyline
90
4
70
1
43
0.0
10
-83.485784621199542
20
111.38019457255763
10
-127.48578462119953
20
111.38019457273549
10
-127.48578462111058
20
133.38019457273549
10
-83.485784621110625
20
133.38019457255763
0
LWPOLYLINE
5
104
100
AcDbEntity
8
0
100
AcDbPolyline
90
4
70
1
43
0.0
10
-49.86372982130824
20
152.44906318356783
10
-54.853729821273035
20
152.44906318358801
10
-54.853729821354221
20
164.44906318360265
10
-49.863729821259724
20
164.44906318358247
0
LWPOLYLINE
5
105
100
AcDbEntity
8
0
100
AcDbPolyline
90
4
70
1
43
0.0
10
-157.27372982118328
20
152.44906318400206
10
-162.2637298211481
20
152.44906318402224
10
-162.26372982109956
20
164.44906318403685
10
-157.27372982100508
20
164.44906318401667
0
LWPOLYLINE
5
106
100
AcDbEntity
8
0
100
AcDbPolyline
90
4
70
1
43
0.0
10
-98.563729821108396
20
300.84210380543772
10
-98.563729821128604
20
295.84210380539372
10
-113.56372982111394
20
295.84210380545431
10
-113.56372982109372
20
300.84210380549837
0
SPLINE
5
107
100
AcDbEntity
8
0
100
AcDbSpline
70
0
71
3
72
75
73
71
74
0
42
0.000000001
43
0.0000000001
44
0.0000000001
40
0
40
0
40
0
40
0
40
0.5
40
0.625
40
0.75
40
0.8125
40
0.875
40
0.90625
40
0.9375
40
0.96875
40
0.984375
40
0.9921875
40
1
40
1.0078125
40
1.015625
40
1.03125
40
1.0625
40
1.09375
40
1.125
40
1.1875
40
1.25
40
1.625
40
1.921875
40
1.9609375
40
1.9765625
40
1.984375
40
1.98828125
40
1.9921875
40
1.994140625
40
1.99609375
40
1.998046875
40
1.9990234375
40
1.99951171875
40
2
40
2.00048828125
40
2.0009765625
40
2.001953125
40
2.00390625
40
2.005859375
40
2.0078125
40
2.01171875
40
2.015625
40
2.0390625
40
2.078125
40
2.1875
40
2.4375
40
2.8125
40
2.875
40
2.90625
40
2.9375
40
2.953125
40
2.96875
40
2.9765625
40
2.984375
40
2.9921875
40
2.99609375
40
2.998046875
40
3
40
3.001953125
40
3.00390625
40
3.0078125
40
3.015625
40
3.0234375
40
3.03125
40
3.046875
40
3.0625
40
3.09375
40
3.3125
40
3.625
40
4
40
4
40
4
40
4
10
-131.13420002479239
20
252.75440289610103
30
0
10
-130.505775024803
20
250.14147789609859
30
0
10
-129.45712716621179
20
246.91687663347756
30
0
10
-128.39608738627598
20
243.01619141635143
30
0
10
-128.01154391536161
20
241.38181155700948
30
0
10
-127.75324415851026
20
240.06652469385958
30
0
10
-127.61544465259365
20
239.24071677977076
30
0
10
-127.52124222006108
20
238.57758405954883
30
0
10
-127.45906012749627
20
238.07876951704168
30
0
10
-127.41472382678337
20
237.66231400150545
30
0
10
-127.38774283530871
20
237.36936002640388
30
0
10
-127.37362324466591
20
237.20299369327302
30
0
10
-127.3633791430204
20
237.07466855387133
30
0
10
-127.354760332388
20
236.95944946775774
30
0
10
-127.34369730387881
20
236.80125556484003
30
0
10
-127.32654747698083
20
236.52655236295112
30
0
10
-127.30766507384649
20
236.13302447316417
30
0
10
-127.29374376781651
20
235.66129813249228
30
0
10
-127.2861994303274
20
235.03220485795666
30
0
10
-127.29638725080014
20
234.24597502782007
30
0
10
-127.40355212309277
20
231.73033066022239
30
0
10
-127.89741854238403
20
228.03740734015125
30
0
10
-128.45770124425431
20
224.46581251429006
30
0
10
-128.67325445272184
20
222.70063360098757
30
0
10
-128.70948315175565
20
222.38685448383077
30
0
10
-128.72491810157098
20
222.24957730518483
30
0
10
-128.73361519135779
20
222.1711423364053
30
0
10
-128.73900115474021
20
222.12210394320789
30
0
10
-128.74327435535844
20
222.08291300964635
30
0
10
-128.74647502198661
20
222.05341217195956
30
0
10
-128.74909227410348
20
222.02917134843182
30
0
10
-128.75098944171626
20
222.01152964784308
30
0
10
-128.75195897519964
20
222.00249986422222
30
0
10
-128.75242396638862
20
221.99816148021401
30
0
10
-128.75275594061253
20
221.99507544374509
30
0
10
-128.75300233192189
20
221.99278924589149
30
0
10
-128.75317972695109
20
221.99114804298665
30
0
10
-128.75350136656027
20
221.98822999441805
30
0
10
-128.75385023711999
20
221.98514093572032
30
0
10
-128.75434014964472
20
221.9808796722742
30
0
10
-128.75496469110755
20
221.97560468024744
30
0
10
-128.75704281083418
20
221.95867964811248
30
0
10
-128.76199785514473
20
221.92282473265479
30
0
10
-128.77786254074772
20
221.83038581627488
30
0
10
-128.82970508955401
20
221.61822607481889
30
0
10
-128.97208399499263
20
221.23392617571199
30
0
10
-129.10556972703671
20
220.87599415810399
30
0
10
-129.14224535057124
20
220.62619442693295
30
0
10
-129.14840199715886
20
220.55918820342967
30
0
10
-129.15063236478002
20
220.51713722251279
30
0
10
-129.15138069515339
20
220.48337342440442
30
0
10
-129.15140461300084
20
220.46224339697528
30
0
10
-129.15114604424602
20
220.44526012834737
30
0
10
-129.1508197848427
20
220.43264104087291
30
0
10
-129.1504069348405
20
220.42168642878329
30
0
10
-129.15010021309598
20
220.41484653353655
30
0
10
-129.14983644390384
20
220.40963176111921
30
0
10
-129.14982792697194
20
220.409393780557
30
0
10
-129.14905199774839
20
220.39511049321152
30
0
10
-129.14827280981098
20
220.38096644883149
30
0
10
-129.14676020708828
20
220.35393409067555
30
0
10
-129.14459150905375
20
220.31651680938862
30
0
10
-129.14184693307959
20
220.27111621594446
30
0
10
-129.1380463248484
20
220.21077496598932
30
0
10
-129.13301288973329
20
220.13531408246132
30
0
10
-129.12437990964747
20
220.01466651970259
30
0
10
-129.08407502798173
20
219.50222071743295
30
0
10
-128.96003534961864
20
218.42078843848969
30
0
10
-128.67830703818228
20
216.68629240968744
30
0
10
-128.45512502494375
20
215.37138414609021
30
0
10
-128.35590002494672
20
214.6520028960899
30
0
0
LINE
5
108
100
AcDbEntity
8
0
100
AcDbLine
10
-128.35590002494672
20
214.65200289608987
30
0
11
-125.37915002494915
21
214.05665289607785
31
0
0
SPLINE
5
109
100
AcDbEntity
8
0
100
AcDbSpline
70
0
71
3
72
57
73
53
74
0
42
0.000000001
43
0.0000000001
44
0.0000000001
40
0
40
0
40
0
40
0
40
0.890625
40
0.9375
40
0.9609375
40
0.97265625
40
0.978515625
40
0.984375
40
0.990234375
40
0.9931640625
40
0.99609375
40
0.99755859375
40
0.9990234375
40
0.999755859375
40
1.0001220703125
40
1.00048828125
40
1.001220703125
40
1.001953125
40
1.0048828125
40
1.0078125
40
1.0107421875
40
1.013671875
40
1.01953125
40
1.03125
40
1.1015625
40
1.21875
40
1.5
40
1.8984375
40
1.9453125
40
1.96875
40
1.98046875
40
1.986328125
40
1.9892578125
40
1.9921875
40
1.9951171875
40
1.998046875
40
1.998779296875
40
1.99951171875
40
1.9998779296875
40
2.000244140625
40
2.0009765625
40
2.00244140625
40
2.00390625
40
2.0068359375
40
2.009765625
40
2.015625
40
2.021484375
40
2.02734375
40
2.1328125
40
2.296875
40
2.625
40
3
40
3
40
3
40
3
10
-125.37915002494918
20
214.05665289607785
30
0
10
-124.67217189994189
20
215.8240982085749
30
0
10
-123.24091408558188
20
217.557090261018
30
0
10
-123.01325700947561
20
219.56335792959234
30
0
10
-123.00242538171912
20
219.73622137699886
30
0
10
-122.99924359916849
20
219.82306580666332
30
0
10
-122.99807569881027
20
219.87281486387661
30
0
10
-122.99752775117797
20
219.91017925289967
30
0
10
-122.9973473756008
20
219.94139375846342
30
0
10
-122.99736930032999
20
219.96633730630296
30
0
10
-122.99745472717578
20
219.98207444464248
30
0
10
-122.9975610290673
20
219.99436405033364
30
0
10
-122.99765457050553
20
220.00275089579728
30
0
10
-122.99771024584034
20
220.00721534928982
30
0
10
-122.99777452912789
20
220.01196999325498
30
0
10
-122.99795434673996
20
220.02502190096251
30
0
10
-122.99814560874999
20
220.03850035599785
30
0
10
-122.99865254030864
20
220.07318183517413
30
0
10
-122.99946011505432
20
220.12421970265055
30
0
10
-123.00067282111792
20
220.19282218479742
30
0
10
-123.00201104051663
20
220.26126645928147
30
0
10
-123.00396508912914
20
220.35256675538702
30
0
10
-123.00782539868428
20
220.51228915719702
30
0
10
-123.02810450726901
20
221.19660844544438
30
0
10
-123.11259695904729
20
222.74517966765376
30
0
10
-123.48715515785798
20
226.3774436514808
30
0
10
-124.56943740161063
20
232.52299994547275
30
0
10
-125.5422996329122
20
238.12645565972969
30
0
10
-125.74077050684117
20
241.76897538997196
30
0
10
-125.76226787913947
20
242.40726040616164
30
0
10
-125.7695358389339
20
242.72663076288171
30
0
10
-125.772278077886
20
242.88636506128432
30
0
10
-125.77358730976545
20
242.9776706276341
30
0
10
-125.77443932458607
20
243.04612335103889
30
0
10
-125.77516172853591
20
243.11471723509283
30
0
10
-125.7756027443711
20
243.16579655338532
30
0
10
-125.77585919228048
20
243.20043121570609
30
0
10
-125.77595367790406
20
243.21400096554891
30
0
10
-125.77603792064966
20
243.22686743522075
30
0
10
-125.77607262612
20
243.2323819006497
30
0
10
-125.7761069090522
20
243.23861533293103
30
0
10
-125.7761530035328
20
243.24930040449948
30
0
10
-125.7761904608135
20
243.26539579679007
30
0
10
-125.77618326260929
20
243.28584737593772
30
0
10
-125.77605125140579
20
243.31836077794316
30
0
10
-125.77566396635331
20
243.35903337839724
30
0
10
-125.7748459335171
20
243.4077577170591
30
0
10
-125.767059779249
20
243.73227356195
30
0
10
-125.69715284967035
20
244.48683832836636
30
0
10
-125.31900912822756
20
246.08932555610153
30
0
10
-124.35475072173573
20
248.34998678227166
30
0
10
-123.51868127480289
20
250.17455289607025
30
0
10
-123.19620002479887
20
251.16680289606899
30
0
0
LINE
5
110
100
AcDbEntity
8
0
100
AcDbLine
10
-123.19620002479887
20
251.16680289606893
30
0
11
-121.90848002478918
21
253.54820289606377
31
0
0
LINE
5
111
100
AcDbEntity
8
0
100
AcDbLine
10
-121.90848002478918
20
253.54820289606377
30
0
11
-122.40240002480043
21
250.76990289606579
31
0
0
SPLINE
5
112
100
AcDbEntity
8
0
100
AcDbSpline
70
0
71
3
72
80
73
76
74
0
42
0.000000001
43
0.0000000001
44
0.0000000001
40
0
40
0
40
0
40
0
40
0.921875
40
0.953125
40
0.96875
40
0.9765625
40
0.984375
40
0.98828125
40
0.9921875
40
0.994140625
40
0.99609375
40
0.998046875
40
0.9990234375
40
0.99951171875
40
1
40
1.00048828125
40
1.0009765625
40
1.001953125
40
1.00390625
40
1.005859375
40
1.0078125
40
1.01171875
40
1.015625
40
1.0390625
40
1.078125
40
1.1875
40
1.375
40
1.84375
40
1.90625
40
1.921875
40
1.9375
40
1.953125
40
1.96875
40
1.9765625
40
1.984375
40
1.9921875
40
1.99609375
40
1.998046875
40
2
40
2.001953125
40
2.00390625
40
2.0078125
40
2.015625
40
2.0234375
40
2.03125
40
2.046875
40
2.0625
40
2.09375
40
2.3125
40
2.6875
40
2.921875
40
2.953125
40
2.96875
40
2.9765625
40
2.984375
40
2.98828125
40
2.9921875
40
2.994140625
40
2.99609375
40
2.998046875
40
2.9990234375
40
3
40
3.0009765625
40
3.001953125
40
3.00390625
40
3.005859375
40
3.0078125
40
3.01171875
40
3.015625
40
3.0234375
40
3.046875
40
3.125
40
3.25
40
3.625
40
4
40
4
40
4
40
4
10
-122.40240002480043
20
250.76990289606579
30
0
10
-122.89025627481151
20
248.02571148981764
30
0
10
-124.10914981248735
20
245.21776428526621
30
0
10
-124.02234049141381
20
242.30948193399595
30
0
10
-124.01356407019092
20
242.14514636564081
30
0
10
-124.00741351004433
20
242.05119239888472
30
0
10
-124.00309087101638
20
241.99245505601715
30
0
10
-123.99934120786537
20
241.94544542713226
30
0
10
-123.99687745572351
20
241.91607727080662
30
0
10
-123.9948290178834
20
241.89253884067227
30
0
10
-123.99326636378007
20
241.87499546756789
30
0
10
-123.99189968595863
20
241.86001856194395
30
0
10
-123.99099276760963
20
241.85023302616884
30
0
10
-123.99036683843845
20
241.84354972778817
30
0
10
-123.99018534322468
20
241.84161157498295
30
0
10
-123.98889193768242
20
241.82792134871323
30
0
10
-123.98754838784603
20
241.8137678898334
30
0
10
-123.98500288683499
20
241.78709124345477
30
0
10
-123.98141996595884
20
241.74998578136368
30
0
10
-123.97701545617804
20
241.70504050459289
30
0
10
-123.97107092928891
20
241.64527430939583
30
0
10
-123.96347504127725
20
241.57053701803233
30
0
10
-123.93849503797145
20
241.33152609576641
30
0
10
-123.88040586671521
20
240.82426243062253
30
0
10
-123.70201509946155
20
239.51518039054713
30
0
10
-123.23513539217508
20
236.97248145822994
30
0
10
-121.78539005844763
20
231.23072700453989
30
0
10
-120.16859891521017
20
225.88047751185991
30
0
10
-119.61946796134468
20
221.72591546488729
30
0
10
-119.54531902663891
20
221.01123072215049
30
0
10
-119.51238296926306
20
220.65337269847532
30
0
10
-119.483726671688
20
220.29499255609682
30
0
10
-119.46352905979205
20
219.99585541418185
30
0
10
-119.44965389137083
20
219.75632670273896
30
0
10
-119.44039927916251
20
219.57635854478409
30
0
10
-119.43368640468593
20
219.42682721582878
30
0
10
-119.42947081679634
20
219.32098290779993
30
0
10
-119.42727241762169
20
219.26221063173563
30
0
10
-119.42552926630411
20
219.21325160380295
30
0
10
-119.42451066673118
20
219.18290032937452
30
0
10
-119.4230293859445
20
219.13595207119971
30
0
10
-119.42081076517377
20
219.05683782917865
30
0
10
-119.41834756663411
20
218.94229981079752
30
0
10
-119.41661514161811
20
218.80562959842862
30
0
10
-119.41587266138058
20
218.62329608449011
30
0
10
-119.41785636365097
20
218.39569957351145
30
0
10
-119.42704100742667
20
218.03199228517042
30
0
10
-119.50317273547221
20
216.4893279630721
30
0
10
-120.11685295786702
20
212.89487793488553
30
0
10
-121.6154845750343
20
208.18368879755599
30
0
10
-122.39086901353576
20
204.49839192104804
30
0
10
-122.54679196317426
20
202.86289246630534
30
0
10
-122.57027182916173
20
202.5442322789263
30
0
10
-122.58166261304936
20
202.36194598445519
30
0
10
-122.58792210588143
20
202.24794439991356
30
0
10
-122.59240562257824
20
202.15667487373079
30
0
10
-122.59498577948675
20
202.09965352067161
30
0
10
-122.59691990949798
20
202.05392571514244
30
0
10
-122.59829403158983
20
202.01989233660882
30
0
10
-122.59941316739783
20
201.990670885849
30
0
10
-122.60020715241383
20
201.96920822669685
30
0
10
-122.60097025049711
20
201.94786962330735
30
0
10
-122.60101199558633
20
201.94653065647304
30
0
10
-122.60130307683846
20
201.93776256489593
30
0
10
-122.60155710083762
20
201.92920405921666
30
0
10
-122.60185925472207
20
201.91791588226261
30
0
10
-122.60219730026594
20
201.90323376391649
30
0
10
-122.60252686467845
20
201.8847780153105
30
0
10
-122.60284526334385
20
201.85535891967959
30
0
10
-122.60287050467171
20
201.78926293893835
30
0
10
-122.59726954851178
20
201.58482677565118
30
0
10
-122.54883983240236
20
201.16870998767803
30
0
10
-122.26099306804068
20
200.13999489756742
30
0
10
-121.35457824471382
20
198.6776853931903
30
0
10
-120.51712502501647
20
197.43646539605808
30
0
10
-120.21945002501907
20
196.7915028960569
30
0
0
LINE
5
113
100
AcDbEntity
8
0
100
AcDbLine
10
-120.21945002501906
20
196.79150289605695
30
0
11
-116.44890002501812
21
196.98995289604164
31
0
0
SPLINE
5
114
100
AcDbEntity
8
0
100
AcDbSpline
70
0
71
3
72
38
73
34
74
0
42
0.000000001
43
0.0000000001
44
0.0000000001
40
0
40
0
40
0
40
0
40
0.53502634981957398
40
0.53502634981957398
40
0.7614887138696399
40
0.7614887138696399
40
0.83135845508875328
40
0.83135845508875328
40
1.3170962822449983
40
1.3170962822449983
40
1.9766427555654613
40
1.9766427555654613
40
2.1999192369286975
40
2.1999192369286975
40
2.7485219819797213
40
2.7485219819797213
40
6.2545756135692283
40
6.2545756135692283
40
9.7725936864163216
40
9.7725936864163216
40
11.247283819796525
40
11.247283819796525
40
14.055489513973237
40
14.055489513973237
40
16.395646762834637
40
16.395646762834637
40
16.730988943243361
40
16.730988943243361
40
16.88639967306219
40
16.88639967306219
40
17.164069405709157
40
17.164069405709157
40
17.488056256601148
40
17.488056256601148
40
17.488056256601148
40
17.488056256601148
10
-116.44890002501812
20
196.98995289604164
30
0
10
-116.078832627783
20
198.73455634011515
30
0
10
-115.64117103143843
20
200.46645784146864
30
0
10
-115.15271065827137
20
202.95670482815484
30
0
10
-115.06691366856641
20
203.48358090815537
30
0
10
-115.05509449090613
20
203.57241217501894
30
0
10
-115.05379323387707
20
203.59342262644356
30
0
10
-115.05414408797209
20
203.7614884420249
30
0
10
-115.11943400786816
20
203.90454756349789
30
0
10
-115.25480248044863
20
204.24644334586247
30
0
10
-115.24761376860759
20
204.26847151761862
30
0
10
-115.33590189347288
20
204.97692481121658
30
0
10
-115.35934809413925
20
205.15590892560306
30
0
10
-115.44411254711497
20
205.77436581978958
30
0
10
-115.51063270730606
20
206.21193499678455
30
0
10
-116.04370812019815
20
209.44836903879266
30
0
10
-116.6898209738267
20
211.99430759019376
30
0
10
-117.5645661548434
20
216.82554842031726
30
0
10
-117.80823981883162
20
219.18226741559982
30
0
10
-117.30837413924979
20
222.64604085956228
30
0
10
-117.10640990160998
20
223.33728634346247
30
0
10
-116.45128116854121
20
225.79310390023974
30
0
10
-116.08021070932671
20
227.42290658578196
30
0
10
-115.31143705043682
20
230.38151353538066
30
0
10
-114.92773236116959
20
231.71809146318958
30
0
10
-114.37946364063194
20
233.2096861435308
30
0
10
-114.27605068474355
20
233.55701493754566
30
0
10
-114.07890404434622
20
233.77172683574909
30
0
10
-114.00359119808085
20
233.82641182573209
30
0
10
-113.78078043240991
20
233.9539594087106
30
0
10
-113.61219113853952
20
234.01353045922343
30
0
10
-113.2429138728355
20
234.13890366048275
30
0
10
-113.04265796947607
20
234.20377692768017
30
0
10
-112.87680002486708
20
234.29855289602725
30
0
0
SPLINE
5
115
100
AcDbEntity
8
0
100
AcDbSpline
70
0
71
3
72
80
73
76
74
0
42
0.000000001
43
0.0000000001
44
0.0000000001
40
0
40
0
40
0
40
0
40
0.921875
40
0.953125
40
0.96875
40
0.9765625
40
0.984375
40
0.98828125
40
0.9921875
40
0.994140625
40
0.99609375
40
0.998046875
40
0.9990234375
40
0.99951171875
40
1
40
1.00048828125
40
1.0009765625
40
1.001953125
40
1.00390625
40
1.005859375
40
1.0078125
40
1.01171875
40
1.015625
40
1.0390625
40
1.078125
40
1.1875
40
1.375
40
1.84375
40
1.921875
40
1.953125
40
1.96875
40
1.9765625
40
1.984375
40
1.98828125
40
1.9921875
40
1.99609375
40
1.998046875
40
1.9990234375
40
2
40
2.0009765625
40
2.001953125
40
2.00390625
40
2.0078125
40
2.01171875
40
2.015625
40
2.0234375
40
2.03125
40
2.078125
40
2.1875
40
2.375
40
2.875
40
2.921875
40
2.953125
40
2.96875
40
2.9765625
40
2.984375
40
2.98828125
40
2.9921875
40
2.99609375
40
2.998046875
40
2.9990234375
40
3
40
3.0009765625
40
3.001953125
40
3.00390625
40
3.0078125
40
3.01171875
40
3.015625
40
3.0234375
40
3.03125
40
3.046875
40
3.125
40
3.3125
40
3.625
40
4
40
4
40
4
40
4
10
-112.87680002486708
20
234.29855289602725
30
0
10
-113.42563830612977
20
231.18846930227937
30
0
10
-114.79824995526991
20
228.00551840211847
30
0
10
-114.69945142061334
20
224.70997747902769
30
0
10
-114.68950633831896
20
224.52376267895917
30
0
10
-114.68254390230668
20
224.41730107948163
30
0
10
-114.67765306865013
20
224.3507442213409
30
0
10
-114.67341195617573
20
224.29747772722439
30
0
10
-114.67062555694818
20
224.26419827111249
30
0
10
-114.66830971645652
20
224.23753091438095
30
0
10
-114.66654168692996
20
224.21763943826153
30
0
10
-114.66500039911128
20
224.20070957660778
30
0
10
-114.66396831109222
20
224.18954916751352
30
0
10
-114.66327164417604
20
224.18209227448335
30
0
10
-114.66303292056244
20
224.17953991739509
30
0
10
-114.66169682302279
20
224.16536543214295
30
0
10
-114.66029076950602
20
224.1505210935172
30
0
10
-114.65763723751184
20
224.12265677422636
30
0
10
-114.65389569807027
20
224.08384434440899
30
0
10
-114.64929655633188
20
224.03685661297007
30
0
10
-114.64308591235488
20
223.97436706709675
30
0
10
-114.63514544361058
20
223.89622908832757
30
0
10
-114.6090118324928
20
223.64634776611661
30
0
10
-114.54809525900797
20
223.11607666998341
30
0
10
-114.36024580498325
20
221.74796276215065
30
0
10
-113.86559144208101
20
219.0920892018585
30
0
10
-112.31850434432944
20
213.09994803776345
30
0
10
-110.53115672882311
20
207.40011704196684
30
0
10
-109.88707166713588
20
202.81149577606499
30
0
10
-109.78773705573138
20
201.81401463025873
30
0
10
-109.75228427448343
20
201.37653782699425
30
0
10
-109.73438770920851
20
201.12624123520422
30
0
10
-109.72420109724743
20
200.9696546192435
30
0
10
-109.7166627113906
20
200.84434217223145
30
0
10
-109.71131060658772
20
200.75021053334018
30
0
10
-109.70712452638861
20
200.67207018216675
30
0
10
-109.70429839907899
20
200.61669159580791
30
0
10
-109.70277273578455
20
200.58607510161028
30
0
10
-109.70150668681313
20
200.5601982311959
30
0
10
-109.7008006669853
20
200.54544934969238
30
0
10
-109.69969755176675
20
200.52190492132215
30
0
10
-109.69792459541944
20
200.48251524528922
30
0
10
-109.69554440253916
20
200.42531256506183
30
0
10
-109.69302300789253
20
200.35709569982555
30
0
10
-109.69007137613006
20
200.26602723825025
30
0
10
-109.68716027159488
20
200.15229342399763
30
0
10
-109.68110261534854
20
199.78851510379098
30
0
10
-109.69469263323512
20
198.83566580177754
30
0
10
-109.88293494111414
20
196.85005280018484
30
0
10
-110.8507521540302
20
192.28239592716983
30
0
10
-112.24652698468273
20
188.10210327428069
30
0
10
-112.60831972523383
20
184.75229447852206
30
0
10
-112.64762932358738
20
184.20755144325562
30
0
10
-112.66325078449356
20
183.88920192684498
30
0
10
-112.67001270263739
20
183.7071293388075
30
0
10
-112.6733213469234
20
183.59323576449162
30
0
10
-112.6754075957586
20
183.50213694044325
30
0
10
-112.676691131128
20
183.43362654181504
30
0
10
-112.67751916052228
20
183.37703813357956
30
0
10
-112.67798136760058
20
183.33639164867895
30
0
10
-112.67819654790068
20
183.3147623478244
30
0
10
-112.67837616594574
20
183.2940314991092
30
0
10
-112.67839893875859
20
183.29052903189739
30
0
10
-112.67846581807923
20
183.27985314431612
30
0
10
-112.67852133818039
20
183.26397722912517
30
0
10
-112.67850540944549
20
183.23985453502601
30
0
10
-112.67830976034728
20
183.21156692826645
30
0
10
-112.67782380422912
20
183.17367522179109
30
0
10
-112.67679273917985
20
183.126467375056
30
0
10
-112.67425185085848
20
183.05106548874508
30
0
10
-112.66170018206219
20
182.80687765351098
30
0
10
-112.58055319049505
20
182.13959707296021
30
0
10
-112.17763349118155
20
180.81371269091113
30
0
10
-111.1279737484341
20
178.89205744447514
30
0
10
-110.24733752509754
20
177.39301539601649
30
0
10
-109.90005002510095
20
176.54960289601513
30
0
0
LINE
5
116
100
AcDbEntity
8
0
100
AcDbLine
10
-109.90005002510095
20
176.54960289601513
30
0
11
-104.14500002510815
21
174.76355289599172
31
0
0
SPLINE
5
117
100
AcDbEntity
8
0
100
AcDbSpline
70
0
71
3
72
86
73
82
74
0
42
0.000000001
43
0.0000000001
44
0.0000000001
40
0
40
0
40
0
40
0
40
0.703125
40
0.78125
40
0.859375
40
0.8984375
40
0.9375
40
0.95703125
40
0.9765625
40
0.986328125
40
0.9912109375
40
0.99609375
40
0.99853515625
40
0.999755859375
40
1.0009765625
40
1.005859375
40
1.015625
40
1.03515625
40
1.0546875
40
1.09375
40
1.328125
40
1.7578125
40
1.93359375
40
1.962890625
40
1.982421875
40
1.9921875
40
1.99462890625
40
1.9970703125
40
1.998291015625
40
1.99951171875
40
2.0001220703125
40
2.000732421875
40
2.001953125
40
2.00439453125
40
2.0068359375
40
2.01171875
40
2.0166015625
40
2.021484375
40
2.03125
40
2.05078125
40
2.109375
40
2.265625
40
2.5
40
2.578125
40
2.65625
40
2.734375
40
2.8125
40
2.890625
40
2.9296875
40
2.96875
40
2.98828125
40
2.998046875
40
3.0078125
40
3.02734375
40
3.046875
40
3.0859375
40
3.28125
40
3.7890625
40
3.92578125
40
3.96484375
40
3.974609375
40
3.984375
40
3.9892578125
40
3.99169921875
40
3.994140625
40
3.99658203125
40
3.997802734375
40
3.9990234375
40
3.9996337890625
40
3.99993896484375
40
4.000244140625
40
4.0008544921875
40
4.00146484375
40
4.00390625
40
4.0087890625
40
4.0185546875
40
4.04296875
40
4.1015625
40
4.296875
40
4.6875
40
5
40
5
40
5
40
5
10
-104.14500002510817
20
174.76355289599172
30
0
10
-103.12174221260479
20
175.60076383348775
30
0
10
-101.62216638034253
20
176.24907469742016
30
0
10
-100.46431487366709
20
177.34447586514474
30
0
10
-100.22823649970773
20
177.61447939698519
30
0
10
-100.05845155472284
20
177.84530767367778
30
0
10
-99.960868961063937
20
177.99622490863274
30
0
10
-99.888292130979124
20
178.12119094529098
30
0
10
-99.845259808508274
20
178.20118565791199
30
0
10
-99.816468288214224
20
178.25805480164075
30
0
10
-99.800299101709669
20
178.29102509073391
30
0
10
-99.790552637864081
20
178.31131560914451
30
0
10
-99.783402935607342
20
178.32645914300923
30
0
10
-99.779981453436889
20
178.3337596638861
30
0
10
-99.771263694185009
20
178.35245549363486
30
0
10
-99.752538161865729
20
178.3928001470058
30
0
10
-99.712489813721859
20
178.48012555432354
30
0
10
-99.656375325406174
20
178.60544347976798
30
0
10
-99.568824185376187
20
178.80739053339681
30
0
10
-99.25328686220243
20
179.5721564410008
30
0
10
-98.640080286538478
20
181.48643352474335
30
0
10
-98.347714521426326
20
183.9061299931692
30
0
10
-98.457841140649464
20
185.7063675488082
30
0
10
-98.537857983463667
20
186.33404035662829
30
0
10
-98.561295162245955
20
186.49713719078073
30
0
10
-98.574828047269222
20
186.58526843279543
30
0
10
-98.581233496831146
20
186.62589100669669
30
0
10
-98.583931702017452
20
186.64282386623213
30
0
10
-98.586100787567048
20
186.65633268827918
30
0
10
-98.587475998197988
20
186.66484930112003
30
0
10
-98.588550854363305
20
186.67148861966473
30
0
10
-98.591837684568844
20
186.69171619158587
30
0
10
-98.59658900213573
20
186.72077847282651
30
0
10
-98.603984066661667
20
186.7655852855822
30
0
10
-98.615670099781326
20
186.83540030368584
30
0
10
-98.630665780294166
20
186.92324711490781
30
0
10
-98.649068372618899
20
187.0283045296695
30
0
10
-98.674215987688257
20
187.16836000896024
30
0
10
-98.719762580930407
20
187.41311277662379
30
0
10
-98.844653989739527
20
188.04100802112191
30
0
10
-99.23030571701743
20
189.70508875148636
30
0
10
-100.20566548771197
20
192.84811196325495
30
0
10
-101.46340214584193
20
196.07791997501863
30
0
10
-102.46336709213855
20
198.77456912019846
30
0
10
-103.02808794764202
20
200.397934068045
30
0
10
-103.53673826715821
20
202.03052667065043
30
0
10
-103.96850237054933
20
203.67612859630796
30
0
10
-104.24689767079767
20
205.0616753651764
30
0
10
-104.41034459783863
20
206.18017116731468
30
0
10
-104.48567334032647
20
206.88464457813734
30
0
10
-104.52310059309383
20
207.3790689817103
30
0
10
-104.54007182255252
20
207.6645755401052
30
0
10
-104.55359963076361
20
207.94243205297647
30
0
10
-104.56527663184252
20
208.28932003245353
30
0
10
-104.57303338423677
20
208.8435700311085
30
0
10
-104.54699314640983
20
210.6411304585186
30
0
10
-103.91449311503044
20
215.85548160318177
30
0
10
-102.04315594375196
20
221.67962731078686
30
0
10
-101.07972114976803
20
226.47929643349144
30
0
10
-100.88799462774054
20
227.78874922692569
30
0
10
-100.83428073012458
20
228.20290267192175
30
0
10
-100.81306756846351
20
228.37558085804775
30
0
10
-100.79884811050839
20
228.49650559930188
30
0
10
-100.79090307814224
20
228.56563639837839
30
0
10
-100.78504003109794
20
228.61745379624091
30
0
10
-100.78021737538793
20
228.66076716660223
30
0
10
-100.77643580916579
20
228.69514171339767
30
0
10
-100.77402278201923
20
228.71726626744777
30
0
10
-100.77248191960203
20
228.73147457890923
30
0
10
-100.77138832460177
20
228.74159627732493
30
0
10
-100.77110814832983
20
228.74419614436178
30
0
10
-100.7707461545632
20
228.74756543111977
30
0
10
-100.76989266803187
20
228.7555534708699
30
0
10
-100.76806130460798
20
228.77291813585862
30
0
10
-100.76424738396632
20
228.81026382938222
30
0
10
-100.75608973292543
20
228.89567042348645
30
0
10
-100.73980639077804
20
229.09844428649029
30
0
10
-100.71258632509776
20
229.70668222244706
30
0
10
-100.78842156853717
20
231.11426516325582
30
0
10
-101.18643688732496
20
233.07446795318737
30
0
10
-101.48246252486581
20
234.60863102098108
30
0
10
-101.56515002486303
20
235.29080289598139
30
0
0
SPLINE
5
118
100
AcDbEntity
8
0
100
AcDbSpline
70
0
71
3
72
54
73
50
74
0
42
0.000000001
43
0.0000000001
44
0.0000000001
40
0
40
0
40
0
40
0
40
0.84375
40
0.890625
40
0.9375
40
0.9609375
40
0.97265625
40
0.978515625
40
0.984375
40
0.990234375
40
0.99609375
40
0.99755859375
40
0.9990234375
40
0.999755859375
40
1.00048828125
40
1.001953125
40
1.0048828125
40
1.0078125
40
1.013671875
40
1.01953125
40
1.03125
40
1.04296875
40
1.0546875
40
1.21875
40
1.5
40
1.8984375
40
1.9453125
40
1.96875
40
1.98046875
40
1.986328125
40
1.9892578125
40
1.9921875
40
1.9951171875
40
1.998046875
40
1.998779296875
40
1.99951171875
40
1.9998779296875
40
2.000244140625
40
2.0009765625
40
2.00244140625
40
2.00390625
40
2.0068359375
40
2.009765625
40
2.015625
40
2.021484375
40
2.02734375
40
2.15625
40
2.34375
40
3
40
3
40
3
40
3
10
-101.56515002486303
20
235.29080289598139
30
0
10
-100.56049689987559
20
232.22102945847749
30
0
10
-98.823117381356923
20
229.11514472021767
30
0
10
-98.145987947892465
20
225.61707173328222
30
0
10
-98.077892101456513
20
225.17652442872773
30
0
10
-98.03964255727945
20
224.86627805499984
30
0
10
-98.022962654696627
20
224.71065976509723
30
0
10
-98.014144183673494
20
224.62160837707575
30
0
10
-98.007886339901916
20
224.55470708104718
30
0
10
-98.0020029340305
20
224.48789217116601
30
0
10
-97.997830931779504
20
224.43728251208472
30
0
10
-97.995217311027062
20
224.40421037170699
30
0
10
-97.994069555956074
20
224.3893989428189
30
0
10
-97.993344900998693
20
224.37994455696327
30
0
10
-97.991962503284839
20
224.36172244463759
30
0
10
-97.989269909081841
20
224.32576047492094
30
0
10
-97.985681974019826
20
224.27650935156365
30
0
10
-97.980059355255534
20
224.19651628604814
30
0
10
-97.973449065800565
20
224.09692453131967
30
0
10
-97.963671213588768
20
223.93733572372037
30
0
10
-97.95296497911653
20
223.73790045465455
30
0
10
-97.942469158107585
20
223.49850257393456
30
0
10
-97.898719315801642
20
222.22154287705021
30
0
10
-98.009495993275834
20
219.10507122829912
30
0
10
-98.834304687469299
20
213.34245352569806
30
0
10
-99.466321163368974
20
208.38796461546019
30
0
10
-99.305962393283082
20
205.20669225087033
30
0
10
-99.260462665195575
20
204.65042878907909
30
0
10
-99.233135521163007
20
204.37241156057382
30
0
10
-99.218301469658314
20
204.23344043858759
30
0
10
-99.209484955843536
20
204.15402610412735
30
0
10
-99.202706151640271
20
204.09450086920543
30
0
10
-99.195741494260048
20
204.03486116452402
30
0
10
-99.190429893451665
20
203.99046810149187
30
0
10
-99.18677089785885
20
203.96035565552097
30
0
10
-99.185332246934493
20
203.94858054712984
30
0
10
-99.183954372797302
20
203.93736082170187
30
0
10
-99.183383017017306
20
203.93272309675385
30
0
10
-99.182753225672599
20
203.92766825567116
30
0
10
-99.181638121790911
20
203.91885940085569
30
0
10
-99.179923636330557
20
203.90567410634404
30
0
10
-99.177667799233348
20
203.888919186718
30
0
10
-99.173919925419028
20
203.86235000716826
30
0
10
-99.168930037428282
20
203.82920698943877
30
0
10
-99.162472974373344
20
203.78966182801116
30
0
10
-99.107065731084106
20
203.47484469698472
30
0
10
-98.882314806125095
20
202.79512612004876
30
0
10
-97.650782817889521
20
200.97944235567826
30
0
10
-95.772890650007
20
199.74964820845804
30
0
10
-94.817850025011722
20
198.57755289595406
30
0
0
LINE
5
119
100
AcDbEntity
8
0
100
AcDbLine
10
-94.817850025011722
20
198.57755289595411
30
0
11
-91.444200025006893
21
199.76825289594032
31
0
0
SPLINE
5
120
100
AcDbEntity
8
0
100
AcDbSpline
70
0
71
3
72
91
73
87
74
0
42
0.000000001
43
0.0000000001
44
0.0000000001
40
0
40
0
40
0
40
0
40
0.78125
40
0.859375
40
0.8984375
40
0.9375
40
0.95703125
40
0.966796875
40
0.9765625
40
0.9814453125
40
0.986328125
40
0.9912109375
40
0.99609375
40
0.99853515625
40
0.999755859375
40
1.0009765625
40
1.002197265625
40
1.00341796875
40
1.005859375
40
1.0107421875
40
1.015625
40
1.11328125
40
1.25
40
1.5625
40
1.9140625
40
1.93359375
40
1.962890625
40
1.97265625
40
1.982421875
40
1.9921875
40
1.9970703125
40
1.99951171875
40
2.0001220703125
40
2.000732421875
40
2.001953125
40
2.00439453125
40
2.0068359375
40
2.01171875
40
2.021484375
40
2.03125
40
2.05078125
40
2.0703125
40
2.265625
40
2.65625
40
2.8515625
40
2.890625
40
2.9296875
40
2.94921875
40
2.96875
40
2.978515625
40
2.98828125
40
2.9931640625
40
2.99560546875
40
2.998046875
40
2.999267578125
40
2.9998779296875
40
3.00048828125
40
3.0029296875
40
3.0078125
40
3.017578125
40
3.02734375
40
3.046875
40
3.1640625
40
3.28125
40
3.90625
40
3.9453125
40
3.96484375
40
3.974609375
40
3.984375
40
3.9892578125
40
3.994140625
40
3.99658203125
40
3.9990234375
40
4.000244140625
40
4.00146484375
40
4.00390625
40
4.0087890625
40
4.013671875
40
4.0234375
40
4.033203125
40
4.04296875
40
4.0625
40
4.1015625
40
4.21875
40
4.53125
40
5
40
5
40
5
40
5
10
-91.444200025006893
20
199.76825289594035
30
0
10
-91.185801587501118
20
201.21528414593914
30
0
10
-90.424771475573081
20
202.81329773018982
30
0
10
-90.365941516031469
20
204.47424521892208
30
0
10
-90.376231005943225
20
204.76283430467049
30
0
10
-90.391847958556099
20
204.94308475492818
30
0
10
-90.407934171455778
20
205.06918584026232
30
0
10
-90.418648993633354
20
205.14123346851008
30
0
10
-90.425984505124973
20
205.18623154316441
30
0
10
-90.432255954479629
20
205.22227809117533
30
0
10
-90.43712702647916
20
205.24916457770573
30
0
10
-90.44231177947708
20
205.27660511095098
30
0
10
-90.446442290953115
20
205.29773598280786
30
0
10
-90.4501219690342
20
205.31592436897972
30
0
10
-90.451157228565236
20
205.32101257112089
30
0
10
-90.455024646844578
20
205.33977219866716
30
0
10
-90.458874408399467
20
205.3583353862532
30
0
10
-90.464047339877354
20
205.38314579465879
30
0
10
-90.473163852610213
20
205.42651423503548
30
0
10
-90.486389664755094
20
205.4884321131448
30
0
10
-90.605077864317209
20
206.03264141642751
30
0
10
-90.922912080691972
20
207.23047404052159
30
0
10
-91.869425991093209
20
209.90918768557808
30
0
10
-93.639827309686893
20
213.72702519193408
30
0
10
-94.963789196786365
20
217.03118189031957
30
0
10
-95.430307335115828
20
219.0464029741361
30
0
10
-95.492364784355061
20
219.34292403015513
30
0
10
-95.539671047932316
20
219.59116143748065
30
0
10
-95.566707831525122
20
219.74046505928047
30
0
10
-95.588087063091535
20
219.86514600395398
30
0
10
-95.602449902609891
20
219.95265212853667
30
0
10
-95.608961190645672
20
219.99322796382839
30
0
10
-95.611953228307712
20
220.0120592175474
30
0
10
-95.613112029243354
20
220.01938181437023
30
0
10
-95.615514490791128
20
220.0346342519727
30
0
10
-95.618708645803551
20
220.05515378501926
30
0
10
-95.623855543996314
20
220.08869848228616
30
0
10
-95.632609981759487
20
220.1470811568451
30
0
10
-95.644575468346531
20
220.23068578363987
30
0
10
-95.662507705779291
20
220.36441586267398
30
0
10
-95.682711639482278
20
220.53171963760133
30
0
10
-95.765856412251566
20
221.33538179790082
30
0
10
-95.78934826171205
20
223.42045585022302
30
0
10
-95.326916064404358
20
226.12569887544635
30
0
10
-94.851547262643521
20
228.27544923213921
30
0
10
-94.650391420005221
20
229.211128003993
30
0
10
-94.579962848473613
20
229.54467080636147
30
0
10
-94.524829872732781
20
229.81108885071851
30
0
10
-94.49094844000453
20
229.9774333571057
30
0
10
-94.464240869134443
20
230.11037179154596
30
0
10
-94.447709904038462
20
230.19347084350315
30
0
10
-94.436257318851744
20
230.25149544691718
30
0
10
-94.429704475908949
20
230.28483214221413
30
0
10
-94.425706627618524
20
230.30522540154999
30
0
10
-94.422742153689057
20
230.32038035238401
30
0
10
-94.421319546292068
20
230.3276608549842
30
0
10
-94.417668474324415
20
230.34635162863108
30
0
10
-94.409774456679244
20
230.38663688119127
30
0
10
-94.392626467713001
20
230.4735706580617
30
0
10
-94.367835170043008
20
230.59759433572322
30
0
10
-94.327506019886926
20
230.79594632847392
30
0
10
-94.172690074596318
20
231.53892283178465
30
0
10
-93.876548084158671
20
232.82071064130338
30
0
10
-92.757248115236862
20
237.13336183437889
30
0
10
-91.53030993738723
20
241.00770728565215
30
0
10
-90.824667704581913
20
244.47678113102825
30
0
10
-90.757643326408285
20
244.82444866871705
30
0
10
-90.720396683240409
20
245.02334374183377
30
0
10
-90.69756568301392
20
245.14774612163956
30
0
10
-90.679573370069988
20
245.2473344502279
30
0
10
-90.668446311574584
20
245.30958472552703
30
0
10
-90.659607623944098
20
245.35943935115694
30
0
10
-90.654128154892874
20
245.39051487417561
30
0
10
-90.649726659706346
20
245.4155849884792
30
0
10
-90.648167144541532
20
245.42451063784924
30
0
10
-90.644141129110366
20
245.44765426024532
30
0
10
-90.639143808153023
20
245.47679880967729
30
0
10
-90.630901877748869
20
245.52563731526334
30
0
10
-90.620989588469442
20
245.58595883027991
30
0
10
-90.609445066069085
20
245.65870752177329
30
0
10
-90.594606171396094
20
245.75564701884392
30
0
10
-90.570009288952605
20
245.92548196630918
30
0
10
-90.513645536411104
20
246.36284104644062
30
0
10
-90.409072274985348
20
247.53377424782968
30
0
10
-90.399738839887661
20
249.79718763295975
30
0
10
-90.482957837296212
20
251.77455602093636
30
0
10
-90.451950024791472
20
252.95285289593625
30
0
0
SPLINE
5
121
100
AcDbEntity
8
0
100
AcDbSpline
70
0
71
3
72
79
73
75
74
0
42
0.000000001
43
0.0000000001
44
0.0000000001
40
0
40
0
40
0
40
0
40
0.875
40
0.921875
40
0.953125
40
0.96875
40
0.9765625
40
0.984375
40
0.98828125
40
0.9921875
40
0.99609375
40
0.998046875
40
0.9990234375
40
1
40
1.0009765625
40
1.001953125
40
1.00390625
40
1.0078125
40
1.01171875
40
1.015625
40
1.0234375
40
1.03125
40
1.09375
40
1.1875
40
1.625
40
1.9375
40
1.9609375
40
1.9765625
40
1.984375
40
1.98828125
40
1.9921875
40
1.994140625
40
1.99609375
40
1.998046875
40
1.9990234375
40
1.99951171875
40
2
40
2.00048828125
40
2.0009765625
40
2.001953125
40
2.00390625
40
2.005859375
40
2.0078125
40
2.01171875
40
2.015625
40
2.0390625
40
2.078125
40
2.1875
40
2.4375
40
2.875
40
2.9375
40
2.953125
40
2.96875
40
2.9765625
40
2.984375
40
2.98828125
40
2.9921875
40
2.99609375
40
2.998046875
40
2.9990234375
40
3
40
3.0009765625
40
3.001953125
40
3.00390625
40
3.0078125
40
3.01171875
40
3.015625
40
3.0234375
40
3.03125
40
3.046875
40
3.15625
40
3.3125
40
3.75
40
4
40
4
40
4
40
4
10
-90.451950024791472
20
252.95285289593625
30
0
10
-89.873137524800924
20
250.63760289593446
30
0
10
-88.827843631717258
20
248.2618204720022
30
0
10
-88.517943163008482
20
245.69310437936872
30
0
10
-88.494442469167254
20
245.43942435099967
30
0
10
-88.483307146368944
20
245.29107333939024
30
0
10
-88.477697538976258
20
245.20618452615363
30
0
10
-88.474510156385037
20
245.15309836609333
30
0
10
-88.472151713271941
20
245.11056531498173
30
0
10
-88.47048439274144
20
245.0787498532876
30
0
10
-88.469162379159485
20
245.05191179373219
30
0
10
-88.468307420033028
20
245.03373373246174
30
0
10
-88.467788321486267
20
245.02238443552
30
0
10
-88.467525934204417
20
245.01657600251525
30
0
10
-88.466808090637869
20
245.00042892998948
30
0
10
-88.466019855959075
20
244.98250583037387
30
0
10
-88.46458627314189
20
244.94946038763914
30
0
10
-88.462636812304794
20
244.90313162618389
30
0
10
-88.46037503850475
20
244.84716203063618
30
0
10
-88.457490301634465
20
244.77266845060373
30
0
10
-88.454115599087459
20
244.67950878422528
30
0
10
-88.441849194819184
20
244.30694499061849
30
0
10
-88.42757283198074
20
243.52463301748804
30
0
10
-88.459599980483077
20
240.69432671125651
30
0
10
-88.846602476658063
20
236.67595255405942
30
0
10
-89.263616264257521
20
232.994641632629
30
0
10
-89.41062969390957
20
231.32138615070787
30
0
10
-89.429507651737779
20
231.09828763056075
30
0
10
-89.440251880233021
20
230.96814231730005
30
0
10
-89.446312050699504
20
230.8937811582652
30
0
10
-89.450067741740583
20
230.84728820415808
30
0
10
-89.45304894692201
20
230.81013331514046
30
0
10
-89.455283195878096
20
230.78215907220618
30
0
10
-89.457109398118575
20
230.75919101125567
30
0
10
-89.458436467964063
20
230.74243865456705
30
0
10
-89.459110366816802
20
230.73391938896469
30
0
10
-89.459427893550952
20
230.72987198119068
30
0
10
-89.459648169119973
20
230.72709088422096
30
0
10
-89.459796094252255
20
230.72524169969211
30
0
10
-89.459832478744119
20
230.72479724300794
30
0
10
-89.45996243515981
20
230.72319873717217
30
0
10
-89.460088741318714
20
230.72169358742747
30
0
10
-89.460272442626405
20
230.71954326823302
30
0
10
-89.460505477386477
20
230.71690592160815
30
0
10
-89.461286470856564
20
230.70841638839366
30
0
10
-89.463171339852977
20
230.69045127588907
30
0
10
-89.469339763884349
20
230.64411489620971
30
0
10
-89.490125743946592
20
230.53782640718268
30
0
10
-89.555145228930456
20
230.3290651966351
30
0
10
-89.625685918797458
20
230.13408357117072
30
0
10
-89.65010319263115
20
229.99595361120811
30
0
10
-89.65374182285295
20
229.97070476140516
30
0
10
-89.655119273633716
20
229.96016439617651
30
0
10
-89.656136518091159
20
229.95170503293807
30
0
10
-89.656733170346868
20
229.94644035013391
30
0
10
-89.657194376608231
20
229.9421608937142
30
0
10
-89.657512441777897
20
229.939124166846
30
0
10
-89.657821034036658
20
229.93603611302447
30
0
10
-89.657970475798038
20
229.93452586985052
30
0
10
-89.658262438326659
20
229.93147760286917
30
0
10
-89.658691950506068
20
229.9269673901064
30
0
10
-89.65931397133609
20
229.92042975853164
30
0
10
-89.66064407266208
20
229.90645395619123
30
0
10
-89.663253988242232
20
229.8790154069209
30
0
10
-89.666829414564972
20
229.8413754341189
30
0
10
-89.671176101418908
20
229.79553976873183
30
0
10
-89.676939756108283
20
229.7346576781371
30
0
10
-89.684133788140272
20
229.65847347661028
30
0
10
-89.695601630975887
20
229.53662101048513
30
0
10
-89.74410412899779
20
229.01867291365414
30
0
10
-89.844157249532074
20
227.92164430991122
30
0
10
-90.08268337236612
20
225.17797529339629
30
0
10
-90.347300244597278
20
221.88365410502172
30
0
10
-90.567712524928211
20
219.19981539593678
30
0
10
-90.650400024932168
20
218.22410289593716
30
0
0
LINE
5
122
100
AcDbEntity
8
0
100
AcDbLine
10
-90.650400024932168
20
218.22410289593711
30
0
11
-87.475200024943462
21
215.44580289592429
31
0
0
SPLINE
5
123
100
AcDbEntity
8
0
100
AcDbSpline
70
0
71
3
72
20
73
16
74
0
42
0.000000001
43
0.0000000001
44
0.0000000001
40
0
40
0
40
0
40
0
40
1
40
1
40
1
40
2
40
2
40
2
40
3
40
3
40
3
40
4
40
4
40
4
40
5
40
5
40
5
40
5
10
-87.475200024943462
20
215.44580289592429
30
0
10
-86.615250024939115
20
216.5042028959208
30
0
10
-85.017245019188294
20
217.26274438853204
30
0
10
-84.895350024930579
20
218.62100289591382
30
0
10
-84.527045318134796
20
222.72496962859489
30
0
10
-85.651468964823039
20
226.82742432950275
30
0
10
-86.086050024880734
20
230.92490289591871
30
0
10
-86.114816019364611
20
231.19612512963383
30
0
10
-86.284500024878668
20
231.44595945878493
30
0
10
-86.284500024877559
20
231.71870289591953
30
0
10
-86.284500024855916
20
237.07726121369495
30
0
10
-86.652910767580792
20
242.46466191410144
30
0
10
-86.086050024812479
20
247.79315289591861
30
0
10
-85.975405921674835
20
248.83320746537211
30
0
10
-84.895350024805424
20
249.51305289591397
30
0
10
-84.300000024802046
20
250.37300289591141
30
0
0
SPLINE
5
124
100
AcDbEntity
8
0
100
AcDbSpline
70
0
71
3
72
94
73
90
74
0
42
0.000000001
43
0.0000000001
44
0.0000000001
40
0
40
0
40
0
40
0
40
0.78125
40
0.859375
40
0.8984375
40
0.9375
40
0.95703125
40
0.966796875
40
0.9765625
40
0.9814453125
40
0.986328125
40
0.9912109375
40
0.99609375
40
0.99853515625
40
0.999755859375
40
1.0009765625
40
1.00341796875
40
1.005859375
40
1.0107421875
40
1.015625
40
1.025390625
40
1.09375
40
1.2109375
40
1.484375
40
1.943359375
40
1.962890625
40
1.982421875
40
1.9873046875
40
1.9921875
40
1.99462890625
40
1.9970703125
40
1.998291015625
40
1.99951171875
40
2.0001220703125
40
2.000732421875
40
2.001953125
40
2.00439453125
40
2.0068359375
40
2.01171875
40
2.0166015625
40
2.021484375
40
2.03125
40
2.05078125
40
2.109375
40
2.265625
40
2.578125
40
2.8515625
40
2.890625
40
2.9296875
40
2.94921875
40
2.96875
40
2.978515625
40
2.98828125
40
2.9931640625
40
2.99560546875
40
2.998046875
40
2.999267578125
40
2.9998779296875
40
3.00048828125
40
3.0029296875
40
3.0078125
40
3.017578125
40
3.02734375
40
3.037109375
40
3.125
40
3.28125
40
3.828125
40
3.92578125
40
3.96484375
40
3.974609375
40
3.984375
40
3.9892578125
40
3.99169921875
40
3.994140625
40
3.99658203125
40
3.997802734375
40
3.9990234375
40
3.9996337890625
40
3.99993896484375
40
4.000244140625
40
4.0008544921875
40
4.00146484375
40
4.002685546875
40
4.00390625
40
4.0087890625
40
4.04296875
40
4.1015625
40
4.140625
40
5
40
5
40
5
40
5
10
-84.300000024802046
20
250.37300289591141
30
0
10
-84.35167971231408
20
247.42726070841172
30
0
10
-84.491887100443762
20
244.18703463726501
30
0
10
-84.509650720058644
20
240.79938622945286
30
0
10
-84.509152244596578
20
240.21022501104085
30
0
10
-84.507234828878893
20
239.84200073222217
30
0
10
-84.504991154695247
20
239.58423646223278
30
0
10
-84.503443341958871
20
239.43695214520861
30
0
10
-84.502363092344865
20
239.34487622984773
30
0
10
-84.501431159905991
20
239.27126839383084
30
0
10
-84.500695445418216
20
239.21591742624349
30
0
10
-84.499933454273645
20
239.16112014917786
30
0
10
-84.499242717543439
20
239.11373083759128
30
0
10
-84.498795742975815
20
239.08393830002728
30
0
10
-84.498454730213467
20
239.06163717186385
30
0
10
-84.498415624752937
20
239.05915568732502
30
0
10
-84.498355853062776
20
239.05573922939442
30
0
10
-84.498250252325278
20
239.05045093180223
30
0
10
-84.498093576552975
20
239.04378348602279
30
0
10
-84.497793186983245
20
239.03315624859556
30
0
10
-84.496198249919303
20
238.9879951284629
30
0
10
-84.488524094133226
20
238.88231835053276
30
0
10
-84.451115841777366
20
238.6365789753936
30
0
10
-84.323188310692416
20
238.18967461381334
30
0
10
-84.177683952536384
20
237.79784415550773
30
0
10
-84.114630770668114
20
237.53309116873294
30
0
10
-84.109321561409388
20
237.50968993657415
30
0
10
-84.105894639761431
20
237.49407387105276
30
0
10
-84.10448494432687
20
237.48756076199047
30
0
10
-84.103370398516205
20
237.48235643013942
30
0
10
-84.102674753847623
20
237.47908484493919
30
0
10
-84.102130041787404
20
237.47650864403528
30
0
10
-84.101770534446118
20
237.47480359281269
30
0
10
-84.101530114101649
20
237.47365642530087
30
0
10
-84.097706877090715
20
237.45546394639302
30
0
10
-84.092672235353078
20
237.43156886428591
30
0
10
-84.084578508243169
20
237.39329245293669
30
0
10
-84.07204786453778
20
237.33437130049882
30
0
10
-84.056093415695315
20
237.25993559544492
30
0
10
-84.036823518018551
20
237.17096885190341
30
0
10
-84.010848186731764
20
237.05224901901272
30
0
10
-83.964738284699536
20
236.84459906547221
30
0
10
-83.842849404358915
20
236.31086116458746
30
0
10
-83.49583470584291
20
234.88941499020942
30
0
10
-82.6076710201162
20
231.69982439133108
30
0
10
-81.262917696549991
20
227.2178804966187
30
0
10
-80.525369577924835
20
223.40954809404221
30
0
10
-80.358800160561188
20
221.24626000247054
30
0
10
-80.331062165805704
20
220.64377029485735
30
0
10
-80.320763140120448
20
220.16077531606979
30
0
10
-80.319442515355803
20
219.8584561676104
30
0
10
-80.321551110311162
20
219.61636291318041
30
0
10
-80.324210613819091
20
219.46487139568464
30
0
10
-80.326781380523357
20
219.35890648080846
30
0
10
-80.328463020240861
20
219.29811919410864
30
0
10
-80.329583046824183
20
219.26063284343371
30
0
10
-80.330446264532526
20
219.23335908781738
30
0
10
-80.330899393293848
20
219.21938390239268
30
0
10
-80.331891240369373
20
219.18934279973382
30
0
10
-80.334124582464426
20
219.12450826925811
30
0
10
-80.339408090139841
20
218.98470345220284
30
0
10
-80.348275929362359
20
218.78527237155902
30
0
10
-80.360996985812093
20
218.54617782546268
30
0
10
-80.415118526383509
20
217.67052710078772
30
0
10
-80.62975841484436
20
215.61212501314026
30
0
10
-81.856574214996186
20
209.2718997100032
30
0
10
-84.118088450395021
20
202.9814471472481
30
0
10
-85.182054287098282
20
197.48422688211437
30
0
10
-85.357146540234297
20
196.29861510950036
30
0
10
-85.418853903139762
20
195.82317723956476
30
0
10
-85.443145528705628
20
195.62486880032495
30
0
10
-85.459385898352139
20
195.48595474112977
30
0
10
-85.468447674974314
20
195.40652630051915
30
0
10
-85.475128023110955
20
195.34698819829669
30
0
10
-85.480618861482597
20
195.29720346034259
30
0
10
-85.484918150813471
20
195.25771839539408
30
0
10
-85.487666990822476
20
195.23223822186543
30
0
10
-85.489408190410799
20
195.2160008025275
30
0
10
-85.490666677752415
20
195.20421771910497
30
0
10
-85.490919682038268
20
195.2018408153084
30
0
10
-85.491249699771203
20
195.19872034437853
30
0
10
-85.491763450420635
20
195.1938117896139
30
0
10
-85.492398958383419
20
195.18764862740528
30
0
10
-85.493890401194761
20
195.17288409907337
30
0
10
-85.501668667159279
20
195.09169156463796
30
0
10
-85.513919004777421
20
194.89565896363536
30
0
10
-85.510397104799907
20
194.63325160964752
30
0
10
-85.345908433719444
20
192.74421175709961
30
0
10
-84.074676587542157
20
191.09743492716041
30
0
10
-83.50620002504877
20
189.4488528959082
30
0
0
LINE
5
125
100
AcDbEntity
8
0
100
AcDbLine
10
-83.50620002504877
20
189.44885289590817
30
0
11
-80.331000025051111
21
188.85350289589539
31
0
0
SPLINE
5
126
100
AcDbEntity
8
0
100
AcDbSpline
70
0
71
3
72
56
73
52
74
0
42
0.000000001
43
0.0000000001
44
0.0000000001
40
0
40
0
40
0
40
0
40
0.890625
40
0.9375
40
0.9609375
40
0.97265625
40
0.978515625
40
0.984375
40
0.990234375
40
0.9931640625
40
0.99609375
40
0.99755859375
40
0.9990234375
40
0.999755859375
40
1.0001220703125
40
1.00048828125
40
1.001220703125
40
1.001953125
40
1.0048828125
40
1.0078125
40
1.0107421875
40
1.013671875
40
1.01953125
40
1.0546875
40
1.125
40
1.3125
40
1.6875
40
1.875
40
1.921875
40
1.9453125
40
1.95703125
40
1.96875
40
1.98046875
40
1.986328125
40
1.9921875
40
1.9951171875
40
1.998046875
40
1.99951171875
40
2.000244140625
40
2.0009765625
40
2.00244140625
40
2.00390625
40
2.009765625
40
2.015625
40
2.021484375
40
2.02734375
40
2.0390625
40
2.0625
40
2.203125
40
2.4375
40
3
40
3
40
3
40
3
10
-80.331000025051111
20
188.85350289589539
30
0
10
-80.036425806294901
20
190.38528883339413
30
0
10
-79.474758397339457
20
191.97158865399828
30
0
10
-79.352882439362119
20
193.64463848284859
30
0
10
-79.345628424591595
20
193.78778715599765
30
0
10
-79.342819500382561
20
193.85944498372029
30
0
10
-79.341452456547344
20
193.90041937783303
30
0
10
-79.340547421472323
20
193.93115619780858
30
0
10
-79.339893903992262
20
193.95680118859553
30
0
10
-79.339433027697837
20
193.97727757000425
30
0
10
-79.339168807496179
20
193.99018261308765
30
0
10
-79.33897691085464
20
194.00026858116976
30
0
10
-79.338854169700639
20
194.00711982325402
30
0
10
-79.338790173872255
20
194.01082010010543
30
0
10
-79.338725576875575
20
194.01464935324174
30
0
10
-79.338554122149958
20
194.02493708461952
30
0
10
-79.338380209987662
20
194.0355893290722
30
0
10
-79.337942752770871
20
194.06297191538044
30
0
10
-79.33733865283186
20
194.1032838470409
30
0
10
-79.33660898772257
20
194.15747171413696
30
0
10
-79.33596381808583
20
194.21154535067873
30
0
10
-79.335212148267701
20
194.28368745193865
30
0
10
-79.333004027302621
20
194.55419765729178
30
0
10
-79.334513528920652
20
195.23974206835263
30
0
10
-79.382219316578755
20
197.04498854136119
30
0
10
-79.670331599639823
20
200.9491855478727
30
0
10
-80.17427598627782
20
205.57671014600575
30
0
10
-80.202107100340527
20
209.31724401366591
30
0
10
-80.101336050387687
20
210.89463636415468
30
0
10
-80.05744890460376
20
211.39600390454325
30
0
10
-80.028838556511786
20
211.68233834690383
30
0
10
-80.00557471422843
20
211.89701811610695
30
0
10
-79.984656071941544
20
212.07581994743461
30
0
10
-79.966971080799155
20
212.21888642797364
30
0
10
-79.955542560630391
20
212.30813358655507
30
0
10
-79.946112274274157
20
212.37986852588168
30
0
10
-79.940225965652218
20
212.42390481846456
30
0
10
-79.935835756458587
20
212.45631837261055
30
0
10
-79.933650999083682
20
212.47235126262609
30
0
10
-79.932735925369741
20
212.47900729455253
30
0
10
-79.931139225773052
20
212.49052623956806
30
0
10
-79.927615768432659
20
212.51551799349446
30
0
10
-79.921988859426477
20
212.55405116410273
30
0
10
-79.91416942081473
20
212.60466438916978
30
0
10
-79.905927272848885
20
212.65531685804288
30
0
10
-79.894417767033787
20
212.72262251172043
30
0
10
-79.872898889771903
20
212.83998777952803
30
0
10
-79.769124044590399
20
213.33917617262682
30
0
10
-79.416213106909325
20
214.43240270073559
30
0
10
-78.100246882871559
20
216.84655512014649
30
0
10
-76.548046899930114
20
218.7574372708799
30
0
10
-75.766650024924203
20
220.20860289587685
30
0
0
SPLINE
5
127
100
AcDbEntity
8
0
100
AcDbSpline
70
0
71
3
72
20
73
16
74
0
42
0.000000001
43
0.0000000001
44
0.0000000001
40
0
40
0
40
0
40
0
40
1
40
1
40
1
40
2
40
2
40
2
40
3
40
3
40
3
40
4
40
4
40
4
40
5
40
5
40
5
40
5
10
-75.766650024924203
20
220.20860289587685
30
0
10
-75.700500024924708
20
220.07630289587667
30
0
10
-75.53803194854018
20
219.95650966252455
30
0
10
-75.568200024925872
20
219.81170289587612
30
0
10
-76.20631011057003
20
216.74877448484534
30
0
10
-77.832917960340779
20
213.81062642457954
30
0
10
-77.751150024962669
20
210.68300289588495
30
0
10
-77.564357331490683
20
203.53818236947109
30
0
10
-74.340835973812716
20
196.58295228391594
30
0
10
-74.774400025048763
20
189.44885289587293
30
0
10
-75.089139767138406
20
184.26995350365166
30
0
10
-78.968209430474715
20
179.86130881190206
30
0
10
-79.934100025108222
20
174.76355289589367
30
0
10
-80.210835899922174
20
173.30300244551864
30
0
10
-78.875700025119428
20
171.9852528958894
30
0
10
-78.34650002512501
20
170.59610289588733
30
0
0
SPLINE
5
128
100
AcDbEntity
8
0
100
AcDbSpline
70
0
71
3
72
8
73
4
74
0
42
0.000000001
43
0.0000000001
44
0.0000000001
40
0
40
0
40
0
40
0
40
1
40
1
40
1
40
1
10
-78.34650002512501
20
170.59610289588733
30
0
10
-74.04969095009433
20
166.30078278449736
30
0
10
-71.136332520275886
20
177.51508499900791
30
0
10
-66.241050025128345
20
169.8023028958383
30
0
0
LINE
5
129
100
AcDbEntity
8
0
100
AcDbLine
10
-66.241050025128345
20
169.8023028958383
30
0
11
-65.447250025310751
21
124.75415289583495
31
0
0
LINE
5
130
100
AcDbEntity
8
0
100
AcDbLine
10
-65.447250025310751
20
124.75415289583495
30
0
11
-66.241050025329201
21
120.18880806719203
31
0
0
LINE
5
131
100
AcDbEntity
8
0
100
AcDbLine
10
-66.241050025329201
20
120.18880806719203
30
0
11
-67.034850025309083
21
125.15105289584142
31
0
0
SPLINE
5
132
100
AcDbEntity
8
0
100
AcDbSpline
70
0
71
3
72
56
73
52
74
0
42
0.000000001
43
0.0000000001
44
0.0000000001
40
0
40
0
40
0
40
0
40
0.46867940159028437
40
0.46867940159028437
40
0.562409075022826
40
0.562409075022826
40
0.56474906515739876
40
0.56474906515739876
40
0.57169349991668861
40
0.57169349991668861
40
0.58308561735392628
40
0.58308561735392628
40
0.60714366499605432
40
0.60714366499605432
40
0.63179216233241209
40
0.63179216233241209
40
0.70568068457026367
40
0.70568068457026367
40
0.89278832593135238
40
0.89278832593135238
40
1.1641642426723928
40
1.1641642426723928
40
1.324288200439196
40
1.324288200439196
40
1.8781921324403961
40
1.8781921324403961
40
2.4817275564097536
40
2.4817275564097536
40
4.164343792379114
40
4.164343792379114
40
4.6131007782718516
40
4.6131007782718516
40
4.9310528872214565
40
4.9310528872214565
40
6.0046436230013258
40
6.0046436230013258
40
6.3302496904990404
40
6.3302496904990404
40
6.65036267250425
40
6.65036267250425
40
7.119382697796139
40
7.119382697796139
40
7.8313214838567271
40
7.8313214838567271
40
9.268277878551956
40
9.268277878551956
40
10.422343681960282
40
10.422343681960282
40
10.864030246877077
40
10.864030246877077
40
11.281553824585369
40
11.281553824585369
40
11.281553824585369
40
11.281553824585369
10
-67.034850025309083
20
125.1510528958414
30
0
10
-67.264989269899843
20
126.69627353813729
30
0
10
-67.484394618288647
20
128.24314960197322
30
0
10
-67.754003747166024
20
130.09841248374863
30
0
10
-68.024380825782046
20
132.02501783989686
30
0
10
-68.424645164594224
20
134.48223269330089
30
0
10
-68.426725176853864
20
134.49494010318887
30
0
10
-68.444952750848444
20
134.56284622381568
30
0
10
-68.469344442827222
20
134.61000779524946
30
0
10
-68.542418948337883
20
134.7318420713103
30
0
10
-68.59449997560202
20
134.80475822543443
30
0
10
-68.696059890156221
20
135.05995380989236
30
0
10
-68.762747547956181
20
135.23404695774212
30
0
10
-68.893200510739348
20
135.5881518789752
30
0
10
-68.957065278031592
20
135.76824343268399
30
0
10
-69.205709149254517
20
136.49005628714815
30
0
10
-69.421861278742028
20
137.17730385197896
30
0
10
-69.874631426897054
20
138.61708745522145
30
0
10
-70.199045179223674
20
139.64937138659562
30
0
10
-71.218883879322135
20
142.05712425306299
30
0
10
-71.52131653354958
20
142.39529784166575
30
0
10
-72.690783664625229
20
144.11806589256162
30
0
10
-73.085896711798895
20
144.7246135159979
30
0
10
-74.988017362041745
20
147.61414570555345
30
0
10
-75.762908713005061
20
148.7161175122742
30
0
10
-78.870560849834618
20
152.00283585803348
30
0
10
-80.660942764234576
20
153.56077835542393
30
0
10
-87.76521887392343
20
158.97435239275956
30
0
10
-91.801700792931356
20
160.5452897635146
30
0
10
-96.672768453859248
20
161.96135095645744
30
0
10
-99.338299564903409
20
162.72747476049864
30
0
10
-103.1027023613904
20
163.40633256817461
30
0
10
-103.79528994468386
20
163.43344709082075
30
0
10
-107.75032257843083
20
163.53132728646105
30
0
10
-110.87985536836931
20
163.5811636661108
30
0
10
-114.75692750544619
20
162.71168513453603
30
0
10
-114.98799446251419
20
162.59185087579311
30
0
10
-117.6686845934678
20
161.98180934650873
30
0
10
-119.01886369964544
20
161.73955133951677
30
0
10
-122.23953309103979
20
160.85271688673384
30
0
10
-122.65326773979469
20
160.53643776758517
30
0
10
-126.71408805126805
20
158.48278482824927
30
0
10
-128.95708167210452
20
157.53958720479548
30
0
10
-136.45533834854277
20
152.13982585861635
30
0
10
-139.43171759009701
20
148.4053977640626
30
0
10
-143.85533629123842
20
141.17908968897729
30
0
10
-145.14436258876597
20
138.29308951946848
30
0
10
-146.45438947147287
20
134.39971909671152
30
0
10
-147.15941682730056
20
132.17280436210021
30
0
10
-148.08114112849324
20
128.45830763928723
30
0
10
-148.39935002530325
20
126.61557248290011
30
0
10
-148.39935002531078
20
124.75415289617089
30
0
0
LINE
5
133
100
AcDbEntity
8
0
100
AcDbLine
10
-148.39935002531078
20
124.75415289617089
30
0
11
-148.56187570815419
21
121.57383176554441
31
0
0
LINE
5
134
100
AcDbEntity
8
0
100
AcDbLine
10
-148.56187570815419
20
121.57383176554441
30
0
11
-149.19315002530919
21
125.15105289617406
31
0
0
LINE
5
135
100
AcDbEntity
8
0
100
AcDbLine
10
-149.19315002530919
20
125.15105289617406
30
0
11
-148.79625002514604
21
165.43640289617255
31
0
0
SPLINE
5
136
100
AcDbEntity
8
0
100
AcDbSpline
70
0
71
3
72
8
73
4
74
0
42
0.000000001
43
0.0000000001
44
0.0000000001
40
0
40
0
40
0
40
0
40
1
40
1
40
1
40
1
10
-148.79625002514604
20
165.43640289617255
30
0
10
-146.09765901893806
20
163.11501455695318
30
0
10
-143.52494716255322
20
172.31235100087775
30
0
10
-141.04035139715145
20
169.16462440355215
30
0
0
SPLINE
5
137
100
AcDbEntity
8
0
100
AcDbSpline
70
0
71
3
72
24
73
20
74
0
42
0.000000001
43
0.0000000001
44
0.0000000001
40
0
40
0
40
0
40
0
40
0.25
40
0.5
40
0.625
40
0.75
40
0.875
40
0.9375
40
0.96875
40
1
40
1.03125
40
1.0625
40
1.125
40
1.1875
40
1.25
40
1.375
40
1.5
40
1.75
40
2
40
2
40
2
40
2
10
-141.04035139715145
20
169.16462440355215
30
0
10
-140.85249916102558
20
169.1209663157278
30
0
10
-140.47769323354748
20
168.99433419366318
30
0
10
-140.00977937890511
20
168.8114656799541
30
0
10
-139.6347104581676
20
168.69466961803585
30
0
10
-139.3529773205037
20
168.63284448307019
30
0
10
-139.11697829907803
20
168.61213490795637
30
0
10
-138.95230744939684
20
168.61841578143509
30
0
10
-138.85647820593559
20
168.62897666706803
30
0
10
-138.78897063343675
20
168.6395907747843
30
0
10
-138.70438664215894
20
168.65702433175602
30
0
10
-138.59966964266602
20
168.68344678456191
30
0
10
-138.46950368971989
20
168.72465577778473
30
0
10
-138.31845277051229
20
168.78508575973538
30
0
10
-138.12168312848894
20
168.87887456328292
30
0
10
-137.88392194240163
20
169.0175378167082
30
0
10
-137.51551935167402
20
169.27143970580616
30
0
10
-137.06797893330014
20
169.6231299072486
30
0
10
-136.70303806921004
20
169.88618096964581
30
0
10
-136.51366656971632
20
169.99940402600805
30
0
0
SPLINE
5
138
100
AcDbEntity
8
0
100
AcDbSpline
70
0
71
3
72
365
73
361
74
0
42
0.000000001
43
0.0000000001
44
0.0000000001
40
0
40
0
40
0
40
0
40
0.61611115554800777
40
0.61611115554800777
40
0.61611115554800777
40
0.79626463027082051
40
0.79626463027082051
40
0.79626463027082051
40
0.83956205441906051
40
0.83956205441906051
40
0.83956205441906051
40
0.8631599654385701
40
0.8631599654385701
40
0.8631599654385701
40
0.87139735751600644
40
0.87139735751600644
40
0.87139735751600644
40
0.87984955451123681
40
0.87984955451123681
40
0.87984955451123681
40
0.88853825730795422
40
0.88853825730795422
40
0.88853825730795422
40
0.89748896235953701
40
0.89748896235953701
40
0.89748896235953701
40
0.9020718105893798
40
0.9020718105893798
40
0.9020718105893798
40
0.90673196220813679
40
0.90673196220813679
40
0.90673196220813679
40
0.91147417688787491
40
0.91147417688787491
40
0.91147417688787491
40
0.91387767958322963
40
0.91387767958322963
40
0.91387767958322963
40
0.9150878340697437
40
0.9150878340697437
40
0.9150878340697437
40
0.91630371276077716
40
0.91630371276077716
40
0.91630371276077716
40
0.91875302407731807
40
0.91875302407731807
40
0.91875302407731807
40
0.92122640270699607
40
0.92122640270699607
40
0.92122640270699607
40
0.92624874633706833
40
0.92624874633706833
40
0.92624874633706833
40
0.93137802180462437
40
0.93137802180462437
40
0.93137802180462437
40
0.93662242293820452
40
0.93662242293820452
40
0.93662242293820452
40
0.99964691593946409
40
0.99964691593946409
40
0.99964691593946409
40
1.0526039041221749
40
1.0526039041221749
40
1.0526039041221749
40
1.062711017050981
40
1.062711017050981
40
1.062711017050981
40
1.1715429585965897
40
1.1715429585965897
40
1.1715429585965897
40
1.3846817962052445
40
1.3846817962052445
40
1.3846817962052445
40
1.4820947452101445
40
1.4820947452101445
40
1.4820947452101445
40
1.8065389848552253
40
1.8065389848552253
40
1.8065389848552253
40
1.846540386235511
40
1.846540386235511
40
1.846540386235511
40
1.866562266737589
40
1.866562266737589
40
1.866562266737589
40
1.8765815425809442
40
1.8765815425809442
40
1.8765815425809442
40
1.8866075453377034
40
1.8866075453377034
40
1.8866075453377034
40
1.8966411595406134
40
1.8966411595406134
40
1.8966411595406134
40
1.9016610991532772
40
1.9016610991532772
40
1.9016610991532772
40
1.9066832763953958
40
1.9066832763953958
40
1.9066832763953958
40
1.9091952392879383
40
1.9091952392879383
40
1.9091952392879383
40
1.9117078038444049
40
1.9117078038444049
40
1.9117078038444049
40
1.912964316168305
40
1.912964316168305
40
1.912964316168305
40
1.9142209842184619
40
1.9142209842184619
40
1.9142209842184619
40
1.9154778097694303
40
1.9154778097694303
40
1.9154778097694303
40
1.9167347945979527
40
1.9167347945979527
40
1.9167347945979527
40
1.9217643623005045
40
1.9217643623005045
40
1.9217643623005045
40
1.9267966211702769
40
1.9267966211702769
40
1.9267966211702769
40
1.9318316860265459
40
1.9318316860265459
40
1.9318316860265459
40
1.9368696723173324
40
1.9368696723173324
40
1.9368696723173324
40
1.9469548743072402
40
1.9469548743072402
40
1.9469548743072402
40
2.0077642163132512
40
2.0077642163132512
40
2.0077642163132512
40
2.1286698053280575
40
2.1286698053280575
40
2.1286698053280575
40
2.4876828709275056
40
2.4876828709275056
40
2.4876828709275056
40
2.7557193313960386
40
2.7557193313960386
40
2.7557193313960386
40
2.7663803557463695
40
2.7663803557463695
40
2.7663803557463695
40
2.7717238894771801
40
2.7717238894771801
40
2.7717238894771801
40
2.7730611528149938
40
2.7730611528149938
40
2.7730611528149938
40
2.7743989725049092
40
2.7743989725049092
40
2.7743989725049092
40
2.7750680916717587
40
2.7750680916717587
40
2.7750680916717587
40
2.7757373507554273
40
2.7757373507554273
40
2.7757373507554273
40
2.7764067500331935
40
2.7764067500331935
40
2.7764067500331935
40
2.7767415199080085
40
2.7767415199080085
40
2.7767415199080085
40
2.7769089048454161
40
2.7769089048454161
40
2.7769089048454161
40
2.7769925973141198
40
2.7769925973141198
40
2.7769925973141198
40
2.7770135204312956
40
2.7770135204312956
40
2.7770135204312956
40
2.7770762897828232
40
2.7770762897828232
40
2.7770762897828232
40
2.7772436967015572
40
2.7772436967015572
40
2.7772436967015572
40
2.7774111124215235
40
2.7774111124215235
40
2.7774111124215235
40
2.7777459702825738
40
2.7777459702825738
40
2.7777459702825738
40
2.7780808634008354
40
2.7780808634008354
40
2.7780808634008354
40
2.778415791811196
40
2.778415791811196
40
2.778415791811196
40
2.7790857546479315
40
2.7790857546479315
40
2.7790857546479315
40
2.7797558590725191
40
2.7797558590725191
40
2.7797558590725191
40
2.785121825365183
40
2.785121825365183
40
2.785121825365183
40
2.7931881162632251
40
2.7931881162632251
40
2.7931881162632251
40
2.8311201464204925
40
2.8311201464204925
40
2.8311201464204925
40
2.8862205724836549
40
2.8862205724836549
40
2.8862205724836549
40
3.0492425618576053
40
3.0492425618576053
40
3.0492425618576053
40
3.1493472668919438
40
3.1493472668919438
40
3.1493472668919438
40
3.3424459970110636
40
3.3424459970110636
40
3.3424459970110636
40
3.4496613819949586
40
3.4496613819949586
40
3.4496613819949586
40
3.7055621617727281
40
3.7055621617727281
40
3.7055621617727281
40
3.8197084835631205
40
3.8197084835631205
40
3.8197084835631205
40
3.8780570424236971
40
3.8780570424236971
40
3.8780570424236971
40
3.9313702245353803
40
3.9313702245353803
40
3.9313702245353803
40
3.9563380240577866
40
3.9563380240577866
40
3.9563380240577866
40
3.9802830878557933
40
3.9802830878557933
40
3.9802830878557933
40
4.0032843989969082
40
4.0032843989969082
40
4.0032843989969082
40
4.0145707607417727
40
4.0145707607417727
40
4.0145707607417727
40
4.0257968671912669
40
4.0257968671912669
40
4.0257968671912669
40
4.0313880099347932
40
4.0313880099347932
40
4.0313880099347932
40
4.0369649000163808
40
4.0369649000163808
40
4.0369649000163808
40
4.0397480814767759
40
4.0397480814767759
40
4.0397480814767759
40
4.0425277965269304
40
4.0425277965269304
40
4.0425277965269304
40
4.0480769534372776
40
4.0480769534372776
40
4.0480769534372776
40
4.0591350397015757
40
4.0591350397015757
40
4.0591350397015757
40
4.0701410941502969
40
4.0701410941502969
40
4.0701410941502969
40
4.0920044922412933
40
4.0920044922412933
40
4.0920044922412933
40
4.113681262317014
40
4.113681262317014
40
4.113681262317014
40
4.1351845558885936
40
4.1351845558885936
40
4.1351845558885936
40
4.1565266699357224
40
4.1565266699357224
40
4.1565266699357224
40
4.2405043472925206
40
4.2405043472925206
40
4.2405043472925206
40
4.7645968144260298
40
4.7645968144260298
40
4.7645968144260298
40
4.8258816438579393
40
4.8258816438579393
40
4.8258816438579393
40
4.8671902191996308
40
4.8671902191996308
40
4.8671902191996308
40
4.8775835099608678
40
4.8775835099608678
40
4.8775835099608678
40
4.8880055078574838
40
4.8880055078574838
40
4.8880055078574838
40
4.8984573856386291
40
4.8984573856386291
40
4.8984573856386291
40
4.9036949042181659
40
4.9036949042181659
40
4.9036949042181659
40
4.9089403463911685
40
4.9089403463911685
40
4.9089403463911685
40
4.9115660873099722
40
4.9115660873099722
40
4.9115660873099722
40
4.9141938675717496
40
4.9141938675717496
40
4.9141938675717496
40
4.9155085286255282
40
4.9155085286255282
40
4.9155085286255282
40
4.9168237069351539
40
4.9168237069351539
40
4.9168237069351539
40
4.9194556252951926
40
4.9194556252951926
40
4.9194556252951926
40
4.9247257792786252
40
4.9247257792786252
40
4.9247257792786252
40
4.9300044914835155
40
4.9300044914835155
40
4.9300044914835155
40
4.9405882500137261
40
4.9405882500137261
40
4.9405882500137261
40
4.9512082439621876
40
4.9512082439621876
40
4.9512082439621876
40
4.9725625140138865
40
4.9725625140138865
40
4.9725625140138865
40
4.9940788949076467
40
4.9940788949076467
40
4.9940788949076467
40
5.0158232874321058
40
5.0158232874321058
40
5.0158232874321058
40
5.1544556403661588
40
5.1544556403661588
40
5.1544556403661588
40
5.7040586217638261
40
5.7040586217638261
40
5.7040586217638261
40
5.8002844033816983
40
5.8002844033816983
40
5.8002844033816983
40
6
40
6
40
6
40
6
10
-136.51366656971632
20
169.99940402600805
30
0
10
-136.18734262484935
20
170.65135703831766
30
0
10
-135.53372190662276
20
171.54312940915355
30
0
10
-135.20299034715563
20
172.28382812599523
30
0
10
-135.10628305805372
20
172.50041152390995
30
0
10
-135.03571354825087
20
172.70359960425847
30
0
10
-134.9891860889241
20
172.87764375031745
30
0
10
-134.97800385031277
20
172.91947288086311
30
0
10
-134.96814540457214
20
172.95959745944316
30
0
10
-134.95947163134133
20
172.99776280935242
30
0
10
-134.95474426168988
20
173.0185636433259
30
0
10
-134.95036820018066
20
173.03878233713448
30
0
10
-134.94631729242042
20
173.05837731713359
30
0
10
-134.94490323015606
20
173.06521739432807
30
0
10
-134.94352877243105
20
173.07198145209895
30
0
10
-134.94219288145447
20
173.07866693609742
30
0
10
-134.94082215470115
20
173.08552675619973
30
0
10
-134.93949202342142
20
173.0923039035726
30
0
10
-134.9382006887393
20
173.09899951733243
30
0
10
-134.93687322047629
20
173.10588248492456
30
0
10
-134.93558678615452
20
173.11267907690615
30
0
10
-134.93434191081107
20
173.11937554578606
30
0
10
-134.93305949705083
20
173.12627394238604
30
0
10
-134.93182104136409
20
173.13306695314969
30
0
10
-134.93061775930761
20
173.13979541603464
30
0
10
-134.93000166716624
20
173.14324045461478
30
0
10
-134.92939490297604
20
173.14666792911765
30
0
10
-134.92880654710206
20
173.15002191513702
30
0
10
-134.92820826685337
20
173.15343247612304
30
0
10
-134.92762861203039
20
173.15676949688537
30
0
10
-134.92702944586682
20
173.16025952265423
30
0
10
-134.92641972867111
20
173.16381100612256
30
0
10
-134.92603972466338
20
173.16602536888439
30
0
10
-134.92528660705665
20
173.17050828790821
30
0
10
-134.92490490350255
20
173.17278037145653
30
0
10
-134.92477896244509
20
173.17353360241813
30
0
10
-134.92236820255587
20
173.18796126887918
30
0
10
-134.92115439409983
20
173.19522554419348
30
0
10
-134.92001307727418
20
173.20205645245983
30
0
10
-134.91885802504757
20
173.20896994940156
30
0
10
-134.91769750925809
20
173.21591614817666
30
0
10
-134.9165233811033
20
173.22294420320605
30
0
10
-134.91535680481437
20
173.22992746987214
30
0
10
-134.91300681009275
20
173.24399482231254
30
0
10
-134.91068717801903
20
173.25788211595221
30
0
10
-134.90838120638529
20
173.27168926230547
30
0
10
-134.90605257591639
20
173.28563207982177
30
0
10
-134.90373797651847
20
173.29949256375789
30
0
10
-134.90144134769247
20
173.31324710947487
30
0
10
-134.89677790513798
20
173.34117653937977
30
0
10
-134.89218844206749
20
173.36866986441873
30
0
10
-134.8876686112113
20
173.39575282120342
30
0
10
-134.88305254762909
20
173.42341240725656
30
0
10
-134.87850915577508
20
173.4506437081964
30
0
10
-134.87403811876214
20
173.47744831142219
30
0
10
-134.86946673012699
20
173.50485453915002
30
0
10
-134.86497096906106
20
173.53181476991867
30
0
10
-134.86054942067483
20
173.5583371253027
30
0
10
-134.8074135452481
20
173.87706903743137
30
0
10
-134.76494104026779
20
174.13290233721938
30
0
10
-134.73134634590883
20
174.33581244794098
30
0
10
-134.70311805326506
20
174.50630978673627
30
0
10
-134.66546177561386
20
174.73418513035358
30
0
10
-134.62328280957624
20
174.9912959144315
30
0
10
-134.61523273747827
20
175.04036682686564
30
0
10
-134.60702584297084
20
175.09045631577789
30
0
10
-134.59869985121938
20
175.14134864978101
30
0
10
-134.50904676690263
20
175.68934999876771
30
0
10
-134.40780680526797
20
176.31741226752851
30
0
10
-134.32947135392692
20
176.8314068750492
30
0
10
-134.1760575049662
20
177.83802507581129
30
0
10
-134.11218156163818
20
178.38746407172579
30
0
10
-134.1349493705022
20
178.58955811568126
30
0
10
-134.14535516715901
20
178.68192315350785
30
0
10
-134.17337327090036
20
178.70503651988111
30
0
10
-134.21650792530895
20
178.68374041336187
30
0
10
-134.36017250270766
20
178.61281145414642
30
0
10
-134.67778885392036
20
178.02260341190919
30
0
10
-135.00335245302435
20
178.22351370033022
30
0
10
-135.0434918625476
20
178.24828434534876
30
0
10
-135.08367568807515
20
178.28530717330074
30
0
10
-135.12355121120581
20
178.33704705928494
30
0
10
-135.14351008593349
20
178.3629443973436
30
0
10
-135.16339175367955
20
178.39252746224884
30
0
10
-135.18315267734877
20
178.42609676324633
30
0
10
-135.19304136613306
20
178.44289538945566
30
0
10
-135.20289982393251
20
178.4606921236408
30
0
10
-135.21272217963877
20
178.47952261635118
30
0
10
-135.22255113004678
20
178.49836575180097
30
0
10
-135.23234393032223
20
178.51824403878425
30
0
10
-135.24209684676563
20
178.53919871755477
30
0
10
-135.25185716733608
20
178.56016930450053
30
0
10
-135.26157753999436
20
178.58221791133366
30
0
10
-135.27124617577047
20
178.60536227416898
30
0
10
-135.27608351222287
20
178.61694168129557
30
0
10
-135.28090790133098
20
178.62879536770834
30
0
10
-135.28572680630251
20
178.64095097553985
30
0
10
-135.2905478592927
20
178.65311200171271
30
0
10
-135.29536341386114
20
178.66557519183971
30
0
10
-135.30013966369438
20
178.67825049350546
30
0
10
-135.30252862007089
20
178.68459035088227
30
0
10
-135.30490775042952
20
178.69098329233748
30
0
10
-135.30731948594098
20
178.69755107462174
30
0
10
-135.30973179910995
20
178.7041204300175
30
0
10
-135.31217670697313
20
178.71086463565911
30
0
10
-135.31448093507629
20
178.71729047897952
30
0
10
-135.31563326009862
20
178.72050398897781
30
0
10
-135.31675042129567
20
178.72363793335495
30
0
10
-135.318054620787
20
178.72732589811275
30
0
10
-135.31935898191477
20
178.73101431993959
30
0
10
-135.32138372144627
20
178.73676409122393
30
0
10
-135.3237487966926
20
178.74347017756403
30
0
10
-135.32611416835874
20
178.75017710439187
30
0
10
-135.32828666818759
20
178.75633339658125
30
0
10
-135.33050987330051
20
178.76263046895906
30
0
10
-135.33273336016026
20
178.7689283393652
30
0
10
-135.33500754629725
20
178.77536697211124
30
0
10
-135.3372770084095
20
178.781789062581
30
0
10
-135.34635779688284
20
178.80748574409753
30
0
10
-135.35536303769337
20
178.8329178208744
30
0
10
-135.36440557770453
20
178.85840661656889
30
0
10
-135.37345295610115
20
178.88390905053515
30
0
10
-135.38253763581372
20
178.90946815681954
30
0
10
-135.3916288584085
20
178.93499763511466
30
0
10
-135.40072515026711
20
178.96054134864147
30
0
10
-135.40982800284718
20
178.986055431062
30
0
10
-135.41894507083416
20
179.01156262136124
30
0
10
-135.42806742870678
20
179.03708461138766
30
0
10
-135.43720401561262
20
179.06259969314689
30
0
10
-135.44635243529424
20
179.08810207845187
30
0
10
-135.46466603423085
20
179.1391535685076
30
0
10
-135.48302705427972
20
179.19015418847374
30
0
10
-135.50143339214014
20
179.24110610712236
30
0
10
-135.61241553163052
20
179.54832381580761
30
0
10
-135.72479779228928
20
179.8531125632864
30
0
10
-135.83863025937021
20
180.15725676332605
30
0
10
-136.06496031043486
20
180.76197854517974
30
0
10
-136.2996534376062
20
181.37095378477514
30
0
10
-136.53779270158881
20
181.9826555945416
30
0
10
-137.24491557240606
20
183.79902275958716
30
0
10
-137.98151970482633
20
185.63969166855304
30
0
10
-138.61201959534839
20
187.46626386295537
30
0
10
-139.08274608185985
20
188.82996895530451
30
0
10
-139.49342966835488
20
190.1860698158583
30
0
10
-139.80531159212109
20
191.51358329330793
30
0
10
-139.81771654918506
20
191.56638451849847
30
0
10
-139.8299687142175
20
191.61913952151673
30
0
10
-139.84206647987563
20
191.67184631941151
30
0
10
-139.84813013912049
20
191.69826409533417
30
0
10
-139.85415501120701
20
191.72466976178399
30
0
10
-139.86014117001926
20
191.75106426579077
30
0
10
-139.86163925557787
20
191.75766970786455
30
0
10
-139.86313491653618
20
191.76427445063862
30
0
10
-139.86462800091368
20
191.77087782520317
30
0
10
-139.86612170647072
20
191.77748394702115
30
0
10
-139.86761283346621
20
191.7840887002215
30
0
10
-139.8691020154713
20
191.79069492204917
30
0
10
-139.86984683947864
20
191.79399906660518
30
0
10
-139.87059117681636
20
191.79730357802123
30
0
10
-139.87133421591238
20
191.80060483507856
30
0
10
-139.87207741038233
20
191.80390678244848
30
0
10
-139.87281930649814
20
191.80720547602024
30
0
10
-139.87356320716037
20
191.81051565915584
30
0
10
-139.87430726365233
20
191.81382653569727
30
0
10
-139.87503182194641
20
191.81705292726156
30
0
10
-139.87578898573935
20
191.82042739526361
30
0
10
-139.87616764708034
20
191.82211498332663
30
0
10
-139.87655983562323
20
191.82386358529757
30
0
10
-139.87690072288473
20
191.82538384509166
30
0
10
-139.87707116651546
20
191.8261439749887
30
0
10
-139.87722879738257
20
191.8268470753876
30
0
10
-139.87745626301773
20
191.82786203628672
30
0
10
-139.87756999583527
20
191.8283695167363
30
0
10
-139.87770116539843
20
191.82895486435501
30
0
10
-139.87773391290204
20
191.82910095356957
30
0
10
-139.87774209977795
20
191.82913747587318
30
0
10
-139.87774413878492
20
191.82914656019224
30
0
10
-139.87774744400087
20
191.82916129861064
30
0
10
-139.87775735964874
20
191.82920551386582
30
0
10
-139.87777867293022
20
191.82930062383895
30
0
10
-139.8780115481733
20
191.83034004438457
30
0
10
-139.87863263037255
20
191.83311219650304
30
0
10
-139.88016783158764
20
191.8399645566908
30
0
10
-139.88118187468419
20
191.84449079248424
30
0
10
-139.88219597109295
20
191.84901726623946
30
0
10
-139.88327955516138
20
191.85385395192094
30
0
10
-139.88434994515526
20
191.85863180117764
30
0
10
-139.88649089406923
20
191.86818825371881
30
0
10
-139.88857907046298
20
191.87750937745815
30
0
10
-139.89067932032552
20
191.88688461135467
30
0
10
-139.89277979132353
20
191.89626083237033
30
0
10
-139.89489233401119
20
191.90569115564838
30
0
10
-139.89699967837933
20
191.9150984969356
30
0
10
-139.8991072448261
20
191.92450682959827
30
0
10
-139.90120961299081
20
191.93389218048364
30
0
10
-139.90331102401166
20
191.94327347993951
30
0
10
-139.90751451122003
20
191.96203904834533
30
0
10
-139.9117141673982
20
191.98078840035623
30
0
10
-139.91590669679249
20
191.99950682629412
30
0
10
-139.92010011222283
20
192.01822920812577
30
0
10
-139.92428639828316
20
192.03692065271491
30
0
10
-139.92846629791103
20
192.055584477004
30
0
10
-139.96193749984155
20
192.20503797761214
30
0
10
-139.99499917991673
20
192.35272036150153
30
0
10
-140.02765253231445
20
192.49863739135776
30
0
10
-140.07673808836731
20
192.71798450343479
30
0
10
-140.12490095534076
20
192.93334248804848
30
0
10
-140.17215917735624
20
193.14479330654558
30
0
10
-140.39439270765254
20
194.13914857161032
30
0
10
-140.5966231748391
20
195.04711309477955
30
0
10
-140.78054317289792
20
195.87637235474102
30
0
10
-141.0477071030266
20
197.08096220535685
30
0
10
-141.27624367920009
20
198.1195247802074
30
0
10
-141.47122683215628
20
199.014996742601
30
0
10
-142.0481106016735
20
201.66437046197419
30
0
10
-142.33333346471048
20
203.07815489812333
30
0
10
-142.44180994060699
20
203.74346549203196
30
0
10
-142.50842062094821
20
204.15200375742307
30
0
10
-142.51412327444552
20
204.30153716773611
30
0
10
-142.49030359718975
20
204.3270457439294
30
0
10
-142.44435621211568
20
204.37625096029149
30
0
10
-142.29434333642143
20
203.98726238974018
30
0
10
-142.12170542057919
20
203.51784301849369
30
0
10
-142.02585061822793
20
203.25720443958625
30
0
10
-141.92054026117222
20
202.96142627883563
30
0
10
-141.80837088103996
20
202.64642705953463
30
0
10
-141.54064594727828
20
201.89458957034759
30
0
10
-141.23304658892565
20
201.01902331079049
30
0
10
-140.87564088420251
20
200.1309901638399
30
0
10
-140.7162175849985
20
199.73487680521558
30
0
10
-140.54665964059876
20
199.33719404322528
30
0
10
-140.37256215620457
20
198.9900006924625
30
0
10
-140.28356816010972
20
198.81252470072462
30
0
10
-140.1935183270453
20
198.64899186561229
30
0
10
-140.10450839169334
20
198.51370071891222
30
0
10
-140.02317985529356
20
198.39008495730693
30
0
10
-139.94270805773908
20
198.28999653340358
30
0
10
-139.86579876340926
20
198.23014483916438
30
0
10
-139.82978035733822
20
198.20211490278379
30
0
10
-139.79456086404383
20
198.1830011128622
30
0
10
-139.76052499462557
20
198.17507657994656
30
0
10
-139.72788330892519
20
198.16747665324644
30
0
10
-139.69632998811875
20
198.17016739083999
30
0
10
-139.6662796490686
20
198.18551112790914
30
0
10
-139.63741369138231
20
198.20025011851581
30
0
10
-139.60985351238799
20
198.22680067166036
30
0
10
-139.5842935214792
20
198.26722074810948
30
0
10
-139.57175165802533
20
198.28705420898316
30
0
10
-139.55973263584593
20
198.31014293369915
30
0
10
-139.54828228777893
20
198.33660754312905
30
0
10
-139.5368930704926
20
198.36293086408233
30
0
10
-139.52606660837694
20
198.39259344090081
30
0
10
-139.51579740659835
20
198.42597770560474
30
0
10
-139.51068284855776
20
198.44260468043231
30
0
10
-139.50570643502493
20
198.46015534889881
30
0
10
-139.50092542612256
20
198.47838202874217
30
0
10
-139.49615660472941
20
198.49656224604328
30
0
10
-139.49158253163029
20
198.51541330648166
30
0
10
-139.48699272728018
20
198.53605276866827
30
0
10
-139.48470215705424
20
198.54635301982438
30
0
10
-139.48240742989003
20
198.55709990865086
30
0
10
-139.48038461821147
20
198.56689122981496
30
0
10
-139.47836432591416
20
198.57667035603725
30
0
10
-139.47661559211085
20
198.58549496604576
30
0
10
-139.47490064075578
20
198.59409198772397
30
0
10
-139.47147707611293
20
198.6112542584579
30
0
10
-139.46818776712587
20
198.62750999395004
30
0
10
-139.46485824671996
20
198.64395327838477
30
0
10
-139.45822334263235
20
198.67672064479461
30
0
10
-139.45142757069593
20
198.71024018821748
30
0
10
-139.44460818458737
20
198.74365871026339
30
0
10
-139.43782088586102
20
198.77691998752613
30
0
10
-139.43101059734641
20
198.81007866921584
30
0
10
-139.42414535817221
20
198.8433421501714
30
0
10
-139.41050764106342
20
198.90941966499861
30
0
10
-139.39665260447657
20
198.9759133918044
30
0
10
-139.38261789792887
20
199.0426472490503
30
0
10
-139.36870299295168
20
199.10881145983612
30
0
10
-139.35461161975653
20
199.1752108154094
30
0
10
-139.34034883685888
20
199.24187696497177
30
0
10
-139.3262001972449
20
199.30800959360226
30
0
10
-139.31188284741825
20
199.37440499039485
30
0
10
-139.29741114583118
20
199.44103968788582
30
0
10
-139.28304791795173
20
199.50717492008238
30
0
10
-139.26853265542906
20
199.57354582426373
30
0
10
-139.2538778255223
20
199.64014362096151
30
0
10
-139.19621350159866
20
199.90219490001499
30
0
10
-139.13637743995892
20
200.16775815289267
30
0
10
-139.07524732329415
20
200.4361414172169
30
0
10
-138.69374315852815
20
202.11108232489897
30
0
10
-138.26203896703703
20
203.89595579084914
30
0
10
-138.03283133593118
20
205.62763094387762
30
0
10
-138.00602890800536
20
205.83012463161427
30
0
10
-137.98189760415806
20
206.03187856416227
30
0
10
-137.96070686677686
20
206.23261508462051
30
0
10
-137.94642341066265
20
206.36792001662482
30
0
10
-137.9334749006768
20
206.50276259028146
30
0
10
-137.921928972638
20
206.63705790734497
30
0
10
-137.91902400227232
20
206.67084678208997
30
0
10
-137.91620775748635
20
206.70460100432746
30
0
10
-137.91348125608229
20
206.73831809412349
30
0
10
-137.91074722385412
20
206.77212831333196
30
0
10
-137.90810343103243
20
206.80590120290839
30
0
10
-137.90555048899489
20
206.83964010619692
30
0
10
-137.90299022766848
20
206.87347573897483
30
0
10
-137.90052134093332
20
206.90727715738467
30
0
10
-137.89814578767323
20
206.94102507454519
30
0
10
-137.89695537915551
20
206.95793642261583
30
0
10
-137.8957884051847
20
206.97483435966561
30
0
10
-137.89464356209913
20
206.99174149505481
30
0
10
-137.89349698703467
20
207.0086742084473
30
0
10
-137.89237261531053
20
207.0256160598658
30
0
10
-137.89127627347588
20
207.04247404791209
30
0
10
-137.89072747138803
20
207.05091274717938
30
0
10
-137.89018568891612
20
207.05933049624051
30
0
10
-137.88964358682398
20
207.06784641493761
30
0
10
-137.88910106369559
20
207.07636894772173
30
0
10
-137.88855823499438
20
207.08498956697912
30
0
10
-137.8880450619734
20
207.09322286420988
30
0
10
-137.88778832491121
20
207.09734192826218
30
0
10
-137.88753899998878
20
207.10136421798322
30
0
10
-137.88725865476155
20
207.10591262480935
30
0
10
-137.886978199232
20
207.1104628212147
30
0
10
-137.88658269460399
20
207.11691349574107
30
0
10
-137.88612534941711
20
207.12442448383342
30
0
10
-137.88521011595765
20
207.13945537912542
30
0
10
-137.88438337264179
20
207.15323467578625
30
0
10
-137.88355537043574
20
207.16722224525708
30
0
10
-137.88189737861097
20
207.19523095786923
30
0
10
-137.88023453762005
20
207.22407153257177
30
0
10
-137.87863624516584
20
207.25260581752235
30
0
10
-137.87703535723892
20
207.28118643939794
30
0
10
-137.87549915736989
20
207.30946092004797
30
0
10
-137.87400992068973
20
207.33770922577867
30
0
10
-137.87102401791557
20
207.39434676068049
30
0
10
-137.86822698556455
20
207.45087779446141
30
0
10
-137.86562778869614
20
207.50708724674567
30
0
10
-137.8630196930055
20
207.56348914229167
30
0
10
-137.86061076136835
20
207.61956771037913
30
0
10
-137.85839320360847
20
207.67537970112059
30
0
10
-137.85393422486624
20
207.78760427753755
30
0
10
-137.85024903902348
20
207.89875054073161
30
0
10
-137.84730359076593
20
208.00880148194477
30
0
10
-137.84433578215157
20
208.11968787436768
30
0
10
-137.84211896739089
20
208.22946245784647
30
0
10
-137.84061491539134
20
208.33816171195201
30
0
10
-137.83909492477503
20
208.44801286489718
30
0
10
-137.8383063374441
20
208.55668547961469
30
0
10
-137.83820099675424
20
208.66364776207942
30
0
10
-137.83752939244613
20
209.34559060672791
30
0
10
-137.8639848667984
20
209.96558623551641
30
0
10
-137.90642243919746
20
210.54567978988285
30
0
10
-138.07466466996215
20
212.84543984027334
30
0
10
-138.45267373711602
20
214.54860642478161
30
0
10
-138.88999244247327
20
216.50220317492344
30
0
10
-138.96655922916008
20
216.8442434851315
30
0
10
-139.04586869405765
20
217.1935333219044
30
0
10
-139.12776509215763
20
217.55485517543406
30
0
10
-139.29774020415388
20
218.30477487819596
30
0
10
-139.47941341432016
20
219.10516539008177
30
0
10
-139.66755002492499
20
220.01015289613576
30
0
0
SPLINE
5
139
100
AcDbEntity
8
0
100
AcDbSpline
70
0
71
3
72
35
73
31
74
0
42
0.000000001
43
0.0000000001
44
0.0000000001
40
0
40
0
40
0
40
0
40
1
40
1
40
1
40
2
40
2
40
2
40
3
40
3
40
3
40
4
40
4
40
4
40
5
40
5
40
5
40
6
40
6
40
6
40
7
40
7
40
7
40
8
40
8
40
8
40
9
40
9
40
9
40
9.0020886429296763
40
9.0020886429296763
40
9.0020886429296763
40
9.0020886429296763
10
-139.66755002492499
20
220.01015289613576
30
0
10
-139.40295002492562
20
219.87785289613464
30
0
10
-138.97762350236354
20
219.89024883596758
30
0
10
-138.87375002492664
20
219.61325289613245
30
0
10
-137.55881682692663
20
216.10676436808942
30
0
10
-136.34543247191766
20
212.54522977248638
30
0
10
-135.50010002497007
20
208.89695289611871
30
0
10
-135.0809431141806
20
207.08795991267812
30
0
10
-135.10320002498497
20
205.19727188465711
30
0
10
-135.10320002499247
20
203.34035289611717
30
0
10
-135.10320002500751
20
199.63359114898535
30
0
10
-135.70571417187202
20
195.92820753940919
30
0
10
-135.50010002503745
20
192.22715289611884
30
0
10
-135.43739828491169
20
191.09852157377074
30
0
10
-134.96988154869211
20
189.96928834562408
30
0
10
-134.30940002505048
20
189.05195289611396
30
0
10
-133.72962366083391
20
188.24670794580629
30
0
10
-132.87354063027459
20
187.56675672504119
30
0
10
-131.92800002505766
20
187.26590289610436
30
0
10
-131.28515602547151
20
187.06136162350586
30
0
10
-130.45950933474356
20
187.22826874057353
30
0
10
-129.94350002505601
20
187.66280289609628
30
0
10
-129.10136689717081
20
188.37196763536224
30
0
10
-128.41832821546717
20
189.37150231537586
30
0
10
-128.15745002504474
20
190.44110289608906
30
0
10
-127.73394426756295
20
192.17747650173382
30
0
10
-127.95900002503035
20
194.01197831589639
30
0
10
-127.95900002502314
20
195.79925289608832
30
0
10
-127.95900002502313
20
195.79956183958015
30
0
10
-127.9590006866941
20
195.79987061181552
30
0
10
-127.95900200769822
20
195.80017921344066
30
0
0
SPLINE
5
140
100
AcDbEntity
8
0
100
AcDbSpline
70
0
71
3
72
8
73
4
74
0
42
0.000000001
43
0.0000000001
44
0.0000000001
40
9.0020886429296763
40
9.0020886429296763
40
9.0020886429296763
40
9.0020886429296763
40
9.9958142936777676
40
9.9958142936777676
40
9.9958142936777676
40
9.9958142936777676
10
-127.95900200769822
20
195.80017921344066
30
0
10
-127.95963050942902
20
195.94700438226315
30
0
10
-128.10950735703193
20
196.05520977867258
30
0
10
-128.15685716959604
20
196.1943924732989
30
0
0
SPLINE
5
141
100
AcDbEntity
8
0
100
AcDbSpline
70
0
71
3
72
32
73
28
74
0
42
0.000000001
43
0.0000000001
44
0.0000000001
40
9.9958142936777676
40
9.9958142936777676
40
9.9958142936777676
40
9.9958142936777676
40
10
40
10
40
10
40
11
40
11
40
11
40
12
40
12
40
12
40
13
40
13
40
13
40
14
40
14
40
14
40
15
40
15
40
15
40
16
40
16
40
16
40
17
40
17
40
17
40
18
40
18
40
18
40
18
10
-128.15685716959604
20
196.1943924732989
30
0
10
-128.15705661338583
20
196.19497872956026
30
0
10
-128.15725423813288
20
196.19556553542327
30
0
10
-128.15745002502149
20
196.19615289608913
30
0
10
-129.28200002500779
20
199.56980289609362
30
0
10
-130.52348166530808
20
202.90670229408377
30
0
10
-131.53110002498053
20
206.31710289610268
30
0
10
-132.34982179005914
20
209.08816117794859
30
0
10
-133.52832865825292
20
211.78817998067007
30
0
10
-133.91250002494675
20
214.65200289611235
30
0
10
-138.51827371630381
20
248.98595223273858
30
0
10
-134.62905995915324
20
218.75575514606743
30
0
10
-133.51560002491294
20
222.98690289611076
30
0
10
-132.56016410885286
20
226.61755937707983
30
0
10
-131.30285052917731
20
230.19022771167556
30
0
10
-130.73730002486872
20
233.90165289609962
30
0
10
-130.23865304404228
20
237.17402370768443
30
0
10
-130.09458052271421
20
240.52314815323848
30
0
10
-130.34040002482865
20
243.82415289609796
30
0
10
-130.56102370341173
20
246.78681372294733
30
0
10
-131.49535040345964
20
249.65289463791379
30
0
10
-132.12645002479317
20
252.55595289610508
30
0
10
-132.157871746122
20
252.70049281422024
30
0
10
-132.29589133080364
20
252.80780942616286
30
0
10
-132.32490002479165
20
252.95285289610598
30
0
10
-132.36381927180912
20
253.14744913119688
30
0
10
-132.32490002479005
20
253.34975289610585
30
0
10
-132.32490002478923
20
253.54820289610583
30
0
0
LINE
5
142
100
AcDbEntity
8
0
100
AcDbLine
10
-132.32490002478923
20
253.54820289610583
30
0
11
-131.8819702338767
21
255.86355271287502
31
0
0
LINE
5
143
100
AcDbEntity
8
0
100
AcDbLine
10
-131.8819702338767
20
255.86355271287502
30
0
11
-131.13420002479239
21
252.75440289610103
31
0
0
LWPOLYLINE
5
144
100
AcDbEntity
8
0
100
AcDbPolyline
90
3
70
1
43
0.0
10
-142.96434063001908
20
178.84040881000078
10
-151.3734209017851
20
175.52182712916442
10
-152.45247166475636
20
253.02497556623109
0
LWPOLYLINE
5
145
100
AcDbEntity
8
0
100
AcDbPolyline
90
3
70
1
43
0.0
10
-57.93065408951243
20
251.43467376511137
10
-61.6162914978758
20
174.01168980620474
10
-69.908975665973486
20
177.61127376516012
0
ENDSEC
0
SECTION
2
OBJECTS
0
DICTIONARY
5
C
100
AcDbDictionary
3
ACAD_GROUP
350
D
3
ACAD_MLINESTYLE
350
17
0
DICTIONARY
5
D
100
AcDbDictionary
0
DICTIONARY
5
1A
330
C
100
AcDbDictionary
0
DICTIONARY
5
17
100
AcDbDictionary
0
ENDSEC
0
EOF
